<svg width="111" height="111" viewBox="0 0 111 111" fill="none" xmlns="http://www.w3.org/2000/svg">
<g clip-path="url(#clip0_251453_140)">
<path d="M56 22C51.0555 22 46.222 23.4662 42.1108 26.2133C37.9995 28.9603 34.7952 32.8648 32.903 37.4329C31.0108 42.0011 30.5157 47.0277 31.4804 51.8773C32.445 56.7268 34.826 61.1814 38.3223 64.6777C41.8187 68.174 46.2732 70.555 51.1228 71.5196C55.9723 72.4843 60.9989 71.9892 65.5671 70.097C70.1352 68.2048 74.0397 65.0005 76.7867 60.8893C79.5338 56.778 81 51.9445 81 47C80.9928 40.3718 78.3566 34.0171 73.6698 29.3302C68.9829 24.6434 62.6282 22.0072 56 22ZM56 67.8333C51.8796 67.8333 47.8517 66.6115 44.4256 64.3223C40.9996 62.0331 38.3293 58.7794 36.7525 54.9726C35.1757 51.1658 34.7631 46.9769 35.567 42.9356C36.3708 38.8943 38.355 35.1822 41.2686 32.2686C44.1822 29.355 47.8944 27.3708 51.9356 26.567C55.9769 25.7631 60.1658 26.1757 63.9726 27.7525C67.7794 29.3293 71.0331 31.9996 73.3223 35.4256C75.6115 38.8516 76.8333 42.8796 76.8333 47C76.8273 52.5235 74.6304 57.819 70.7247 61.7247C66.819 65.6304 61.5235 67.8273 56 67.8333Z" fill="#969696"/>
<path d="M61.7666 35.25C61.4129 34.8258 60.9052 34.5594 60.3552 34.5094C59.8051 34.4594 59.2577 34.6299 58.8333 34.9833L46.3333 45.4C46.0988 45.5955 45.9102 45.8402 45.7808 46.1167C45.6513 46.3932 45.5842 46.6947 45.5842 47C45.5842 47.3053 45.6513 47.6068 45.7808 47.8833C45.9102 48.1598 46.0988 48.4045 46.3333 48.6L58.8333 59.0167C59.0424 59.1996 59.2859 59.3388 59.5496 59.4262C59.8133 59.5136 60.0918 59.5474 60.3687 59.5256C60.6457 59.5037 60.9154 59.4267 61.1622 59.2991C61.4089 59.1715 61.6277 58.9958 61.8055 58.7824C61.9833 58.569 62.1167 58.3222 62.1977 58.0565C62.2788 57.7907 62.3059 57.5115 62.2774 57.2352C62.2489 56.9588 62.1655 56.691 62.032 56.4474C61.8985 56.2038 61.7176 55.9893 61.5 55.8167L50.9208 47L61.5 38.1833C61.9242 37.8296 62.1906 37.3219 62.2406 36.7719C62.2906 36.2218 62.1201 35.6744 61.7666 35.25Z" fill="#969696"/>
</g>
<path d="M33.0196 93C32.8496 93 32.7046 92.94 32.5846 92.82C32.4746 92.7 32.4196 92.555 32.4196 92.385V85.845C32.4196 85.675 32.4746 85.535 32.5846 85.425C32.7046 85.305 32.8496 85.245 33.0196 85.245C33.1996 85.245 33.3446 85.305 33.4546 85.425C33.5646 85.535 33.6196 85.675 33.6196 85.845V87.825L33.4396 87.51C33.4996 87.2 33.6046 86.9 33.7546 86.61C33.9146 86.31 34.1146 86.045 34.3546 85.815C34.5946 85.575 34.8696 85.39 35.1796 85.26C35.4896 85.12 35.8296 85.05 36.1996 85.05C36.4196 85.05 36.6196 85.105 36.7996 85.215C36.9896 85.315 37.0846 85.46 37.0846 85.65C37.0846 85.86 37.0296 86.015 36.9196 86.115C36.8096 86.215 36.6846 86.265 36.5446 86.265C36.4146 86.265 36.2896 86.24 36.1696 86.19C36.0496 86.13 35.8996 86.1 35.7196 86.1C35.4696 86.1 35.2196 86.17 34.9696 86.31C34.7296 86.44 34.5046 86.63 34.2946 86.88C34.0946 87.13 33.9296 87.415 33.7996 87.735C33.6796 88.045 33.6196 88.38 33.6196 88.74V92.385C33.6196 92.555 33.5596 92.7 33.4396 92.82C33.3296 92.94 33.1896 93 33.0196 93ZM41.6882 93.15C40.8882 93.15 40.1882 92.98 39.5882 92.64C38.9882 92.3 38.5182 91.835 38.1782 91.245C37.8482 90.645 37.6832 89.955 37.6832 89.175C37.6832 88.305 37.8532 87.565 38.1932 86.955C38.5432 86.335 38.9932 85.865 39.5432 85.545C40.1032 85.215 40.6932 85.05 41.3132 85.05C41.7732 85.05 42.2182 85.135 42.6482 85.305C43.0782 85.475 43.4582 85.725 43.7882 86.055C44.1182 86.375 44.3832 86.765 44.5832 87.225C44.7832 87.675 44.8882 88.18 44.8982 88.74C44.8982 88.9 44.8382 89.035 44.7182 89.145C44.5982 89.255 44.4582 89.31 44.2982 89.31H38.3732L38.1032 88.275H43.8782L43.6382 88.485V88.155C43.5982 87.745 43.4582 87.395 43.2182 87.105C42.9882 86.805 42.7032 86.575 42.3632 86.415C42.0332 86.255 41.6832 86.175 41.3132 86.175C41.0132 86.175 40.7132 86.23 40.4132 86.34C40.1232 86.44 39.8582 86.61 39.6182 86.85C39.3882 87.08 39.1982 87.38 39.0482 87.75C38.9082 88.12 38.8382 88.565 38.8382 89.085C38.8382 89.665 38.9532 90.175 39.1832 90.615C39.4232 91.055 39.7532 91.405 40.1732 91.665C40.5932 91.915 41.0832 92.04 41.6432 92.04C41.9932 92.04 42.2982 91.995 42.5582 91.905C42.8182 91.815 43.0432 91.705 43.2332 91.575C43.4232 91.435 43.5832 91.295 43.7132 91.155C43.8432 91.065 43.9682 91.02 44.0882 91.02C44.2382 91.02 44.3582 91.07 44.4482 91.17C44.5482 91.27 44.5982 91.39 44.5982 91.53C44.5982 91.7 44.5182 91.85 44.3582 91.98C44.0782 92.29 43.6982 92.565 43.2182 92.805C42.7382 93.035 42.2282 93.15 41.6882 93.15ZM49.8836 85.05C50.3136 85.05 50.7136 85.125 51.0836 85.275C51.4536 85.415 51.7736 85.6 52.0436 85.83C52.3236 86.06 52.5386 86.3 52.6886 86.55C52.8486 86.8 52.9286 87.035 52.9286 87.255L52.6436 87.075V85.77C52.6436 85.6 52.6986 85.46 52.8086 85.35C52.9186 85.23 53.0636 85.17 53.2436 85.17C53.4136 85.17 53.5536 85.23 53.6636 85.35C53.7836 85.46 53.8436 85.6 53.8436 85.77V92.34C53.8436 93.16 53.6686 93.84 53.3186 94.38C52.9786 94.92 52.5186 95.325 51.9386 95.595C51.3586 95.865 50.7086 96 49.9886 96C49.6886 96 49.3586 95.96 48.9986 95.88C48.6386 95.8 48.3186 95.7 48.0386 95.58C47.7586 95.47 47.5786 95.355 47.4986 95.235C47.3486 95.135 47.2536 95.02 47.2136 94.89C47.1836 94.77 47.2086 94.655 47.2886 94.545C47.3786 94.405 47.4936 94.335 47.6336 94.335C47.7836 94.335 47.9686 94.38 48.1886 94.47C48.2786 94.5 48.4186 94.55 48.6086 94.62C48.8086 94.69 49.0286 94.75 49.2686 94.8C49.5186 94.86 49.7636 94.89 50.0036 94.89C50.8536 94.89 51.5036 94.665 51.9536 94.215C52.4136 93.775 52.6436 93.19 52.6436 92.46V91.065L52.8086 91.14C52.7486 91.42 52.6236 91.68 52.4336 91.92C52.2536 92.16 52.0286 92.375 51.7586 92.565C51.4986 92.745 51.2086 92.89 50.8886 93C50.5686 93.1 50.2436 93.15 49.9136 93.15C49.2136 93.15 48.5836 92.975 48.0236 92.625C47.4636 92.275 47.0186 91.795 46.6886 91.185C46.3686 90.575 46.2086 89.88 46.2086 89.1C46.2086 88.31 46.3686 87.61 46.6886 87C47.0186 86.39 47.4586 85.915 48.0086 85.575C48.5686 85.225 49.1936 85.05 49.8836 85.05ZM50.0336 86.16C49.5236 86.16 49.0636 86.29 48.6536 86.55C48.2536 86.8 47.9386 87.145 47.7086 87.585C47.4886 88.025 47.3786 88.53 47.3786 89.1C47.3786 89.65 47.4886 90.15 47.7086 90.6C47.9386 91.04 48.2536 91.39 48.6536 91.65C49.0636 91.91 49.5236 92.04 50.0336 92.04C50.5536 92.04 51.0136 91.915 51.4136 91.665C51.8136 91.405 52.1286 91.055 52.3586 90.615C52.5886 90.175 52.7036 89.67 52.7036 89.1C52.7036 88.52 52.5886 88.01 52.3586 87.57C52.1286 87.13 51.8136 86.785 51.4136 86.535C51.0136 86.285 50.5536 86.16 50.0336 86.16ZM56.6621 93C56.4921 93 56.3471 92.94 56.2271 92.82C56.1171 92.7 56.0621 92.555 56.0621 92.385V85.845C56.0621 85.675 56.1171 85.535 56.2271 85.425C56.3471 85.305 56.4921 85.245 56.6621 85.245C56.8421 85.245 56.9871 85.305 57.0971 85.425C57.2071 85.535 57.2621 85.675 57.2621 85.845V87.825L57.0821 87.51C57.1421 87.2 57.2471 86.9 57.3971 86.61C57.5571 86.31 57.7571 86.045 57.9971 85.815C58.2371 85.575 58.5121 85.39 58.8221 85.26C59.1321 85.12 59.4721 85.05 59.8421 85.05C60.0621 85.05 60.2621 85.105 60.4421 85.215C60.6321 85.315 60.7271 85.46 60.7271 85.65C60.7271 85.86 60.6721 86.015 60.5621 86.115C60.4521 86.215 60.3271 86.265 60.1871 86.265C60.0571 86.265 59.9321 86.24 59.8121 86.19C59.6921 86.13 59.5421 86.1 59.3621 86.1C59.1121 86.1 58.8621 86.17 58.6121 86.31C58.3721 86.44 58.1471 86.63 57.9371 86.88C57.7371 87.13 57.5721 87.415 57.4421 87.735C57.3221 88.045 57.2621 88.38 57.2621 88.74V92.385C57.2621 92.555 57.2021 92.7 57.0821 92.82C56.9721 92.94 56.8321 93 56.6621 93ZM65.3307 93.15C64.5307 93.15 63.8307 92.98 63.2307 92.64C62.6307 92.3 62.1607 91.835 61.8207 91.245C61.4907 90.645 61.3257 89.955 61.3257 89.175C61.3257 88.305 61.4957 87.565 61.8357 86.955C62.1857 86.335 62.6357 85.865 63.1857 85.545C63.7457 85.215 64.3357 85.05 64.9557 85.05C65.4157 85.05 65.8607 85.135 66.2907 85.305C66.7207 85.475 67.1007 85.725 67.4307 86.055C67.7607 86.375 68.0257 86.765 68.2257 87.225C68.4257 87.675 68.5307 88.18 68.5407 88.74C68.5407 88.9 68.4807 89.035 68.3607 89.145C68.2407 89.255 68.1007 89.31 67.9407 89.31H62.0157L61.7457 88.275H67.5207L67.2807 88.485V88.155C67.2407 87.745 67.1007 87.395 66.8607 87.105C66.6307 86.805 66.3457 86.575 66.0057 86.415C65.6757 86.255 65.3257 86.175 64.9557 86.175C64.6557 86.175 64.3557 86.23 64.0557 86.34C63.7657 86.44 63.5007 86.61 63.2607 86.85C63.0307 87.08 62.8407 87.38 62.6907 87.75C62.5507 88.12 62.4807 88.565 62.4807 89.085C62.4807 89.665 62.5957 90.175 62.8257 90.615C63.0657 91.055 63.3957 91.405 63.8157 91.665C64.2357 91.915 64.7257 92.04 65.2857 92.04C65.6357 92.04 65.9407 91.995 66.2007 91.905C66.4607 91.815 66.6857 91.705 66.8757 91.575C67.0657 91.435 67.2257 91.295 67.3557 91.155C67.4857 91.065 67.6107 91.02 67.7307 91.02C67.8807 91.02 68.0007 91.07 68.0907 91.17C68.1907 91.27 68.2407 91.39 68.2407 91.53C68.2407 91.7 68.1607 91.85 68.0007 91.98C67.7207 92.29 67.3407 92.565 66.8607 92.805C66.3807 93.035 65.8707 93.15 65.3307 93.15ZM69.9094 91.77C69.8194 91.64 69.7794 91.505 69.7894 91.365C69.7994 91.215 69.8844 91.085 70.0444 90.975C70.1444 90.905 70.2594 90.875 70.3894 90.885C70.5294 90.895 70.6544 90.96 70.7644 91.08C71.0444 91.41 71.3644 91.675 71.7244 91.875C72.0844 92.065 72.5244 92.16 73.0444 92.16C73.2844 92.15 73.5244 92.11 73.7644 92.04C74.0044 91.97 74.2044 91.85 74.3644 91.68C74.5344 91.5 74.6194 91.265 74.6194 90.975C74.6194 90.695 74.5344 90.475 74.3644 90.315C74.1944 90.145 73.9744 90.01 73.7044 89.91C73.4344 89.8 73.1394 89.705 72.8194 89.625C72.4894 89.535 72.1644 89.435 71.8444 89.325C71.5244 89.205 71.2344 89.06 70.9744 88.89C70.7244 88.71 70.5194 88.49 70.3594 88.23C70.2094 87.96 70.1344 87.635 70.1344 87.255C70.1344 86.805 70.2544 86.415 70.4944 86.085C70.7444 85.755 71.0744 85.5 71.4844 85.32C71.9044 85.14 72.3594 85.05 72.8494 85.05C73.1294 85.05 73.4194 85.085 73.7194 85.155C74.0294 85.215 74.3294 85.325 74.6194 85.485C74.9094 85.635 75.1644 85.845 75.3844 86.115C75.4744 86.215 75.5244 86.34 75.5344 86.49C75.5444 86.64 75.4794 86.775 75.3394 86.895C75.2294 86.975 75.1044 87.01 74.9644 87C74.8344 86.99 74.7244 86.94 74.6344 86.85C74.4244 86.6 74.1594 86.41 73.8394 86.28C73.5294 86.14 73.1844 86.07 72.8044 86.07C72.5644 86.07 72.3294 86.105 72.0994 86.175C71.8694 86.245 71.6744 86.365 71.5144 86.535C71.3644 86.695 71.2894 86.92 71.2894 87.21C71.2994 87.48 71.3894 87.7 71.5594 87.87C71.7294 88.04 71.9594 88.18 72.2494 88.29C72.5394 88.39 72.8594 88.49 73.2094 88.59C73.5294 88.67 73.8344 88.765 74.1244 88.875C74.4244 88.975 74.6944 89.11 74.9344 89.28C75.1744 89.45 75.3644 89.67 75.5044 89.94C75.6444 90.2 75.7144 90.53 75.7144 90.93C75.7144 91.39 75.5844 91.79 75.3244 92.13C75.0644 92.46 74.7194 92.715 74.2894 92.895C73.8694 93.065 73.4144 93.15 72.9244 93.15C72.3744 93.15 71.8294 93.045 71.2894 92.835C70.7594 92.625 70.2994 92.27 69.9094 91.77ZM83.9561 85.17C84.1261 85.17 84.2661 85.23 84.3761 85.35C84.4961 85.46 84.5561 85.6 84.5561 85.77V92.385C84.5561 92.555 84.4961 92.7 84.3761 92.82C84.2661 92.94 84.1261 93 83.9561 93C83.7761 93 83.6311 92.94 83.5211 92.82C83.4111 92.7 83.3561 92.555 83.3561 92.385V90.96L83.6411 90.93C83.6411 91.15 83.5661 91.39 83.4161 91.65C83.2661 91.91 83.0611 92.155 82.8011 92.385C82.5411 92.605 82.2311 92.79 81.8711 92.94C81.5211 93.08 81.1411 93.15 80.7311 93.15C80.0511 93.15 79.4411 92.975 78.9011 92.625C78.3611 92.265 77.9311 91.78 77.6111 91.17C77.3011 90.56 77.1461 89.865 77.1461 89.085C77.1461 88.295 77.3011 87.6 77.6111 87C77.9311 86.39 78.3611 85.915 78.9011 85.575C79.4411 85.225 80.0411 85.05 80.7011 85.05C81.1311 85.05 81.5311 85.12 81.9011 85.26C82.2711 85.4 82.5911 85.59 82.8611 85.83C83.1411 86.07 83.3561 86.335 83.5061 86.625C83.6661 86.915 83.7461 87.205 83.7461 87.495L83.3561 87.405V85.77C83.3561 85.6 83.4111 85.46 83.5211 85.35C83.6311 85.23 83.7761 85.17 83.9561 85.17ZM80.8661 92.04C81.3661 92.04 81.8061 91.91 82.1861 91.65C82.5761 91.39 82.8761 91.04 83.0861 90.6C83.3061 90.15 83.4161 89.645 83.4161 89.085C83.4161 88.535 83.3061 88.04 83.0861 87.6C82.8761 87.15 82.5761 86.8 82.1861 86.55C81.8061 86.29 81.3661 86.16 80.8661 86.16C80.3761 86.16 79.9361 86.285 79.5461 86.535C79.1661 86.785 78.8661 87.13 78.6461 87.57C78.4261 88.01 78.3161 88.515 78.3161 89.085C78.3161 89.645 78.4211 90.15 78.6311 90.6C78.8511 91.04 79.1511 91.39 79.5311 91.65C79.9211 91.91 80.3661 92.04 80.8661 92.04ZM87.3799 93C87.2099 93 87.0649 92.94 86.9449 92.82C86.8349 92.7 86.7799 92.555 86.7799 92.385V85.845C86.7799 85.675 86.8349 85.535 86.9449 85.425C87.0649 85.305 87.2099 85.245 87.3799 85.245C87.5599 85.245 87.7049 85.305 87.8149 85.425C87.9249 85.535 87.9799 85.675 87.9799 85.845V87.825L87.7999 87.51C87.8599 87.2 87.9649 86.9 88.1149 86.61C88.2749 86.31 88.4749 86.045 88.7149 85.815C88.9549 85.575 89.2299 85.39 89.5399 85.26C89.8499 85.12 90.1899 85.05 90.5599 85.05C90.7799 85.05 90.9799 85.105 91.1599 85.215C91.3499 85.315 91.4449 85.46 91.4449 85.65C91.4449 85.86 91.3899 86.015 91.2799 86.115C91.1699 86.215 91.0449 86.265 90.9049 86.265C90.7749 86.265 90.6499 86.24 90.5299 86.19C90.4099 86.13 90.2599 86.1 90.0799 86.1C89.8299 86.1 89.5799 86.17 89.3299 86.31C89.0899 86.44 88.8649 86.63 88.6549 86.88C88.4549 87.13 88.2899 87.415 88.1599 87.735C88.0399 88.045 87.9799 88.38 87.9799 88.74V92.385C87.9799 92.555 87.9199 92.7 87.7999 92.82C87.6899 92.94 87.5499 93 87.3799 93Z" fill="#969696"/>
<defs>
<clipPath id="clip0_251453_140">
<rect width="50" height="50" fill="white" transform="translate(31 22)"/>
</clipPath>
</defs>
</svg>
