<svg width="136" height="56" viewBox="0 0 136 56" fill="none" xmlns="http://www.w3.org/2000/svg">
<path d="M64.223 26.392C64.799 26.392 65.311 26.456 65.759 26.584C66.207 26.7013 66.5537 26.872 66.799 27.096C67.055 27.3093 67.183 27.56 67.183 27.848C67.183 28.0293 67.1297 28.2 67.023 28.36C66.9163 28.5093 66.7563 28.584 66.543 28.584C66.3937 28.584 66.2657 28.5573 66.159 28.504C66.063 28.4507 65.9723 28.3867 65.887 28.312C65.8017 28.2373 65.695 28.1627 65.567 28.088C65.4497 28.024 65.2737 27.9707 65.039 27.928C64.815 27.8853 64.6123 27.864 64.431 27.864C63.8657 27.864 63.375 27.992 62.959 28.248C62.5537 28.504 62.2337 28.8507 61.999 29.288C61.775 29.7253 61.663 30.2213 61.663 30.776C61.663 31.3307 61.775 31.8267 61.999 32.264C62.2337 32.7013 62.5483 33.048 62.943 33.304C63.3483 33.56 63.8177 33.688 64.351 33.688C64.671 33.688 64.9323 33.6667 65.135 33.624C65.3377 33.5707 65.5137 33.5067 65.663 33.432C65.823 33.336 65.9563 33.24 66.063 33.144C66.1803 33.0373 66.3403 32.984 66.543 32.984C66.7777 32.984 66.9537 33.0587 67.071 33.208C67.199 33.3467 67.263 33.5227 67.263 33.736C67.263 33.9707 67.119 34.2 66.831 34.424C66.5537 34.6373 66.1803 34.8133 65.711 34.952C65.2417 35.0907 64.7243 35.16 64.159 35.16C63.327 35.16 62.6017 34.968 61.983 34.584C61.375 34.2 60.9003 33.6773 60.559 33.016C60.2283 32.3547 60.063 31.608 60.063 30.776C60.063 29.9333 60.239 29.1867 60.591 28.536C60.943 27.8747 61.4337 27.352 62.063 26.968C62.6923 26.584 63.4123 26.392 64.223 26.392ZM69.5919 35C69.3572 35 69.1652 34.9253 69.0159 34.776C68.8665 34.616 68.7919 34.4187 68.7919 34.184V27.4C68.7919 27.1653 68.8665 26.9733 69.0159 26.824C69.1652 26.664 69.3572 26.584 69.5919 26.584C69.8159 26.584 70.0025 26.664 70.1519 26.824C70.3119 26.9733 70.3919 27.1653 70.3919 27.4V29.192L70.2319 28.504C70.3172 28.2053 70.4452 27.928 70.6159 27.672C70.7972 27.416 71.0105 27.192 71.2559 27C71.5012 26.808 71.7732 26.6587 72.0719 26.552C72.3812 26.4453 72.7012 26.392 73.0319 26.392C73.3092 26.392 73.5492 26.4667 73.7519 26.616C73.9545 26.7653 74.0559 26.952 74.0559 27.176C74.0559 27.464 73.9812 27.6773 73.8319 27.816C73.6825 27.944 73.5172 28.008 73.3359 28.008C73.1759 28.008 73.0212 27.976 72.8719 27.912C72.7225 27.8373 72.5465 27.8 72.3439 27.8C72.1199 27.8 71.8905 27.8587 71.6559 27.976C71.4212 28.0933 71.2079 28.2693 71.0159 28.504C70.8239 28.728 70.6692 28.9947 70.5519 29.304C70.4452 29.6133 70.3919 29.96 70.3919 30.344V34.184C70.3919 34.4187 70.3119 34.616 70.1519 34.776C70.0025 34.9253 69.8159 35 69.5919 35ZM76.9834 34.184C76.9834 34.4187 76.9087 34.616 76.7594 34.776C76.61 34.9253 76.418 35 76.1834 35C75.9594 35 75.7674 34.9253 75.6074 34.776C75.458 34.616 75.3834 34.4187 75.3834 34.184V27.336C75.3834 27.1013 75.458 26.9093 75.6074 26.76C75.7674 26.6 75.9594 26.52 76.1834 26.52C76.418 26.52 76.61 26.6 76.7594 26.76C76.9087 26.9093 76.9834 27.1013 76.9834 27.336V34.184ZM76.1674 25.464C75.858 25.464 75.634 25.4107 75.4954 25.304C75.3567 25.1867 75.2874 24.9947 75.2874 24.728V24.472C75.2874 24.2053 75.362 24.0187 75.5114 23.912C75.6607 23.8053 75.8847 23.752 76.1834 23.752C76.5034 23.752 76.7327 23.8107 76.8714 23.928C77.01 24.0347 77.0794 24.216 77.0794 24.472V24.728C77.0794 25.0053 77.0047 25.1973 76.8554 25.304C76.7167 25.4107 76.4874 25.464 76.1674 25.464ZM78.6396 33.688C78.5436 33.5387 78.501 33.368 78.5116 33.176C78.5223 32.9733 78.6343 32.8027 78.8476 32.664C78.997 32.568 79.1516 32.5307 79.3116 32.552C79.4823 32.5627 79.6423 32.6427 79.7916 32.792C80.0903 33.1227 80.421 33.384 80.7836 33.576C81.157 33.768 81.605 33.864 82.1276 33.864C82.341 33.8533 82.5596 33.8213 82.7836 33.768C83.0076 33.704 83.1996 33.5973 83.3596 33.448C83.5196 33.288 83.5996 33.0587 83.5996 32.76C83.5996 32.4933 83.5143 32.28 83.3436 32.12C83.173 31.96 82.949 31.832 82.6716 31.736C82.3943 31.6293 82.0956 31.5333 81.7756 31.448C81.4343 31.352 81.0876 31.2453 80.7356 31.128C80.3943 31.0107 80.085 30.8613 79.8076 30.68C79.5303 30.488 79.301 30.2427 79.1196 29.944C78.949 29.6453 78.8636 29.2773 78.8636 28.84C78.8636 28.3387 79.0023 27.9067 79.2796 27.544C79.5676 27.1813 79.9356 26.8987 80.3836 26.696C80.8423 26.4933 81.3383 26.392 81.8716 26.392C82.181 26.392 82.5063 26.4347 82.8476 26.52C83.189 26.5947 83.5196 26.7173 83.8396 26.888C84.1596 27.0587 84.437 27.2827 84.6716 27.56C84.7783 27.6987 84.837 27.864 84.8476 28.056C84.869 28.248 84.7836 28.4187 84.5916 28.568C84.4636 28.6747 84.309 28.7227 84.1276 28.712C83.9463 28.7013 83.797 28.6427 83.6796 28.536C83.477 28.28 83.2156 28.0827 82.8956 27.944C82.5756 27.7947 82.213 27.72 81.8076 27.72C81.605 27.72 81.3916 27.752 81.1676 27.816C80.9543 27.8693 80.773 27.9707 80.6236 28.12C80.4743 28.2693 80.3996 28.488 80.3996 28.776C80.3996 29.0427 80.485 29.256 80.6556 29.416C80.837 29.576 81.0716 29.7093 81.3596 29.816C81.6476 29.9227 81.9623 30.0187 82.3036 30.104C82.6343 30.1893 82.9596 30.2907 83.2796 30.408C83.6103 30.5253 83.9036 30.68 84.1596 30.872C84.4263 31.0533 84.6396 31.2933 84.7996 31.592C84.9703 31.88 85.0556 32.248 85.0556 32.696C85.0556 33.2187 84.901 33.6667 84.5916 34.04C84.293 34.4027 83.909 34.68 83.4396 34.872C82.981 35.064 82.4956 35.16 81.9836 35.16C81.3756 35.16 80.7676 35.0533 80.1596 34.84C79.5623 34.616 79.0556 34.232 78.6396 33.688ZM93.7973 26.456C94.0319 26.456 94.2239 26.536 94.3733 26.696C94.5226 26.8453 94.5972 27.0373 94.5972 27.272V34.184C94.5972 34.4187 94.5226 34.616 94.3733 34.776C94.2239 34.9253 94.0319 35 93.7973 35C93.5733 35 93.3813 34.9253 93.2213 34.776C93.0719 34.616 92.9973 34.4187 92.9973 34.184V33.032L93.3333 33.08C93.3333 33.272 93.2533 33.4853 93.0933 33.72C92.9439 33.9547 92.7359 34.184 92.4693 34.408C92.2026 34.6213 91.8879 34.8027 91.5253 34.952C91.1626 35.0907 90.7733 35.16 90.3573 35.16C89.6213 35.16 88.9599 34.9733 88.3733 34.6C87.7866 34.216 87.3226 33.6933 86.9813 33.032C86.6399 32.3707 86.4693 31.6187 86.4693 30.776C86.4693 29.912 86.6399 29.1547 86.9813 28.504C87.3226 27.8427 87.7813 27.3253 88.3573 26.952C88.9439 26.5787 89.5946 26.392 90.3093 26.392C90.7679 26.392 91.1893 26.4667 91.5733 26.616C91.9679 26.7653 92.3093 26.9573 92.5973 27.192C92.8853 27.4267 93.1039 27.6773 93.2533 27.944C93.4133 28.2 93.4933 28.4453 93.4933 28.68L92.9973 28.728V27.272C92.9973 27.048 93.0719 26.856 93.2213 26.696C93.3813 26.536 93.5733 26.456 93.7973 26.456ZM90.5333 33.688C91.0346 33.688 91.4773 33.56 91.8613 33.304C92.2453 33.048 92.5439 32.7013 92.7573 32.264C92.9706 31.816 93.0773 31.32 93.0773 30.776C93.0773 30.2213 92.9706 29.7253 92.7573 29.288C92.5439 28.8507 92.2453 28.504 91.8613 28.248C91.4773 27.992 91.0346 27.864 90.5333 27.864C90.0426 27.864 89.6053 27.992 89.2213 28.248C88.8479 28.504 88.5493 28.8507 88.3253 29.288C88.1119 29.7253 88.0053 30.2213 88.0053 30.776C88.0053 31.32 88.1119 31.816 88.3253 32.264C88.5493 32.7013 88.8479 33.048 89.2213 33.304C89.6053 33.56 90.0426 33.688 90.5333 33.688ZM97.6388 35C97.4041 35 97.2121 34.9253 97.0628 34.776C96.9134 34.616 96.8388 34.4187 96.8388 34.184V27.4C96.8388 27.1653 96.9134 26.9733 97.0628 26.824C97.2121 26.664 97.4041 26.584 97.6388 26.584C97.8628 26.584 98.0494 26.664 98.1988 26.824C98.3588 26.9733 98.4388 27.1653 98.4388 27.4V29.192L98.2788 28.504C98.3641 28.2053 98.4921 27.928 98.6628 27.672C98.8441 27.416 99.0574 27.192 99.3028 27C99.5481 26.808 99.8201 26.6587 100.119 26.552C100.428 26.4453 100.748 26.392 101.079 26.392C101.356 26.392 101.596 26.4667 101.799 26.616C102.001 26.7653 102.103 26.952 102.103 27.176C102.103 27.464 102.028 27.6773 101.879 27.816C101.729 27.944 101.564 28.008 101.383 28.008C101.223 28.008 101.068 27.976 100.919 27.912C100.769 27.8373 100.593 27.8 100.391 27.8C100.167 27.8 99.9374 27.8587 99.7028 27.976C99.4681 28.0933 99.2548 28.2693 99.0628 28.504C98.8708 28.728 98.7161 28.9947 98.5988 29.304C98.4921 29.6133 98.4388 29.96 98.4388 30.344V34.184C98.4388 34.4187 98.3588 34.616 98.1988 34.776C98.0494 34.9253 97.8628 35 97.6388 35ZM107.766 26.44C108.502 26.44 109.073 26.6 109.478 26.92C109.884 27.2293 110.166 27.6507 110.326 28.184C110.497 28.7173 110.582 29.304 110.582 29.944V34.184C110.582 34.4187 110.502 34.616 110.342 34.776C110.193 34.9253 110.006 35 109.782 35C109.548 35 109.356 34.9253 109.206 34.776C109.057 34.616 108.982 34.4187 108.982 34.184V29.944C108.982 29.5707 108.929 29.2293 108.822 28.92C108.726 28.6107 108.55 28.3653 108.294 28.184C108.049 28.0027 107.702 27.912 107.254 27.912C106.838 27.912 106.465 28.0027 106.134 28.184C105.814 28.3653 105.564 28.6107 105.382 28.92C105.212 29.2293 105.126 29.5707 105.126 29.944V34.184C105.126 34.4187 105.046 34.616 104.886 34.776C104.737 34.9253 104.55 35 104.326 35C104.092 35 103.9 34.9253 103.75 34.776C103.601 34.616 103.526 34.4187 103.526 34.184V23.976C103.526 23.7413 103.601 23.5493 103.75 23.4C103.9 23.24 104.092 23.16 104.326 23.16C104.55 23.16 104.737 23.24 104.886 23.4C105.046 23.5493 105.126 23.7413 105.126 23.976V28.344L104.838 28.504C104.913 28.2693 105.036 28.0293 105.206 27.784C105.388 27.5387 105.606 27.3147 105.862 27.112C106.129 26.9093 106.422 26.7493 106.742 26.632C107.062 26.504 107.404 26.44 107.766 26.44ZM117.048 26.44C117.794 26.44 118.456 26.6267 119.032 27C119.618 27.3733 120.082 27.8853 120.424 28.536C120.765 29.176 120.936 29.9227 120.936 30.776C120.936 31.6293 120.765 32.3867 120.424 33.048C120.082 33.6987 119.624 34.2107 119.048 34.584C118.472 34.9573 117.821 35.144 117.096 35.144C116.69 35.144 116.306 35.08 115.944 34.952C115.581 34.824 115.261 34.6587 114.984 34.456C114.706 34.2427 114.477 34.0187 114.296 33.784C114.125 33.5493 114.018 33.3307 113.976 33.128L114.408 32.92V37.384C114.408 37.6187 114.328 37.8107 114.168 37.96C114.018 38.12 113.832 38.2 113.608 38.2C113.373 38.2 113.181 38.12 113.032 37.96C112.882 37.8107 112.808 37.6187 112.808 37.384V27.368C112.808 27.144 112.882 26.952 113.032 26.792C113.181 26.632 113.373 26.552 113.608 26.552C113.832 26.552 114.018 26.632 114.168 26.792C114.328 26.952 114.408 27.144 114.408 27.368V28.472L114.152 28.328C114.184 28.1253 114.285 27.9173 114.456 27.704C114.626 27.48 114.84 27.272 115.096 27.08C115.362 26.888 115.661 26.7333 115.992 26.616C116.333 26.4987 116.685 26.44 117.048 26.44ZM116.872 27.912C116.36 27.912 115.912 28.04 115.528 28.296C115.154 28.5413 114.861 28.8773 114.648 29.304C114.434 29.7307 114.328 30.2213 114.328 30.776C114.328 31.32 114.434 31.816 114.648 32.264C114.861 32.7013 115.154 33.048 115.528 33.304C115.912 33.5493 116.36 33.672 116.872 33.672C117.373 33.672 117.81 33.5493 118.184 33.304C118.557 33.048 118.85 32.7013 119.064 32.264C119.288 31.816 119.4 31.32 119.4 30.776C119.4 30.232 119.288 29.7467 119.064 29.32C118.85 28.8827 118.557 28.5413 118.184 28.296C117.81 28.04 117.373 27.912 116.872 27.912Z" fill="white"/>
<path fill-rule="evenodd" clip-rule="evenodd" d="M30.0104 12.772C21.1753 12.772 14.0121 20.1164 14.0121 29.1777C14.0121 36.4253 18.5961 42.5737 24.9544 44.7438C25.7547 44.894 26.0463 44.3875 26.0463 43.952C26.0463 43.5636 26.033 42.5314 26.025 41.1627C21.5742 42.1539 20.6354 38.9633 20.6354 38.9633C19.9077 37.069 18.8584 36.5645 18.8584 36.5645C17.4056 35.546 18.9682 35.5665 18.9682 35.5665C20.5741 35.6832 21.419 37.2574 21.419 37.2574C22.8465 39.764 25.1641 39.0397 26.0756 38.6206C26.2214 37.5605 26.6335 36.8376 27.0916 36.4273C23.5389 36.0136 19.8032 34.6054 19.8032 28.3197C19.8032 26.5291 20.427 25.0642 21.4503 23.9173C21.2859 23.5023 20.7366 21.8346 21.6068 19.5758C21.6068 19.5758 22.9504 19.1348 26.007 21.2578C27.2833 20.894 28.6522 20.7117 30.0124 20.7056C31.3713 20.7117 32.7402 20.894 34.0185 21.2578C37.0732 19.1348 38.4141 19.5758 38.4141 19.5758C39.2869 21.8346 38.7376 23.5023 38.5732 23.9173C39.5985 25.0642 40.2184 26.5291 40.2184 28.3197C40.2184 34.6217 36.4766 36.0082 32.9119 36.4143C33.4872 36.9209 33.9985 37.9216 33.9985 39.4527C33.9985 41.6454 33.9792 43.4148 33.9792 43.952C33.9792 44.3916 34.2668 44.9022 35.0791 44.7418C41.4321 42.5676 46.0121 36.4232 46.0121 29.1777C46.0121 20.1164 38.8482 12.772 30.0104 12.772Z" fill="#E5E5E5"/>
</svg>
