<svg width="233" height="56" viewBox="0 0 233 56" fill="none" xmlns="http://www.w3.org/2000/svg">
<path d="M55.2621 26.392C55.8381 26.392 56.3501 26.456 56.7981 26.584C57.2461 26.7013 57.5927 26.872 57.8381 27.096C58.0941 27.3093 58.2221 27.56 58.2221 27.848C58.2221 28.0293 58.1687 28.2 58.0621 28.36C57.9554 28.5093 57.7954 28.584 57.5821 28.584C57.4327 28.584 57.3047 28.5573 57.1981 28.504C57.1021 28.4507 57.0114 28.3867 56.9261 28.312C56.8407 28.2373 56.7341 28.1627 56.6061 28.088C56.4887 28.024 56.3127 27.9707 56.0781 27.928C55.8541 27.8853 55.6514 27.864 55.4701 27.864C54.9047 27.864 54.4141 27.992 53.9981 28.248C53.5927 28.504 53.2727 28.8507 53.0381 29.288C52.8141 29.7253 52.7021 30.2213 52.7021 30.776C52.7021 31.3307 52.8141 31.8267 53.0381 32.264C53.2727 32.7013 53.5874 33.048 53.9821 33.304C54.3874 33.56 54.8567 33.688 55.3901 33.688C55.7101 33.688 55.9714 33.6667 56.1741 33.624C56.3767 33.5707 56.5527 33.5067 56.7021 33.432C56.8621 33.336 56.9954 33.24 57.1021 33.144C57.2194 33.0373 57.3794 32.984 57.5821 32.984C57.8167 32.984 57.9927 33.0587 58.1101 33.208C58.2381 33.3467 58.3021 33.5227 58.3021 33.736C58.3021 33.9707 58.1581 34.2 57.8701 34.424C57.5927 34.6373 57.2194 34.8133 56.7501 34.952C56.2807 35.0907 55.7634 35.16 55.1981 35.16C54.3661 35.16 53.6407 34.968 53.0221 34.584C52.4141 34.2 51.9394 33.6773 51.5981 33.016C51.2674 32.3547 51.1021 31.608 51.1021 30.776C51.1021 29.9333 51.2781 29.1867 51.6301 28.536C51.9821 27.8747 52.4727 27.352 53.1021 26.968C53.7314 26.584 54.4514 26.392 55.2621 26.392ZM60.6309 35C60.3963 35 60.2043 34.9253 60.0549 34.776C59.9056 34.616 59.8309 34.4187 59.8309 34.184V27.4C59.8309 27.1653 59.9056 26.9733 60.0549 26.824C60.2043 26.664 60.3963 26.584 60.6309 26.584C60.8549 26.584 61.0416 26.664 61.1909 26.824C61.3509 26.9733 61.4309 27.1653 61.4309 27.4V29.192L61.2709 28.504C61.3563 28.2053 61.4843 27.928 61.6549 27.672C61.8363 27.416 62.0496 27.192 62.2949 27C62.5403 26.808 62.8123 26.6587 63.1109 26.552C63.4203 26.4453 63.7403 26.392 64.0709 26.392C64.3483 26.392 64.5883 26.4667 64.7909 26.616C64.9936 26.7653 65.0949 26.952 65.0949 27.176C65.0949 27.464 65.0203 27.6773 64.8709 27.816C64.7216 27.944 64.5563 28.008 64.3749 28.008C64.2149 28.008 64.0603 27.976 63.9109 27.912C63.7616 27.8373 63.5856 27.8 63.3829 27.8C63.1589 27.8 62.9296 27.8587 62.6949 27.976C62.4603 28.0933 62.2469 28.2693 62.0549 28.504C61.8629 28.728 61.7083 28.9947 61.5909 29.304C61.4843 29.6133 61.4309 29.96 61.4309 30.344V34.184C61.4309 34.4187 61.3509 34.616 61.1909 34.776C61.0416 34.9253 60.8549 35 60.6309 35ZM68.0224 34.184C68.0224 34.4187 67.9478 34.616 67.7984 34.776C67.6491 34.9253 67.4571 35 67.2224 35C66.9984 35 66.8064 34.9253 66.6464 34.776C66.4971 34.616 66.4224 34.4187 66.4224 34.184V27.336C66.4224 27.1013 66.4971 26.9093 66.6464 26.76C66.8064 26.6 66.9984 26.52 67.2224 26.52C67.4571 26.52 67.6491 26.6 67.7984 26.76C67.9478 26.9093 68.0224 27.1013 68.0224 27.336V34.184ZM67.2064 25.464C66.8971 25.464 66.6731 25.4107 66.5344 25.304C66.3958 25.1867 66.3264 24.9947 66.3264 24.728V24.472C66.3264 24.2053 66.4011 24.0187 66.5504 23.912C66.6998 23.8053 66.9238 23.752 67.2224 23.752C67.5424 23.752 67.7718 23.8107 67.9104 23.928C68.0491 24.0347 68.1184 24.216 68.1184 24.472V24.728C68.1184 25.0053 68.0438 25.1973 67.8944 25.304C67.7558 25.4107 67.5264 25.464 67.2064 25.464ZM69.6787 33.688C69.5827 33.5387 69.54 33.368 69.5507 33.176C69.5614 32.9733 69.6734 32.8027 69.8867 32.664C70.036 32.568 70.1907 32.5307 70.3507 32.552C70.5214 32.5627 70.6814 32.6427 70.8307 32.792C71.1294 33.1227 71.46 33.384 71.8227 33.576C72.196 33.768 72.644 33.864 73.1667 33.864C73.38 33.8533 73.5987 33.8213 73.8227 33.768C74.0467 33.704 74.2387 33.5973 74.3987 33.448C74.5587 33.288 74.6387 33.0587 74.6387 32.76C74.6387 32.4933 74.5534 32.28 74.3827 32.12C74.212 31.96 73.988 31.832 73.7107 31.736C73.4334 31.6293 73.1347 31.5333 72.8147 31.448C72.4734 31.352 72.1267 31.2453 71.7747 31.128C71.4334 31.0107 71.124 30.8613 70.8467 30.68C70.5694 30.488 70.34 30.2427 70.1587 29.944C69.988 29.6453 69.9027 29.2773 69.9027 28.84C69.9027 28.3387 70.0414 27.9067 70.3187 27.544C70.6067 27.1813 70.9747 26.8987 71.4227 26.696C71.8814 26.4933 72.3774 26.392 72.9107 26.392C73.22 26.392 73.5454 26.4347 73.8867 26.52C74.228 26.5947 74.5587 26.7173 74.8787 26.888C75.1987 27.0587 75.476 27.2827 75.7107 27.56C75.8174 27.6987 75.876 27.864 75.8867 28.056C75.908 28.248 75.8227 28.4187 75.6307 28.568C75.5027 28.6747 75.348 28.7227 75.1667 28.712C74.9854 28.7013 74.836 28.6427 74.7187 28.536C74.516 28.28 74.2547 28.0827 73.9347 27.944C73.6147 27.7947 73.252 27.72 72.8467 27.72C72.644 27.72 72.4307 27.752 72.2067 27.816C71.9934 27.8693 71.812 27.9707 71.6627 28.12C71.5134 28.2693 71.4387 28.488 71.4387 28.776C71.4387 29.0427 71.524 29.256 71.6947 29.416C71.876 29.576 72.1107 29.7093 72.3987 29.816C72.6867 29.9227 73.0014 30.0187 73.3427 30.104C73.6734 30.1893 73.9987 30.2907 74.3187 30.408C74.6494 30.5253 74.9427 30.68 75.1987 30.872C75.4654 31.0533 75.6787 31.2933 75.8387 31.592C76.0094 31.88 76.0947 32.248 76.0947 32.696C76.0947 33.2187 75.94 33.6667 75.6307 34.04C75.332 34.4027 74.948 34.68 74.4787 34.872C74.02 35.064 73.5347 35.16 73.0227 35.16C72.4147 35.16 71.8067 35.0533 71.1987 34.84C70.6014 34.616 70.0947 34.232 69.6787 33.688ZM84.8363 26.456C85.071 26.456 85.263 26.536 85.4123 26.696C85.5616 26.8453 85.6363 27.0373 85.6363 27.272V34.184C85.6363 34.4187 85.5616 34.616 85.4123 34.776C85.263 34.9253 85.071 35 84.8363 35C84.6123 35 84.4203 34.9253 84.2603 34.776C84.111 34.616 84.0363 34.4187 84.0363 34.184V33.032L84.3723 33.08C84.3723 33.272 84.2923 33.4853 84.1323 33.72C83.983 33.9547 83.775 34.184 83.5083 34.408C83.2416 34.6213 82.927 34.8027 82.5643 34.952C82.2016 35.0907 81.8123 35.16 81.3963 35.16C80.6603 35.16 79.999 34.9733 79.4123 34.6C78.8256 34.216 78.3616 33.6933 78.0203 33.032C77.679 32.3707 77.5083 31.6187 77.5083 30.776C77.5083 29.912 77.679 29.1547 78.0203 28.504C78.3616 27.8427 78.8203 27.3253 79.3963 26.952C79.983 26.5787 80.6336 26.392 81.3483 26.392C81.807 26.392 82.2283 26.4667 82.6123 26.616C83.007 26.7653 83.3483 26.9573 83.6363 27.192C83.9243 27.4267 84.143 27.6773 84.2923 27.944C84.4523 28.2 84.5323 28.4453 84.5323 28.68L84.0363 28.728V27.272C84.0363 27.048 84.111 26.856 84.2603 26.696C84.4203 26.536 84.6123 26.456 84.8363 26.456ZM81.5723 33.688C82.0736 33.688 82.5163 33.56 82.9003 33.304C83.2843 33.048 83.583 32.7013 83.7963 32.264C84.0096 31.816 84.1163 31.32 84.1163 30.776C84.1163 30.2213 84.0096 29.7253 83.7963 29.288C83.583 28.8507 83.2843 28.504 82.9003 28.248C82.5163 27.992 82.0736 27.864 81.5723 27.864C81.0816 27.864 80.6443 27.992 80.2603 28.248C79.887 28.504 79.5883 28.8507 79.3643 29.288C79.151 29.7253 79.0443 30.2213 79.0443 30.776C79.0443 31.32 79.151 31.816 79.3643 32.264C79.5883 32.7013 79.887 33.048 80.2603 33.304C80.6443 33.56 81.0816 33.688 81.5723 33.688ZM88.6778 35C88.4431 35 88.2511 34.9253 88.1018 34.776C87.9525 34.616 87.8778 34.4187 87.8778 34.184V27.4C87.8778 27.1653 87.9525 26.9733 88.1018 26.824C88.2511 26.664 88.4431 26.584 88.6778 26.584C88.9018 26.584 89.0885 26.664 89.2378 26.824C89.3978 26.9733 89.4778 27.1653 89.4778 27.4V29.192L89.3178 28.504C89.4031 28.2053 89.5311 27.928 89.7018 27.672C89.8831 27.416 90.0965 27.192 90.3418 27C90.5871 26.808 90.8591 26.6587 91.1578 26.552C91.4671 26.4453 91.7871 26.392 92.1178 26.392C92.3951 26.392 92.6351 26.4667 92.8378 26.616C93.0405 26.7653 93.1418 26.952 93.1418 27.176C93.1418 27.464 93.0671 27.6773 92.9178 27.816C92.7685 27.944 92.6031 28.008 92.4218 28.008C92.2618 28.008 92.1071 27.976 91.9578 27.912C91.8085 27.8373 91.6325 27.8 91.4298 27.8C91.2058 27.8 90.9765 27.8587 90.7418 27.976C90.5071 28.0933 90.2938 28.2693 90.1018 28.504C89.9098 28.728 89.7551 28.9947 89.6378 29.304C89.5311 29.6133 89.4778 29.96 89.4778 30.344V34.184C89.4778 34.4187 89.3978 34.616 89.2378 34.776C89.0885 34.9253 88.9018 35 88.6778 35ZM98.8053 26.44C99.5413 26.44 100.112 26.6 100.517 26.92C100.923 27.2293 101.205 27.6507 101.365 28.184C101.536 28.7173 101.621 29.304 101.621 29.944V34.184C101.621 34.4187 101.541 34.616 101.381 34.776C101.232 34.9253 101.045 35 100.821 35C100.587 35 100.395 34.9253 100.245 34.776C100.096 34.616 100.021 34.4187 100.021 34.184V29.944C100.021 29.5707 99.968 29.2293 99.8613 28.92C99.7653 28.6107 99.5893 28.3653 99.3333 28.184C99.088 28.0027 98.7413 27.912 98.2933 27.912C97.8773 27.912 97.504 28.0027 97.1733 28.184C96.8533 28.3653 96.6026 28.6107 96.4213 28.92C96.2506 29.2293 96.1653 29.5707 96.1653 29.944V34.184C96.1653 34.4187 96.0853 34.616 95.9253 34.776C95.776 34.9253 95.5893 35 95.3653 35C95.1306 35 94.9386 34.9253 94.7893 34.776C94.64 34.616 94.5653 34.4187 94.5653 34.184V23.976C94.5653 23.7413 94.64 23.5493 94.7893 23.4C94.9386 23.24 95.1306 23.16 95.3653 23.16C95.5893 23.16 95.776 23.24 95.9253 23.4C96.0853 23.5493 96.1653 23.7413 96.1653 23.976V28.344L95.8773 28.504C95.952 28.2693 96.0746 28.0293 96.2453 27.784C96.4266 27.5387 96.6453 27.3147 96.9013 27.112C97.168 26.9093 97.4613 26.7493 97.7813 26.632C98.1013 26.504 98.4426 26.44 98.8053 26.44ZM108.087 26.44C108.833 26.44 109.495 26.6267 110.071 27C110.657 27.3733 111.121 27.8853 111.463 28.536C111.804 29.176 111.975 29.9227 111.975 30.776C111.975 31.6293 111.804 32.3867 111.463 33.048C111.121 33.6987 110.663 34.2107 110.087 34.584C109.511 34.9573 108.86 35.144 108.135 35.144C107.729 35.144 107.345 35.08 106.983 34.952C106.62 34.824 106.3 34.6587 106.023 34.456C105.745 34.2427 105.516 34.0187 105.335 33.784C105.164 33.5493 105.057 33.3307 105.015 33.128L105.447 32.92V37.384C105.447 37.6187 105.367 37.8107 105.207 37.96C105.057 38.12 104.871 38.2 104.647 38.2C104.412 38.2 104.22 38.12 104.071 37.96C103.921 37.8107 103.847 37.6187 103.847 37.384V27.368C103.847 27.144 103.921 26.952 104.071 26.792C104.22 26.632 104.412 26.552 104.647 26.552C104.871 26.552 105.057 26.632 105.207 26.792C105.367 26.952 105.447 27.144 105.447 27.368V28.472L105.191 28.328C105.223 28.1253 105.324 27.9173 105.495 27.704C105.665 27.48 105.879 27.272 106.135 27.08C106.401 26.888 106.7 26.7333 107.031 26.616C107.372 26.4987 107.724 26.44 108.087 26.44ZM107.911 27.912C107.399 27.912 106.951 28.04 106.567 28.296C106.193 28.5413 105.9 28.8773 105.687 29.304C105.473 29.7307 105.367 30.2213 105.367 30.776C105.367 31.32 105.473 31.816 105.687 32.264C105.9 32.7013 106.193 33.048 106.567 33.304C106.951 33.5493 107.399 33.672 107.911 33.672C108.412 33.672 108.849 33.5493 109.223 33.304C109.596 33.048 109.889 32.7013 110.103 32.264C110.327 31.816 110.439 31.32 110.439 30.776C110.439 30.232 110.327 29.7467 110.103 29.32C109.889 28.8827 109.596 28.5413 109.223 28.296C108.849 28.04 108.412 27.912 107.911 27.912ZM123.352 34.12C123.011 34.12 122.696 34.0453 122.408 33.896C122.12 33.736 121.901 33.5173 121.752 33.24C121.603 32.9627 121.555 32.648 121.608 32.296L121.752 31.448L121.976 31.8C121.795 32.376 121.544 32.8347 121.224 33.176C120.915 33.5173 120.568 33.7627 120.184 33.912C119.811 34.0507 119.432 34.12 119.048 34.12C118.632 34.12 118.243 34.008 117.88 33.784C117.517 33.56 117.224 33.2507 117 32.856C116.787 32.4613 116.68 32.0027 116.68 31.48C116.68 30.9787 116.776 30.4613 116.968 29.928C117.171 29.384 117.443 28.8773 117.784 28.408C118.136 27.9387 118.541 27.56 119 27.272C119.469 26.984 119.976 26.84 120.52 26.84C121.032 26.84 121.469 27.016 121.832 27.368C122.205 27.7093 122.419 28.168 122.472 28.744L122.088 29.704L122.424 27.48C122.445 27.3413 122.515 27.2133 122.632 27.096C122.749 26.9787 122.931 26.92 123.176 26.92C123.485 26.92 123.688 26.9893 123.784 27.128C123.891 27.2667 123.923 27.4693 123.88 27.736L123.208 32.024C123.155 32.3867 123.197 32.648 123.336 32.808C123.485 32.968 123.661 33.048 123.864 33.048C124.205 33.048 124.525 32.92 124.824 32.664C125.123 32.408 125.384 32.072 125.608 31.656C125.843 31.2293 126.024 30.76 126.152 30.248C126.28 29.7253 126.344 29.1973 126.344 28.664C126.344 27.8853 126.163 27.2027 125.8 26.616C125.437 26.0187 124.92 25.5547 124.248 25.224C123.576 24.8933 122.787 24.728 121.88 24.728C120.835 24.728 119.859 24.8827 118.952 25.192C118.056 25.5013 117.267 25.96 116.584 26.568C115.912 27.1653 115.384 27.896 115 28.76C114.616 29.624 114.424 30.6053 114.424 31.704C114.424 32.3013 114.515 32.8827 114.696 33.448C114.877 34.0133 115.16 34.5307 115.544 35C115.939 35.4587 116.445 35.8213 117.064 36.088C117.683 36.3653 118.424 36.504 119.288 36.504C119.875 36.504 120.376 36.4613 120.792 36.376C121.208 36.2907 121.581 36.1733 121.912 36.024C122.243 35.8853 122.568 35.7307 122.888 35.56C123.037 35.4747 123.171 35.4587 123.288 35.512C123.416 35.5653 123.512 35.6667 123.576 35.816C123.683 36.104 123.528 36.3547 123.112 36.568C122.653 36.8027 122.125 37.032 121.528 37.256C120.931 37.48 120.184 37.592 119.288 37.592C118.211 37.592 117.293 37.4213 116.536 37.08C115.779 36.7493 115.16 36.3013 114.68 35.736C114.211 35.1707 113.864 34.5413 113.64 33.848C113.416 33.144 113.304 32.4293 113.304 31.704C113.304 30.456 113.523 29.336 113.96 28.344C114.408 27.352 115.021 26.504 115.8 25.8C116.589 25.096 117.501 24.5627 118.536 24.2C119.571 23.8267 120.685 23.64 121.88 23.64C123.096 23.64 124.12 23.8693 124.952 24.328C125.784 24.776 126.408 25.384 126.824 26.152C127.251 26.9093 127.464 27.7467 127.464 28.664C127.464 29.3147 127.368 29.9653 127.176 30.616C126.984 31.256 126.707 31.8427 126.344 32.376C125.992 32.8987 125.56 33.32 125.048 33.64C124.547 33.96 123.981 34.12 123.352 34.12ZM119.432 32.888C119.741 32.888 120.035 32.8133 120.312 32.664C120.589 32.504 120.835 32.3013 121.048 32.056C121.272 31.8107 121.453 31.5493 121.592 31.272C121.741 30.984 121.832 30.7173 121.864 30.472C122.024 29.8853 122.061 29.416 121.976 29.064C121.891 28.712 121.72 28.4613 121.464 28.312C121.219 28.152 120.925 28.072 120.584 28.072C120.211 28.072 119.875 28.1787 119.576 28.392C119.288 28.6053 119.037 28.888 118.824 29.24C118.621 29.5813 118.467 29.9493 118.36 30.344C118.253 30.728 118.2 31.096 118.2 31.448C118.2 31.9173 118.312 32.2747 118.536 32.52C118.771 32.7653 119.069 32.888 119.432 32.888ZM137.317 30.792C137.317 31.6453 137.13 32.4027 136.757 33.064C136.383 33.7147 135.877 34.2267 135.237 34.6C134.597 34.9733 133.877 35.16 133.077 35.16C132.277 35.16 131.557 34.9733 130.917 34.6C130.277 34.2267 129.765 33.7147 129.381 33.064C129.007 32.4027 128.821 31.6453 128.821 30.792C128.821 29.928 129.007 29.1707 129.381 28.52C129.765 27.8587 130.277 27.3413 130.917 26.968C131.557 26.584 132.277 26.392 133.077 26.392C133.877 26.392 134.597 26.584 135.237 26.968C135.877 27.3413 136.383 27.8587 136.757 28.52C137.13 29.1707 137.317 29.928 137.317 30.792ZM135.717 30.792C135.717 30.2053 135.599 29.6987 135.365 29.272C135.13 28.8347 134.81 28.4933 134.405 28.248C134.01 27.992 133.567 27.864 133.077 27.864C132.586 27.864 132.138 27.992 131.733 28.248C131.327 28.4933 131.007 28.8347 130.773 29.272C130.538 29.6987 130.421 30.2053 130.421 30.792C130.421 31.3573 130.538 31.8587 130.773 32.296C131.007 32.7333 131.327 33.0747 131.733 33.32C132.138 33.5653 132.586 33.688 133.077 33.688C133.567 33.688 134.01 33.5653 134.405 33.32C134.81 33.0747 135.13 32.7333 135.365 32.296C135.599 31.8587 135.717 31.3573 135.717 30.792ZM145.4 26.584C145.624 26.584 145.81 26.664 145.96 26.824C146.12 26.9733 146.2 27.1653 146.2 27.4V31.608C146.2 32.7173 145.89 33.5867 145.272 34.216C144.653 34.8347 143.778 35.144 142.648 35.144C141.528 35.144 140.658 34.8347 140.04 34.216C139.432 33.5867 139.128 32.7173 139.128 31.608V27.4C139.128 27.1653 139.202 26.9733 139.352 26.824C139.501 26.664 139.693 26.584 139.928 26.584C140.152 26.584 140.338 26.664 140.488 26.824C140.648 26.9733 140.728 27.1653 140.728 27.4V31.608C140.728 32.3013 140.888 32.8187 141.208 33.16C141.538 33.5013 142.018 33.672 142.648 33.672C143.288 33.672 143.773 33.5013 144.104 33.16C144.434 32.8187 144.6 32.3013 144.6 31.608V27.4C144.6 27.1653 144.674 26.9733 144.824 26.824C144.973 26.664 145.165 26.584 145.4 26.584ZM148.313 26.68H152.073C152.286 26.68 152.462 26.7547 152.601 26.904C152.75 27.0427 152.825 27.2187 152.825 27.432C152.825 27.6347 152.75 27.8053 152.601 27.944C152.462 28.0827 152.286 28.152 152.073 28.152H148.313C148.099 28.152 147.918 28.0827 147.769 27.944C147.63 27.7947 147.561 27.6187 147.561 27.416C147.561 27.2027 147.63 27.0267 147.769 26.888C147.918 26.7493 148.099 26.68 148.313 26.68ZM149.993 24.6C150.227 24.6 150.419 24.68 150.569 24.84C150.718 24.9893 150.793 25.1813 150.793 25.416V32.84C150.793 33.032 150.825 33.1867 150.889 33.304C150.953 33.4213 151.038 33.5013 151.145 33.544C151.262 33.5867 151.379 33.608 151.497 33.608C151.614 33.608 151.715 33.5867 151.801 33.544C151.897 33.5013 152.009 33.48 152.137 33.48C152.265 33.48 152.382 33.5387 152.489 33.656C152.595 33.7733 152.649 33.9333 152.649 34.136C152.649 34.392 152.51 34.6 152.233 34.76C151.955 34.92 151.657 35 151.337 35C151.155 35 150.942 34.984 150.697 34.952C150.451 34.92 150.211 34.84 149.977 34.712C149.753 34.584 149.566 34.3813 149.417 34.104C149.267 33.816 149.193 33.416 149.193 32.904V25.416C149.193 25.1813 149.267 24.9893 149.417 24.84C149.577 24.68 149.769 24.6 149.993 24.6ZM156.325 34.184C156.325 34.4187 156.245 34.616 156.085 34.776C155.935 34.9253 155.749 35 155.525 35C155.301 35 155.109 34.9253 154.949 34.776C154.799 34.616 154.725 34.4187 154.725 34.184V23.976C154.725 23.7413 154.805 23.5493 154.965 23.4C155.125 23.24 155.317 23.16 155.541 23.16C155.775 23.16 155.962 23.24 156.101 23.4C156.25 23.5493 156.325 23.7413 156.325 23.976V34.184ZM166.614 30.792C166.614 31.6453 166.427 32.4027 166.054 33.064C165.68 33.7147 165.174 34.2267 164.534 34.6C163.894 34.9733 163.174 35.16 162.374 35.16C161.574 35.16 160.854 34.9733 160.214 34.6C159.574 34.2267 159.062 33.7147 158.678 33.064C158.304 32.4027 158.118 31.6453 158.118 30.792C158.118 29.928 158.304 29.1707 158.678 28.52C159.062 27.8587 159.574 27.3413 160.214 26.968C160.854 26.584 161.574 26.392 162.374 26.392C163.174 26.392 163.894 26.584 164.534 26.968C165.174 27.3413 165.68 27.8587 166.054 28.52C166.427 29.1707 166.614 29.928 166.614 30.792ZM165.014 30.792C165.014 30.2053 164.896 29.6987 164.662 29.272C164.427 28.8347 164.107 28.4933 163.702 28.248C163.307 27.992 162.864 27.864 162.374 27.864C161.883 27.864 161.435 27.992 161.03 28.248C160.624 28.4933 160.304 28.8347 160.07 29.272C159.835 29.6987 159.718 30.2053 159.718 30.792C159.718 31.3573 159.835 31.8587 160.07 32.296C160.304 32.7333 160.624 33.0747 161.03 33.32C161.435 33.5653 161.883 33.688 162.374 33.688C162.864 33.688 163.307 33.5653 163.702 33.32C164.107 33.0747 164.427 32.7333 164.662 32.296C164.896 31.8587 165.014 31.3573 165.014 30.792ZM176.489 30.792C176.489 31.6453 176.302 32.4027 175.929 33.064C175.555 33.7147 175.049 34.2267 174.409 34.6C173.769 34.9733 173.049 35.16 172.249 35.16C171.449 35.16 170.729 34.9733 170.089 34.6C169.449 34.2267 168.937 33.7147 168.553 33.064C168.179 32.4027 167.993 31.6453 167.993 30.792C167.993 29.928 168.179 29.1707 168.553 28.52C168.937 27.8587 169.449 27.3413 170.089 26.968C170.729 26.584 171.449 26.392 172.249 26.392C173.049 26.392 173.769 26.584 174.409 26.968C175.049 27.3413 175.555 27.8587 175.929 28.52C176.302 29.1707 176.489 29.928 176.489 30.792ZM174.889 30.792C174.889 30.2053 174.771 29.6987 174.537 29.272C174.302 28.8347 173.982 28.4933 173.577 28.248C173.182 27.992 172.739 27.864 172.249 27.864C171.758 27.864 171.31 27.992 170.905 28.248C170.499 28.4933 170.179 28.8347 169.945 29.272C169.71 29.6987 169.593 30.2053 169.593 30.792C169.593 31.3573 169.71 31.8587 169.945 32.296C170.179 32.7333 170.499 33.0747 170.905 33.32C171.31 33.5653 171.758 33.688 172.249 33.688C172.739 33.688 173.182 33.5653 173.577 33.32C173.982 33.0747 174.302 32.7333 174.537 32.296C174.771 31.8587 174.889 31.3573 174.889 30.792ZM179.228 35C179.004 35 178.812 34.9253 178.652 34.776C178.502 34.616 178.428 34.4187 178.428 34.184V23.976C178.428 23.7413 178.502 23.5493 178.652 23.4C178.812 23.24 179.004 23.16 179.228 23.16C179.462 23.16 179.654 23.24 179.804 23.4C179.953 23.5493 180.028 23.7413 180.028 23.976V34.184C180.028 34.4187 179.953 34.616 179.804 34.776C179.654 34.9253 179.462 35 179.228 35ZM184.444 26.552C184.646 26.552 184.822 26.6373 184.972 26.808C185.121 26.9787 185.196 27.1493 185.196 27.32C185.196 27.5333 185.094 27.7307 184.892 27.912L179.884 32.392L179.82 30.552L183.852 26.808C184.022 26.6373 184.22 26.552 184.444 26.552ZM184.636 34.984C184.412 34.984 184.22 34.8933 184.06 34.712L180.86 31.336L182.076 30.216L185.196 33.592C185.366 33.7733 185.452 33.976 185.452 34.2C185.452 34.4347 185.356 34.6267 185.164 34.776C184.982 34.9147 184.806 34.984 184.636 34.984ZM187.83 34.984C187.563 34.984 187.355 34.9093 187.206 34.76C187.067 34.6107 186.998 34.4027 186.998 34.136V33.848C186.998 33.5813 187.067 33.3733 187.206 33.224C187.355 33.0747 187.563 33 187.83 33H188.006C188.272 33 188.475 33.0747 188.614 33.224C188.752 33.3733 188.822 33.5813 188.822 33.848V34.136C188.822 34.4027 188.752 34.6107 188.614 34.76C188.475 34.9093 188.272 34.984 188.006 34.984H187.83ZM194.559 26.392C195.135 26.392 195.647 26.456 196.095 26.584C196.543 26.7013 196.89 26.872 197.135 27.096C197.391 27.3093 197.519 27.56 197.519 27.848C197.519 28.0293 197.466 28.2 197.359 28.36C197.252 28.5093 197.092 28.584 196.879 28.584C196.73 28.584 196.602 28.5573 196.495 28.504C196.399 28.4507 196.308 28.3867 196.223 28.312C196.138 28.2373 196.031 28.1627 195.903 28.088C195.786 28.024 195.61 27.9707 195.375 27.928C195.151 27.8853 194.948 27.864 194.767 27.864C194.202 27.864 193.711 27.992 193.295 28.248C192.89 28.504 192.57 28.8507 192.335 29.288C192.111 29.7253 191.999 30.2213 191.999 30.776C191.999 31.3307 192.111 31.8267 192.335 32.264C192.57 32.7013 192.884 33.048 193.279 33.304C193.684 33.56 194.154 33.688 194.687 33.688C195.007 33.688 195.268 33.6667 195.471 33.624C195.674 33.5707 195.85 33.5067 195.999 33.432C196.159 33.336 196.292 33.24 196.399 33.144C196.516 33.0373 196.676 32.984 196.879 32.984C197.114 32.984 197.29 33.0587 197.407 33.208C197.535 33.3467 197.599 33.5227 197.599 33.736C197.599 33.9707 197.455 34.2 197.167 34.424C196.89 34.6373 196.516 34.8133 196.047 34.952C195.578 35.0907 195.06 35.16 194.495 35.16C193.663 35.16 192.938 34.968 192.319 34.584C191.711 34.2 191.236 33.6773 190.895 33.016C190.564 32.3547 190.399 31.608 190.399 30.776C190.399 29.9333 190.575 29.1867 190.927 28.536C191.279 27.8747 191.77 27.352 192.399 26.968C193.028 26.584 193.748 26.392 194.559 26.392ZM207.192 30.792C207.192 31.6453 207.005 32.4027 206.632 33.064C206.258 33.7147 205.752 34.2267 205.112 34.6C204.472 34.9733 203.752 35.16 202.952 35.16C202.152 35.16 201.432 34.9733 200.792 34.6C200.152 34.2267 199.64 33.7147 199.256 33.064C198.882 32.4027 198.696 31.6453 198.696 30.792C198.696 29.928 198.882 29.1707 199.256 28.52C199.64 27.8587 200.152 27.3413 200.792 26.968C201.432 26.584 202.152 26.392 202.952 26.392C203.752 26.392 204.472 26.584 205.112 26.968C205.752 27.3413 206.258 27.8587 206.632 28.52C207.005 29.1707 207.192 29.928 207.192 30.792ZM205.592 30.792C205.592 30.2053 205.474 29.6987 205.24 29.272C205.005 28.8347 204.685 28.4933 204.28 28.248C203.885 27.992 203.442 27.864 202.952 27.864C202.461 27.864 202.013 27.992 201.608 28.248C201.202 28.4933 200.882 28.8347 200.648 29.272C200.413 29.6987 200.296 30.2053 200.296 30.792C200.296 31.3573 200.413 31.8587 200.648 32.296C200.882 32.7333 201.202 33.0747 201.608 33.32C202.013 33.5653 202.461 33.688 202.952 33.688C203.442 33.688 203.885 33.5653 204.28 33.32C204.685 33.0747 205.005 32.7333 205.24 32.296C205.474 31.8587 205.592 31.3573 205.592 30.792ZM213.227 26.44C214.016 26.44 214.624 26.6373 215.051 27.032C215.477 27.416 215.76 27.9387 215.899 28.6L215.643 28.52L215.755 28.264C215.893 27.9867 216.101 27.7093 216.379 27.432C216.667 27.144 217.008 26.9093 217.403 26.728C217.797 26.536 218.219 26.44 218.667 26.44C219.403 26.44 219.973 26.6 220.379 26.92C220.784 27.2293 221.067 27.6507 221.227 28.184C221.387 28.7067 221.467 29.2933 221.467 29.944V34.184C221.467 34.4187 221.392 34.616 221.243 34.776C221.093 34.9253 220.901 35 220.667 35C220.443 35 220.251 34.9253 220.091 34.776C219.941 34.616 219.867 34.4187 219.867 34.184V29.96C219.867 29.5867 219.813 29.2453 219.707 28.936C219.611 28.6267 219.435 28.3813 219.179 28.2C218.933 28.008 218.592 27.912 218.155 27.912C217.739 27.912 217.365 28.008 217.035 28.2C216.715 28.3813 216.464 28.6267 216.283 28.936C216.101 29.2453 216.011 29.5867 216.011 29.96V34.184C216.011 34.4187 215.936 34.616 215.787 34.776C215.637 34.9253 215.445 35 215.211 35C214.976 35 214.784 34.9253 214.635 34.776C214.485 34.616 214.411 34.4187 214.411 34.184V29.944C214.411 29.5707 214.357 29.2293 214.251 28.92C214.155 28.6107 213.984 28.3653 213.739 28.184C213.493 28.0027 213.152 27.912 212.715 27.912C212.299 27.912 211.931 28.0027 211.611 28.184C211.291 28.3653 211.04 28.6107 210.859 28.92C210.688 29.2293 210.603 29.5707 210.603 29.944V34.184C210.603 34.4187 210.523 34.616 210.363 34.776C210.213 34.9253 210.027 35 209.803 35C209.568 35 209.376 34.9253 209.227 34.776C209.077 34.616 209.003 34.4187 209.003 34.184V27.4C209.003 27.1653 209.077 26.9733 209.227 26.824C209.376 26.664 209.568 26.584 209.803 26.584C210.027 26.584 210.213 26.664 210.363 26.824C210.523 26.9733 210.603 27.1653 210.603 27.4V28.344L210.299 28.52C210.373 28.2853 210.496 28.0453 210.667 27.8C210.837 27.5547 211.051 27.3307 211.307 27.128C211.573 26.9253 211.867 26.76 212.187 26.632C212.507 26.504 212.853 26.44 213.227 26.44Z" fill="white"/>
<g clip-path="url(#clip0_251434_188)">
<path fill-rule="evenodd" clip-rule="evenodd" d="M26.1523 36.8881C26.1523 34.0557 26.1523 31.2596 26.1523 28.3969C26.7564 28.8111 27.3202 29.1977 27.884 29.5843C28.3901 29.9312 28.4752 29.9294 28.9975 29.5823C31.8875 27.6614 34.7781 25.7412 37.6687 23.8212C37.7563 23.763 37.8468 23.7091 37.9742 23.6293C37.9843 23.7608 37.9985 23.8593 37.9985 23.9578C37.9996 27.6521 38.0012 31.3465 37.9982 35.0408C37.9972 36.2689 37.3769 36.887 36.1554 36.8876C32.9428 36.8891 29.7302 36.8882 26.5177 36.8882C26.402 36.8881 26.2863 36.8881 26.1523 36.8881Z" fill="white"/>
<path fill-rule="evenodd" clip-rule="evenodd" d="M26.1756 19.7766C26.293 19.7766 26.3982 19.7766 26.5034 19.7766C29.8958 19.7766 33.2883 19.7763 36.6808 19.7769C37.2874 19.777 37.7567 20.1478 37.9474 20.7309C38.0311 20.987 37.9459 21.1123 37.739 21.2509C35.111 23.0105 32.4885 24.7783 29.8646 26.544C29.4898 26.7963 29.11 27.0415 28.7418 27.3031C28.5403 27.4462 28.362 27.454 28.153 27.3194C27.5534 26.9333 26.9424 26.5644 26.3471 26.1719C26.2478 26.1064 26.1445 25.957 26.1439 25.8458C26.1333 23.8613 26.1384 21.8767 26.1409 19.8922C26.1411 19.87 26.1538 19.8477 26.1756 19.7766Z" fill="white"/>
<path fill-rule="evenodd" clip-rule="evenodd" d="M24.6474 45C18.426 43.6979 12.229 42.4007 6.00853 41.0987C6.00853 40.9471 6.00853 40.8183 6.00853 40.6896C6.0085 32.7985 6.01091 24.9075 6 17.0165C5.9995 16.6896 6.08728 16.5762 6.40744 16.5149C11.3809 15.5648 16.3518 14.6012 21.3234 13.6408C22.4197 13.4291 23.5162 13.2181 24.6474 13C24.6474 23.6694 24.6474 34.3177 24.6474 45ZM19.6887 28.9695C19.6761 27.6691 19.4982 26.4684 18.8557 25.3804C18.3369 24.5021 17.6362 23.8354 16.6282 23.5483C14.6671 22.9898 12.7895 23.9084 11.8654 25.8932C11.2733 27.165 11.1468 28.5143 11.2611 29.8957C11.3602 31.0926 11.7068 32.1984 12.4786 33.1444C14.0127 35.0247 16.8047 35.0372 18.3593 33.1687C19.3887 31.9315 19.6683 30.4589 19.6887 28.9695Z" fill="white"/>
<path fill-rule="evenodd" clip-rule="evenodd" d="M13.2788 28.998C13.2762 28.0713 13.401 27.1742 13.9257 26.3794C14.4099 25.6459 15.1449 25.3462 15.955 25.5488C16.5846 25.7062 16.9649 26.1508 17.2183 26.712C17.6511 27.6701 17.7261 28.6893 17.5951 29.71C17.5224 30.2759 17.3623 30.8495 17.1323 31.3717C16.8353 32.0466 16.2641 32.4328 15.5013 32.4496C14.7334 32.4666 14.1994 32.0683 13.8253 31.4314C13.3837 30.6798 13.2768 29.8506 13.2788 28.998Z" fill="white"/>
</g>
<defs>
<clipPath id="clip0_251434_188">
<rect width="32" height="32" fill="white" transform="translate(6 13)"/>
</clipPath>
</defs>
</svg>
