<svg width="47" height="46" viewBox="0 0 47 46" fill="none" xmlns="http://www.w3.org/2000/svg">
<path d="M3.79225 36.3057C4.22425 36.3057 4.60825 36.3537 4.94425 36.4497C5.28025 36.5377 5.54025 36.6657 5.72425 36.8337C5.91625 36.9937 6.01225 37.1817 6.01225 37.3977C6.01225 37.5337 5.97225 37.6617 5.89225 37.7817C5.81225 37.8937 5.69225 37.9497 5.53225 37.9497C5.42025 37.9497 5.32425 37.9297 5.24425 37.8897C5.17225 37.8497 5.10425 37.8017 5.04025 37.7457C4.97625 37.6897 4.89625 37.6337 4.80025 37.5777C4.71225 37.5297 4.58025 37.4897 4.40425 37.4577C4.23625 37.4257 4.08425 37.4097 3.94825 37.4097C3.52425 37.4097 3.15625 37.5057 2.84425 37.6977C2.54025 37.8897 2.30025 38.1497 2.12425 38.4777C1.95625 38.8057 1.87225 39.1777 1.87225 39.5937C1.87225 40.0097 1.95625 40.3817 2.12425 40.7097C2.30025 41.0377 2.53625 41.2977 2.83225 41.4897C3.13625 41.6817 3.48825 41.7777 3.88825 41.7777C4.12825 41.7777 4.32425 41.7617 4.47625 41.7297C4.62825 41.6897 4.76025 41.6417 4.87225 41.5857C4.99225 41.5137 5.09225 41.4417 5.17225 41.3697C5.26025 41.2897 5.38025 41.2497 5.53225 41.2497C5.70825 41.2497 5.84025 41.3057 5.92825 41.4177C6.02425 41.5217 6.07225 41.6537 6.07225 41.8137C6.07225 41.9897 5.96425 42.1617 5.74825 42.3297C5.54025 42.4897 5.26025 42.6217 4.90825 42.7257C4.55625 42.8297 4.16825 42.8817 3.74425 42.8817C3.12025 42.8817 2.57625 42.7377 2.11225 42.4497C1.65625 42.1617 1.30025 41.7697 1.04425 41.2737C0.79625 40.7777 0.67225 40.2177 0.67225 39.5937C0.67225 38.9617 0.80425 38.4017 1.06825 37.9137C1.33225 37.4177 1.70025 37.0257 2.17225 36.7377C2.64425 36.4497 3.18425 36.3057 3.79225 36.3057ZM7.81891 42.7617C7.64291 42.7617 7.49891 42.7057 7.38691 42.5937C7.27491 42.4737 7.21891 42.3257 7.21891 42.1497V37.0617C7.21891 36.8857 7.27491 36.7417 7.38691 36.6297C7.49891 36.5097 7.64291 36.4497 7.81891 36.4497C7.98691 36.4497 8.12691 36.5097 8.23891 36.6297C8.35891 36.7417 8.41891 36.8857 8.41891 37.0617V38.4057L8.29891 37.8897C8.36291 37.6657 8.45891 37.4577 8.58691 37.2657C8.72291 37.0737 8.88291 36.9057 9.06691 36.7617C9.25091 36.6177 9.45491 36.5057 9.67891 36.4257C9.91091 36.3457 10.1509 36.3057 10.3989 36.3057C10.6069 36.3057 10.7869 36.3617 10.9389 36.4737C11.0909 36.5857 11.1669 36.7257 11.1669 36.8937C11.1669 37.1097 11.1109 37.2697 10.9989 37.3737C10.8869 37.4697 10.7629 37.5177 10.6269 37.5177C10.5069 37.5177 10.3909 37.4937 10.2789 37.4457C10.1669 37.3897 10.0349 37.3617 9.88291 37.3617C9.71491 37.3617 9.54291 37.4057 9.36691 37.4937C9.19091 37.5817 9.03091 37.7137 8.88691 37.8897C8.74291 38.0577 8.62691 38.2577 8.53891 38.4897C8.45891 38.7217 8.41891 38.9817 8.41891 39.2697V42.1497C8.41891 42.3257 8.35891 42.4737 8.23891 42.5937C8.12691 42.7057 7.98691 42.7617 7.81891 42.7617ZM13.3625 42.1497C13.3625 42.3257 13.3065 42.4737 13.1945 42.5937C13.0825 42.7057 12.9385 42.7617 12.7625 42.7617C12.5945 42.7617 12.4505 42.7057 12.3305 42.5937C12.2185 42.4737 12.1625 42.3257 12.1625 42.1497V37.0137C12.1625 36.8377 12.2185 36.6937 12.3305 36.5817C12.4505 36.4617 12.5945 36.4017 12.7625 36.4017C12.9385 36.4017 13.0825 36.4617 13.1945 36.5817C13.3065 36.6937 13.3625 36.8377 13.3625 37.0137V42.1497ZM12.7505 35.6097C12.5185 35.6097 12.3505 35.5697 12.2465 35.4897C12.1425 35.4017 12.0905 35.2577 12.0905 35.0577V34.8657C12.0905 34.6657 12.1465 34.5257 12.2585 34.4457C12.3705 34.3657 12.5385 34.3257 12.7625 34.3257C13.0025 34.3257 13.1745 34.3697 13.2785 34.4577C13.3825 34.5377 13.4345 34.6737 13.4345 34.8657V35.0577C13.4345 35.2657 13.3785 35.4097 13.2665 35.4897C13.1625 35.5697 12.9905 35.6097 12.7505 35.6097ZM14.6047 41.7777C14.5327 41.6657 14.5007 41.5377 14.5087 41.3937C14.5167 41.2417 14.6007 41.1137 14.7607 41.0097C14.8727 40.9377 14.9887 40.9097 15.1087 40.9257C15.2367 40.9337 15.3567 40.9937 15.4687 41.1057C15.6927 41.3537 15.9407 41.5497 16.2127 41.6937C16.4927 41.8377 16.8287 41.9097 17.2207 41.9097C17.3807 41.9017 17.5447 41.8777 17.7127 41.8377C17.8807 41.7897 18.0247 41.7097 18.1447 41.5977C18.2647 41.4777 18.3247 41.3057 18.3247 41.0817C18.3247 40.8817 18.2607 40.7217 18.1327 40.6017C18.0047 40.4817 17.8367 40.3857 17.6287 40.3137C17.4207 40.2337 17.1967 40.1617 16.9567 40.0977C16.7007 40.0257 16.4407 39.9457 16.1767 39.8577C15.9207 39.7697 15.6887 39.6577 15.4807 39.5217C15.2727 39.3777 15.1007 39.1937 14.9647 38.9697C14.8367 38.7457 14.7727 38.4697 14.7727 38.1417C14.7727 37.7657 14.8767 37.4417 15.0847 37.1697C15.3007 36.8977 15.5767 36.6857 15.9127 36.5337C16.2567 36.3817 16.6287 36.3057 17.0287 36.3057C17.2607 36.3057 17.5047 36.3377 17.7607 36.4017C18.0167 36.4577 18.2647 36.5497 18.5047 36.6777C18.7447 36.8057 18.9527 36.9737 19.1287 37.1817C19.2087 37.2857 19.2527 37.4097 19.2607 37.5537C19.2767 37.6977 19.2127 37.8257 19.0687 37.9377C18.9727 38.0177 18.8567 38.0537 18.7207 38.0457C18.5847 38.0377 18.4727 37.9937 18.3847 37.9137C18.2327 37.7217 18.0367 37.5737 17.7967 37.4697C17.5567 37.3577 17.2847 37.3017 16.9807 37.3017C16.8287 37.3017 16.6687 37.3257 16.5007 37.3737C16.3407 37.4137 16.2047 37.4897 16.0927 37.6017C15.9807 37.7137 15.9247 37.8777 15.9247 38.0937C15.9247 38.2937 15.9887 38.4537 16.1167 38.5737C16.2527 38.6937 16.4287 38.7937 16.6447 38.8737C16.8607 38.9537 17.0967 39.0257 17.3527 39.0897C17.6007 39.1537 17.8447 39.2297 18.0847 39.3177C18.3327 39.4057 18.5527 39.5217 18.7447 39.6657C18.9447 39.8017 19.1047 39.9817 19.2247 40.2057C19.3527 40.4217 19.4167 40.6977 19.4167 41.0337C19.4167 41.4257 19.3007 41.7617 19.0687 42.0417C18.8447 42.3137 18.5567 42.5217 18.2047 42.6657C17.8607 42.8097 17.4967 42.8817 17.1127 42.8817C16.6567 42.8817 16.2007 42.8017 15.7447 42.6417C15.2967 42.4737 14.9167 42.1857 14.6047 41.7777ZM25.9729 36.3537C26.1489 36.3537 26.2929 36.4137 26.4049 36.5337C26.5169 36.6457 26.5729 36.7897 26.5729 36.9657V42.1497C26.5729 42.3257 26.5169 42.4737 26.4049 42.5937C26.2929 42.7057 26.1489 42.7617 25.9729 42.7617C25.8049 42.7617 25.6609 42.7057 25.5409 42.5937C25.4289 42.4737 25.3729 42.3257 25.3729 42.1497V41.2857L25.6249 41.3217C25.6249 41.4657 25.5649 41.6257 25.4449 41.8017C25.3329 41.9777 25.1769 42.1497 24.9769 42.3177C24.7769 42.4777 24.5409 42.6137 24.2689 42.7257C23.9969 42.8297 23.7049 42.8817 23.3929 42.8817C22.8409 42.8817 22.3449 42.7417 21.9049 42.4617C21.4649 42.1737 21.1169 41.7817 20.8609 41.2857C20.6049 40.7897 20.4769 40.2257 20.4769 39.5937C20.4769 38.9457 20.6049 38.3777 20.8609 37.8897C21.1169 37.3937 21.4609 37.0057 21.8929 36.7257C22.3329 36.4457 22.8209 36.3057 23.3569 36.3057C23.7009 36.3057 24.0169 36.3617 24.3049 36.4737C24.6009 36.5857 24.8569 36.7297 25.0729 36.9057C25.2889 37.0817 25.4529 37.2697 25.5649 37.4697C25.6849 37.6617 25.7449 37.8457 25.7449 38.0217L25.3729 38.0577V36.9657C25.3729 36.7977 25.4289 36.6537 25.5409 36.5337C25.6609 36.4137 25.8049 36.3537 25.9729 36.3537ZM23.5249 41.7777C23.9009 41.7777 24.2329 41.6817 24.5209 41.4897C24.8089 41.2977 25.0329 41.0377 25.1929 40.7097C25.3529 40.3737 25.4329 40.0017 25.4329 39.5937C25.4329 39.1777 25.3529 38.8057 25.1929 38.4777C25.0329 38.1497 24.8089 37.8897 24.5209 37.6977C24.2329 37.5057 23.9009 37.4097 23.5249 37.4097C23.1569 37.4097 22.8289 37.5057 22.5409 37.6977C22.2609 37.8897 22.0369 38.1497 21.8689 38.4777C21.7089 38.8057 21.6289 39.1777 21.6289 39.5937C21.6289 40.0017 21.7089 40.3737 21.8689 40.7097C22.0369 41.0377 22.2609 41.2977 22.5409 41.4897C22.8289 41.6817 23.1569 41.7777 23.5249 41.7777ZM28.8541 42.7617C28.6781 42.7617 28.5341 42.7057 28.4221 42.5937C28.3101 42.4737 28.2541 42.3257 28.2541 42.1497V37.0617C28.2541 36.8857 28.3101 36.7417 28.4221 36.6297C28.5341 36.5097 28.6781 36.4497 28.8541 36.4497C29.0221 36.4497 29.1621 36.5097 29.2741 36.6297C29.3941 36.7417 29.4541 36.8857 29.4541 37.0617V38.4057L29.3341 37.8897C29.3981 37.6657 29.4941 37.4577 29.6221 37.2657C29.7581 37.0737 29.9181 36.9057 30.1021 36.7617C30.2861 36.6177 30.4901 36.5057 30.7141 36.4257C30.9461 36.3457 31.1861 36.3057 31.4341 36.3057C31.6421 36.3057 31.8221 36.3617 31.9741 36.4737C32.1261 36.5857 32.2021 36.7257 32.2021 36.8937C32.2021 37.1097 32.1461 37.2697 32.0341 37.3737C31.9221 37.4697 31.7981 37.5177 31.6621 37.5177C31.5421 37.5177 31.4261 37.4937 31.3141 37.4457C31.2021 37.3897 31.0701 37.3617 30.9181 37.3617C30.7501 37.3617 30.5781 37.4057 30.4021 37.4937C30.2261 37.5817 30.0661 37.7137 29.9221 37.8897C29.7781 38.0577 29.6621 38.2577 29.5741 38.4897C29.4941 38.7217 29.4541 38.9817 29.4541 39.2697V42.1497C29.4541 42.3257 29.3941 42.4737 29.2741 42.5937C29.1621 42.7057 29.0221 42.7617 28.8541 42.7617ZM36.4497 36.3417C37.0017 36.3417 37.4297 36.4617 37.7337 36.7017C38.0377 36.9337 38.2497 37.2497 38.3697 37.6497C38.4977 38.0497 38.5617 38.4897 38.5617 38.9697V42.1497C38.5617 42.3257 38.5017 42.4737 38.3817 42.5937C38.2697 42.7057 38.1297 42.7617 37.9617 42.7617C37.7857 42.7617 37.6417 42.7057 37.5297 42.5937C37.4177 42.4737 37.3617 42.3257 37.3617 42.1497V38.9697C37.3617 38.6897 37.3217 38.4337 37.2417 38.2017C37.1697 37.9697 37.0377 37.7857 36.8457 37.6497C36.6617 37.5137 36.4017 37.4457 36.0657 37.4457C35.7537 37.4457 35.4737 37.5137 35.2257 37.6497C34.9857 37.7857 34.7977 37.9697 34.6617 38.2017C34.5337 38.4337 34.4697 38.6897 34.4697 38.9697V42.1497C34.4697 42.3257 34.4097 42.4737 34.2897 42.5937C34.1777 42.7057 34.0377 42.7617 33.8697 42.7617C33.6937 42.7617 33.5497 42.7057 33.4377 42.5937C33.3257 42.4737 33.2697 42.3257 33.2697 42.1497V34.4937C33.2697 34.3177 33.3257 34.1737 33.4377 34.0617C33.5497 33.9417 33.6937 33.8817 33.8697 33.8817C34.0377 33.8817 34.1777 33.9417 34.2897 34.0617C34.4097 34.1737 34.4697 34.3177 34.4697 34.4937V37.7697L34.2537 37.8897C34.3097 37.7137 34.4017 37.5337 34.5297 37.3497C34.6657 37.1657 34.8297 36.9977 35.0217 36.8457C35.2217 36.6937 35.4417 36.5737 35.6817 36.4857C35.9217 36.3897 36.1777 36.3417 36.4497 36.3417ZM43.4106 36.3417C43.9706 36.3417 44.4666 36.4817 44.8986 36.7617C45.3386 37.0417 45.6866 37.4257 45.9426 37.9137C46.1986 38.3937 46.3266 38.9537 46.3266 39.5937C46.3266 40.2337 46.1986 40.8017 45.9426 41.2977C45.6866 41.7857 45.3426 42.1697 44.9106 42.4497C44.4786 42.7297 43.9906 42.8697 43.4466 42.8697C43.1426 42.8697 42.8546 42.8217 42.5826 42.7257C42.3106 42.6297 42.0706 42.5057 41.8626 42.3537C41.6546 42.1937 41.4826 42.0257 41.3466 41.8497C41.2186 41.6737 41.1386 41.5097 41.1066 41.3577L41.4306 41.2017V44.5497C41.4306 44.7257 41.3706 44.8697 41.2506 44.9817C41.1386 45.1017 40.9986 45.1617 40.8306 45.1617C40.6546 45.1617 40.5106 45.1017 40.3986 44.9817C40.2866 44.8697 40.2306 44.7257 40.2306 44.5497V37.0377C40.2306 36.8697 40.2866 36.7257 40.3986 36.6057C40.5106 36.4857 40.6546 36.4257 40.8306 36.4257C40.9986 36.4257 41.1386 36.4857 41.2506 36.6057C41.3706 36.7257 41.4306 36.8697 41.4306 37.0377V37.8657L41.2386 37.7577C41.2626 37.6057 41.3386 37.4497 41.4666 37.2897C41.5946 37.1217 41.7546 36.9657 41.9466 36.8217C42.1466 36.6777 42.3706 36.5617 42.6186 36.4737C42.8746 36.3857 43.1386 36.3417 43.4106 36.3417ZM43.2786 37.4457C42.8946 37.4457 42.5586 37.5417 42.2706 37.7337C41.9906 37.9177 41.7706 38.1697 41.6106 38.4897C41.4506 38.8097 41.3706 39.1777 41.3706 39.5937C41.3706 40.0017 41.4506 40.3737 41.6106 40.7097C41.7706 41.0377 41.9906 41.2977 42.2706 41.4897C42.5586 41.6737 42.8946 41.7657 43.2786 41.7657C43.6546 41.7657 43.9826 41.6737 44.2626 41.4897C44.5426 41.2977 44.7626 41.0377 44.9226 40.7097C45.0906 40.3737 45.1746 40.0017 45.1746 39.5937C45.1746 39.1857 45.0906 38.8217 44.9226 38.5017C44.7626 38.1737 44.5426 37.9177 44.2626 37.7337C43.9826 37.5417 43.6546 37.4457 43.2786 37.4457Z" fill="white"/>
<path fill-rule="evenodd" clip-rule="evenodd" d="M22.4987 0C15.5963 0 10 5.34429 10 11.9379C10 17.2116 13.5812 21.6856 18.5487 23.2647C19.1739 23.374 19.4017 23.0054 19.4017 22.6885C19.4017 22.4059 19.3913 21.6548 19.3851 20.6589C15.9079 21.3801 15.1745 19.0584 15.1745 19.0584C14.6059 17.68 13.7862 17.3129 13.7862 17.3129C12.6512 16.5718 13.872 16.5867 13.872 16.5867C15.1266 16.6717 15.7867 17.8171 15.7867 17.8171C16.9019 19.6411 18.7125 19.1141 19.4246 18.8091C19.5385 18.0377 19.8605 17.5116 20.2184 17.2131C17.4428 16.9121 14.5243 15.8873 14.5243 11.3135C14.5243 10.0106 15.0117 8.94457 15.8111 8.11007C15.6826 7.80806 15.2535 6.59456 15.9334 4.95088C15.9334 4.95088 16.983 4.63 19.371 6.17482C20.3682 5.91006 21.4376 5.77744 22.5003 5.77297C23.5619 5.77744 24.6313 5.91006 25.63 6.17482C28.0165 4.63 29.064 4.95088 29.064 4.95088C29.746 6.59456 29.3168 7.80806 29.1884 8.11007C29.9894 8.94457 30.4736 10.0106 30.4736 11.3135C30.4736 15.8993 27.5504 16.9081 24.7655 17.2037C25.2149 17.5722 25.6144 18.3004 25.6144 19.4146C25.6144 21.0101 25.5993 22.2976 25.5993 22.6885C25.5993 23.0084 25.824 23.38 26.4586 23.2632C31.4219 21.6812 35 17.2101 35 11.9379C35 5.34429 29.4032 0 22.4987 0Z" fill="#E5E5E5"/>
</svg>
