<svg width="130" height="47" viewBox="0 0 130 47" fill="none" xmlns="http://www.w3.org/2000/svg">
<path d="M4.07155 37.3058C4.50355 37.3058 4.88755 37.3538 5.22355 37.4498C5.55955 37.5378 5.81955 37.6658 6.00355 37.8338C6.19555 37.9938 6.29155 38.1818 6.29155 38.3978C6.29155 38.5338 6.25155 38.6618 6.17155 38.7818C6.09155 38.8938 5.97155 38.9498 5.81155 38.9498C5.69955 38.9498 5.60355 38.9298 5.52355 38.8898C5.45155 38.8498 5.38355 38.8018 5.31955 38.7458C5.25555 38.6898 5.17555 38.6338 5.07955 38.5778C4.99155 38.5298 4.85955 38.4898 4.68355 38.4578C4.51555 38.4258 4.36355 38.4098 4.22755 38.4098C3.80355 38.4098 3.43555 38.5058 3.12355 38.6978C2.81955 38.8898 2.57955 39.1498 2.40355 39.4778C2.23555 39.8058 2.15155 40.1778 2.15155 40.5938C2.15155 41.0098 2.23555 41.3818 2.40355 41.7098C2.57955 42.0378 2.81555 42.2978 3.11155 42.4898C3.41555 42.6818 3.76755 42.7778 4.16755 42.7778C4.40755 42.7778 4.60355 42.7618 4.75555 42.7298C4.90755 42.6898 5.03955 42.6418 5.15155 42.5858C5.27155 42.5138 5.37155 42.4418 5.45155 42.3698C5.53955 42.2898 5.65955 42.2498 5.81155 42.2498C5.98755 42.2498 6.11955 42.3058 6.20755 42.4178C6.30355 42.5218 6.35155 42.6538 6.35155 42.8138C6.35155 42.9898 6.24355 43.1618 6.02755 43.3298C5.81955 43.4898 5.53955 43.6218 5.18755 43.7258C4.83555 43.8298 4.44755 43.8818 4.02355 43.8818C3.39955 43.8818 2.85555 43.7378 2.39155 43.4498C1.93555 43.1618 1.57955 42.7698 1.32355 42.2738C1.07555 41.7778 0.951547 41.2178 0.951547 40.5938C0.951547 39.9618 1.08355 39.4018 1.34755 38.9138C1.61155 38.4178 1.97955 38.0258 2.45155 37.7378C2.92355 37.4498 3.46355 37.3058 4.07155 37.3058ZM8.0982 43.7618C7.9222 43.7618 7.7782 43.7058 7.6662 43.5938C7.5542 43.4738 7.4982 43.3258 7.4982 43.1498V38.0618C7.4982 37.8858 7.5542 37.7418 7.6662 37.6298C7.7782 37.5098 7.9222 37.4498 8.0982 37.4498C8.2662 37.4498 8.4062 37.5098 8.5182 37.6298C8.6382 37.7418 8.6982 37.8858 8.6982 38.0618V39.4058L8.5782 38.8898C8.6422 38.6658 8.7382 38.4578 8.8662 38.2658C9.0022 38.0738 9.1622 37.9058 9.3462 37.7618C9.5302 37.6178 9.7342 37.5058 9.9582 37.4258C10.1902 37.3458 10.4302 37.3058 10.6782 37.3058C10.8862 37.3058 11.0662 37.3618 11.2182 37.4738C11.3702 37.5858 11.4462 37.7258 11.4462 37.8938C11.4462 38.1098 11.3902 38.2698 11.2782 38.3738C11.1662 38.4698 11.0422 38.5178 10.9062 38.5178C10.7862 38.5178 10.6702 38.4938 10.5582 38.4458C10.4462 38.3898 10.3142 38.3618 10.1622 38.3618C9.9942 38.3618 9.8222 38.4058 9.6462 38.4938C9.4702 38.5818 9.3102 38.7138 9.1662 38.8898C9.0222 39.0578 8.9062 39.2578 8.8182 39.4898C8.7382 39.7218 8.6982 39.9818 8.6982 40.2698V43.1498C8.6982 43.3258 8.6382 43.4738 8.5182 43.5938C8.4062 43.7058 8.2662 43.7618 8.0982 43.7618ZM13.6418 43.1498C13.6418 43.3258 13.5858 43.4738 13.4738 43.5938C13.3618 43.7058 13.2178 43.7618 13.0418 43.7618C12.8738 43.7618 12.7298 43.7058 12.6098 43.5938C12.4978 43.4738 12.4418 43.3258 12.4418 43.1498V38.0138C12.4418 37.8378 12.4978 37.6938 12.6098 37.5818C12.7298 37.4618 12.8738 37.4018 13.0418 37.4018C13.2178 37.4018 13.3618 37.4618 13.4738 37.5818C13.5858 37.6938 13.6418 37.8378 13.6418 38.0138V43.1498ZM13.0298 36.6098C12.7978 36.6098 12.6298 36.5698 12.5258 36.4898C12.4218 36.4018 12.3698 36.2578 12.3698 36.0578V35.8658C12.3698 35.6658 12.4258 35.5258 12.5378 35.4458C12.6498 35.3658 12.8178 35.3258 13.0418 35.3258C13.2818 35.3258 13.4538 35.3698 13.5578 35.4578C13.6618 35.5378 13.7138 35.6738 13.7138 35.8658V36.0578C13.7138 36.2658 13.6578 36.4098 13.5458 36.4898C13.4418 36.5698 13.2698 36.6098 13.0298 36.6098ZM14.884 42.7778C14.812 42.6658 14.78 42.5378 14.788 42.3938C14.796 42.2418 14.88 42.1138 15.04 42.0098C15.152 41.9378 15.268 41.9098 15.388 41.9258C15.516 41.9338 15.636 41.9938 15.748 42.1058C15.972 42.3538 16.22 42.5498 16.492 42.6938C16.772 42.8378 17.108 42.9098 17.5 42.9098C17.66 42.9018 17.824 42.8778 17.992 42.8378C18.16 42.7898 18.304 42.7098 18.424 42.5978C18.544 42.4778 18.604 42.3058 18.604 42.0818C18.604 41.8818 18.54 41.7218 18.412 41.6018C18.284 41.4818 18.116 41.3858 17.908 41.3138C17.7 41.2338 17.476 41.1618 17.236 41.0978C16.98 41.0258 16.72 40.9458 16.456 40.8578C16.2 40.7698 15.968 40.6578 15.76 40.5218C15.552 40.3778 15.38 40.1938 15.244 39.9698C15.116 39.7458 15.052 39.4698 15.052 39.1418C15.052 38.7658 15.156 38.4418 15.364 38.1698C15.58 37.8978 15.856 37.6858 16.192 37.5338C16.536 37.3818 16.908 37.3058 17.308 37.3058C17.54 37.3058 17.784 37.3378 18.04 37.4018C18.296 37.4578 18.544 37.5498 18.784 37.6778C19.024 37.8058 19.232 37.9738 19.408 38.1818C19.488 38.2858 19.532 38.4098 19.54 38.5538C19.556 38.6978 19.492 38.8258 19.348 38.9378C19.252 39.0178 19.136 39.0538 19 39.0458C18.864 39.0378 18.752 38.9938 18.664 38.9138C18.512 38.7218 18.316 38.5738 18.076 38.4698C17.836 38.3578 17.564 38.3018 17.26 38.3018C17.108 38.3018 16.948 38.3258 16.78 38.3738C16.62 38.4138 16.484 38.4898 16.372 38.6018C16.26 38.7138 16.204 38.8778 16.204 39.0938C16.204 39.2938 16.268 39.4538 16.396 39.5738C16.532 39.6938 16.708 39.7938 16.924 39.8738C17.14 39.9538 17.376 40.0258 17.632 40.0898C17.88 40.1538 18.124 40.2298 18.364 40.3178C18.612 40.4058 18.832 40.5218 19.024 40.6658C19.224 40.8018 19.384 40.9818 19.504 41.2058C19.632 41.4218 19.696 41.6978 19.696 42.0338C19.696 42.4258 19.58 42.7618 19.348 43.0418C19.124 43.3138 18.836 43.5218 18.484 43.6658C18.14 43.8098 17.776 43.8818 17.392 43.8818C16.936 43.8818 16.48 43.8018 16.024 43.6418C15.576 43.4738 15.196 43.1858 14.884 42.7778ZM26.2522 37.3538C26.4282 37.3538 26.5722 37.4138 26.6842 37.5338C26.7962 37.6458 26.8522 37.7898 26.8522 37.9658V43.1498C26.8522 43.3258 26.7962 43.4738 26.6842 43.5938C26.5722 43.7058 26.4282 43.7618 26.2522 43.7618C26.0842 43.7618 25.9402 43.7058 25.8202 43.5938C25.7082 43.4738 25.6522 43.3258 25.6522 43.1498V42.2858L25.9042 42.3218C25.9042 42.4658 25.8442 42.6258 25.7242 42.8018C25.6122 42.9778 25.4562 43.1498 25.2562 43.3178C25.0562 43.4778 24.8202 43.6138 24.5482 43.7258C24.2762 43.8298 23.9842 43.8818 23.6722 43.8818C23.1202 43.8818 22.6242 43.7418 22.1842 43.4618C21.7442 43.1738 21.3962 42.7818 21.1402 42.2858C20.8842 41.7898 20.7562 41.2258 20.7562 40.5938C20.7562 39.9458 20.8842 39.3778 21.1402 38.8898C21.3962 38.3938 21.7402 38.0058 22.1722 37.7258C22.6122 37.4458 23.1002 37.3058 23.6362 37.3058C23.9802 37.3058 24.2962 37.3618 24.5842 37.4738C24.8802 37.5858 25.1362 37.7298 25.3522 37.9058C25.5682 38.0818 25.7322 38.2698 25.8442 38.4698C25.9642 38.6618 26.0242 38.8458 26.0242 39.0218L25.6522 39.0578V37.9658C25.6522 37.7978 25.7082 37.6538 25.8202 37.5338C25.9402 37.4138 26.0842 37.3538 26.2522 37.3538ZM23.8042 42.7778C24.1802 42.7778 24.5122 42.6818 24.8002 42.4898C25.0882 42.2978 25.3122 42.0378 25.4722 41.7098C25.6322 41.3738 25.7122 41.0018 25.7122 40.5938C25.7122 40.1778 25.6322 39.8058 25.4722 39.4778C25.3122 39.1498 25.0882 38.8898 24.8002 38.6978C24.5122 38.5058 24.1802 38.4098 23.8042 38.4098C23.4362 38.4098 23.1082 38.5058 22.8202 38.6978C22.5402 38.8898 22.3162 39.1498 22.1482 39.4778C21.9882 39.8058 21.9082 40.1778 21.9082 40.5938C21.9082 41.0018 21.9882 41.3738 22.1482 41.7098C22.3162 42.0378 22.5402 42.2978 22.8202 42.4898C23.1082 42.6818 23.4362 42.7778 23.8042 42.7778ZM29.1334 43.7618C28.9574 43.7618 28.8134 43.7058 28.7014 43.5938C28.5894 43.4738 28.5334 43.3258 28.5334 43.1498V38.0618C28.5334 37.8858 28.5894 37.7418 28.7014 37.6298C28.8134 37.5098 28.9574 37.4498 29.1334 37.4498C29.3014 37.4498 29.4414 37.5098 29.5534 37.6298C29.6734 37.7418 29.7334 37.8858 29.7334 38.0618V39.4058L29.6134 38.8898C29.6774 38.6658 29.7734 38.4578 29.9014 38.2658C30.0374 38.0738 30.1974 37.9058 30.3814 37.7618C30.5654 37.6178 30.7694 37.5058 30.9934 37.4258C31.2254 37.3458 31.4654 37.3058 31.7134 37.3058C31.9214 37.3058 32.1014 37.3618 32.2534 37.4738C32.4054 37.5858 32.4814 37.7258 32.4814 37.8938C32.4814 38.1098 32.4254 38.2698 32.3134 38.3738C32.2014 38.4698 32.0774 38.5178 31.9414 38.5178C31.8214 38.5178 31.7054 38.4938 31.5934 38.4458C31.4814 38.3898 31.3494 38.3618 31.1974 38.3618C31.0294 38.3618 30.8574 38.4058 30.6814 38.4938C30.5054 38.5818 30.3454 38.7138 30.2014 38.8898C30.0574 39.0578 29.9414 39.2578 29.8534 39.4898C29.7734 39.7218 29.7334 39.9818 29.7334 40.2698V43.1498C29.7334 43.3258 29.6734 43.4738 29.5534 43.5938C29.4414 43.7058 29.3014 43.7618 29.1334 43.7618ZM36.729 37.3418C37.281 37.3418 37.709 37.4618 38.013 37.7018C38.317 37.9338 38.529 38.2498 38.649 38.6498C38.777 39.0498 38.841 39.4898 38.841 39.9698V43.1498C38.841 43.3258 38.781 43.4738 38.661 43.5938C38.549 43.7058 38.409 43.7618 38.241 43.7618C38.065 43.7618 37.921 43.7058 37.809 43.5938C37.697 43.4738 37.641 43.3258 37.641 43.1498V39.9698C37.641 39.6898 37.601 39.4338 37.521 39.2018C37.449 38.9698 37.317 38.7858 37.125 38.6498C36.941 38.5138 36.681 38.4458 36.345 38.4458C36.033 38.4458 35.753 38.5138 35.505 38.6498C35.265 38.7858 35.077 38.9698 34.941 39.2018C34.813 39.4338 34.749 39.6898 34.749 39.9698V43.1498C34.749 43.3258 34.689 43.4738 34.569 43.5938C34.457 43.7058 34.317 43.7618 34.149 43.7618C33.973 43.7618 33.829 43.7058 33.717 43.5938C33.605 43.4738 33.549 43.3258 33.549 43.1498V35.4938C33.549 35.3178 33.605 35.1738 33.717 35.0618C33.829 34.9418 33.973 34.8818 34.149 34.8818C34.317 34.8818 34.457 34.9418 34.569 35.0618C34.689 35.1738 34.749 35.3178 34.749 35.4938V38.7698L34.533 38.8898C34.589 38.7138 34.681 38.5338 34.809 38.3498C34.945 38.1658 35.109 37.9978 35.301 37.8458C35.501 37.6938 35.721 37.5738 35.961 37.4858C36.201 37.3898 36.457 37.3418 36.729 37.3418ZM43.6899 37.3418C44.2499 37.3418 44.7459 37.4818 45.1779 37.7618C45.6179 38.0418 45.9659 38.4258 46.2219 38.9138C46.4779 39.3938 46.6059 39.9538 46.6059 40.5938C46.6059 41.2338 46.4779 41.8018 46.2219 42.2978C45.9659 42.7858 45.6219 43.1698 45.1899 43.4498C44.7579 43.7298 44.2699 43.8698 43.7259 43.8698C43.4219 43.8698 43.1339 43.8218 42.8619 43.7258C42.5899 43.6298 42.3499 43.5058 42.1419 43.3538C41.9339 43.1938 41.7619 43.0258 41.6259 42.8498C41.4979 42.6738 41.4179 42.5098 41.3859 42.3578L41.7099 42.2018V45.5498C41.7099 45.7258 41.6499 45.8698 41.5299 45.9818C41.4179 46.1018 41.2779 46.1618 41.1099 46.1618C40.9339 46.1618 40.7899 46.1018 40.6779 45.9818C40.5659 45.8698 40.5099 45.7258 40.5099 45.5498V38.0378C40.5099 37.8698 40.5659 37.7258 40.6779 37.6058C40.7899 37.4858 40.9339 37.4258 41.1099 37.4258C41.2779 37.4258 41.4179 37.4858 41.5299 37.6058C41.6499 37.7258 41.7099 37.8698 41.7099 38.0378V38.8658L41.5179 38.7578C41.5419 38.6058 41.6179 38.4498 41.7459 38.2898C41.8739 38.1218 42.0339 37.9658 42.2259 37.8218C42.4259 37.6778 42.6499 37.5618 42.8979 37.4738C43.1539 37.3858 43.4179 37.3418 43.6899 37.3418ZM43.5579 38.4458C43.1739 38.4458 42.8379 38.5418 42.5499 38.7338C42.2699 38.9178 42.0499 39.1698 41.8899 39.4898C41.7299 39.8098 41.6499 40.1778 41.6499 40.5938C41.6499 41.0018 41.7299 41.3738 41.8899 41.7098C42.0499 42.0378 42.2699 42.2978 42.5499 42.4898C42.8379 42.6738 43.1739 42.7658 43.5579 42.7658C43.9339 42.7658 44.2619 42.6738 44.5419 42.4898C44.8219 42.2978 45.0419 42.0378 45.2019 41.7098C45.3699 41.3738 45.4539 41.0018 45.4539 40.5938C45.4539 40.1858 45.3699 39.8218 45.2019 39.5018C45.0419 39.1738 44.8219 38.9178 44.5419 38.7338C44.2619 38.5418 43.9339 38.4458 43.5579 38.4458ZM55.139 43.1018C54.883 43.1018 54.647 43.0458 54.431 42.9338C54.215 42.8138 54.051 42.6498 53.939 42.4418C53.827 42.2338 53.791 41.9978 53.831 41.7338L53.939 41.0978L54.107 41.3618C53.971 41.7938 53.783 42.1378 53.543 42.3938C53.311 42.6498 53.051 42.8338 52.763 42.9458C52.483 43.0498 52.199 43.1018 51.911 43.1018C51.599 43.1018 51.307 43.0178 51.035 42.8498C50.763 42.6818 50.543 42.4498 50.375 42.1538C50.215 41.8578 50.135 41.5138 50.135 41.1218C50.135 40.7458 50.207 40.3578 50.351 39.9578C50.503 39.5498 50.707 39.1698 50.963 38.8178C51.227 38.4658 51.531 38.1818 51.875 37.9658C52.227 37.7498 52.607 37.6418 53.015 37.6418C53.399 37.6418 53.727 37.7738 53.999 38.0378C54.279 38.2938 54.439 38.6378 54.479 39.0698L54.191 39.7898L54.443 38.1218C54.459 38.0178 54.511 37.9218 54.599 37.8338C54.687 37.7458 54.823 37.7018 55.007 37.7018C55.239 37.7018 55.391 37.7538 55.463 37.8578C55.543 37.9618 55.567 38.1138 55.535 38.3138L55.031 41.5298C54.991 41.8018 55.023 41.9978 55.127 42.1178C55.239 42.2378 55.371 42.2978 55.523 42.2978C55.779 42.2978 56.019 42.2018 56.243 42.0098C56.467 41.8178 56.663 41.5658 56.831 41.2538C57.007 40.9338 57.143 40.5818 57.239 40.1978C57.335 39.8058 57.383 39.4098 57.383 39.0098C57.383 38.4258 57.247 37.9138 56.975 37.4738C56.703 37.0258 56.315 36.6778 55.811 36.4298C55.307 36.1818 54.715 36.0578 54.035 36.0578C53.251 36.0578 52.519 36.1738 51.839 36.4058C51.167 36.6378 50.575 36.9818 50.063 37.4378C49.559 37.8858 49.163 38.4338 48.875 39.0818C48.587 39.7298 48.443 40.4658 48.443 41.2898C48.443 41.7378 48.511 42.1738 48.647 42.5978C48.783 43.0218 48.995 43.4098 49.283 43.7618C49.579 44.1058 49.959 44.3778 50.423 44.5778C50.887 44.7858 51.443 44.8898 52.091 44.8898C52.531 44.8898 52.907 44.8578 53.219 44.7938C53.531 44.7298 53.811 44.6418 54.059 44.5298C54.307 44.4258 54.551 44.3098 54.791 44.1818C54.903 44.1178 55.003 44.1058 55.091 44.1458C55.187 44.1858 55.259 44.2618 55.307 44.3738C55.387 44.5898 55.271 44.7778 54.959 44.9378C54.615 45.1138 54.219 45.2858 53.771 45.4538C53.323 45.6218 52.763 45.7058 52.091 45.7058C51.283 45.7058 50.595 45.5778 50.027 45.3218C49.459 45.0738 48.995 44.7378 48.635 44.3138C48.283 43.8898 48.023 43.4178 47.855 42.8978C47.687 42.3698 47.603 41.8338 47.603 41.2898C47.603 40.3538 47.767 39.5138 48.095 38.7698C48.431 38.0258 48.891 37.3898 49.475 36.8618C50.067 36.3338 50.751 35.9338 51.527 35.6618C52.303 35.3818 53.139 35.2418 54.035 35.2418C54.947 35.2418 55.715 35.4138 56.339 35.7578C56.963 36.0938 57.431 36.5498 57.743 37.1258C58.063 37.6938 58.223 38.3218 58.223 39.0098C58.223 39.4978 58.151 39.9858 58.007 40.4738C57.863 40.9538 57.655 41.3938 57.383 41.7938C57.119 42.1858 56.795 42.5018 56.411 42.7418C56.035 42.9818 55.611 43.1018 55.139 43.1018ZM52.199 42.1778C52.431 42.1778 52.651 42.1218 52.859 42.0098C53.067 41.8898 53.251 41.7378 53.411 41.5538C53.579 41.3698 53.715 41.1738 53.819 40.9658C53.931 40.7498 53.999 40.5498 54.023 40.3658C54.143 39.9258 54.171 39.5738 54.107 39.3098C54.043 39.0458 53.915 38.8578 53.723 38.7458C53.539 38.6258 53.319 38.5658 53.063 38.5658C52.783 38.5658 52.531 38.6458 52.307 38.8058C52.091 38.9658 51.903 39.1778 51.743 39.4418C51.591 39.6978 51.475 39.9738 51.395 40.2698C51.315 40.5578 51.275 40.8338 51.275 41.0978C51.275 41.4498 51.359 41.7178 51.527 41.9018C51.703 42.0858 51.927 42.1778 52.199 42.1778ZM65.6126 40.6058C65.6126 41.2458 65.4726 41.8138 65.1926 42.3098C64.9126 42.7978 64.5326 43.1818 64.0526 43.4618C63.5726 43.7418 63.0326 43.8818 62.4326 43.8818C61.8326 43.8818 61.2926 43.7418 60.8126 43.4618C60.3326 43.1818 59.9486 42.7978 59.6606 42.3098C59.3806 41.8138 59.2406 41.2458 59.2406 40.6058C59.2406 39.9578 59.3806 39.3898 59.6606 38.9018C59.9486 38.4058 60.3326 38.0178 60.8126 37.7378C61.2926 37.4498 61.8326 37.3058 62.4326 37.3058C63.0326 37.3058 63.5726 37.4498 64.0526 37.7378C64.5326 38.0178 64.9126 38.4058 65.1926 38.9018C65.4726 39.3898 65.6126 39.9578 65.6126 40.6058ZM64.4126 40.6058C64.4126 40.1658 64.3246 39.7858 64.1486 39.4658C63.9726 39.1378 63.7326 38.8818 63.4286 38.6978C63.1326 38.5058 62.8006 38.4098 62.4326 38.4098C62.0646 38.4098 61.7286 38.5058 61.4246 38.6978C61.1206 38.8818 60.8806 39.1378 60.7046 39.4658C60.5286 39.7858 60.4406 40.1658 60.4406 40.6058C60.4406 41.0298 60.5286 41.4058 60.7046 41.7338C60.8806 42.0618 61.1206 42.3178 61.4246 42.5018C61.7286 42.6858 62.0646 42.7778 62.4326 42.7778C62.8006 42.7778 63.1326 42.6858 63.4286 42.5018C63.7326 42.3178 63.9726 42.0618 64.1486 41.7338C64.3246 41.4058 64.4126 41.0298 64.4126 40.6058ZM71.6749 37.4498C71.8429 37.4498 71.9829 37.5098 72.0949 37.6298C72.2149 37.7418 72.2749 37.8858 72.2749 38.0618V41.2178C72.2749 42.0498 72.0429 42.7018 71.5789 43.1738C71.1149 43.6378 70.4589 43.8698 69.6109 43.8698C68.7709 43.8698 68.1189 43.6378 67.6549 43.1738C67.1989 42.7018 66.9709 42.0498 66.9709 41.2178V38.0618C66.9709 37.8858 67.0269 37.7418 67.1389 37.6298C67.2509 37.5098 67.3949 37.4498 67.5709 37.4498C67.7389 37.4498 67.8789 37.5098 67.9909 37.6298C68.1109 37.7418 68.1709 37.8858 68.1709 38.0618V41.2178C68.1709 41.7378 68.2909 42.1258 68.5309 42.3818C68.7789 42.6378 69.1389 42.7658 69.6109 42.7658C70.0909 42.7658 70.4549 42.6378 70.7029 42.3818C70.9509 42.1258 71.0749 41.7378 71.0749 41.2178V38.0618C71.0749 37.8858 71.1309 37.7418 71.2429 37.6298C71.3549 37.5098 71.4989 37.4498 71.6749 37.4498ZM73.8595 37.5218H76.6795C76.8395 37.5218 76.9715 37.5778 77.0755 37.6898C77.1875 37.7938 77.2435 37.9258 77.2435 38.0858C77.2435 38.2378 77.1875 38.3658 77.0755 38.4698C76.9715 38.5738 76.8395 38.6258 76.6795 38.6258H73.8595C73.6995 38.6258 73.5635 38.5738 73.4515 38.4698C73.3475 38.3578 73.2955 38.2258 73.2955 38.0738C73.2955 37.9138 73.3475 37.7818 73.4515 37.6778C73.5635 37.5738 73.6995 37.5218 73.8595 37.5218ZM75.1195 35.9618C75.2955 35.9618 75.4395 36.0218 75.5515 36.1418C75.6635 36.2538 75.7195 36.3978 75.7195 36.5738V42.1418C75.7195 42.2858 75.7435 42.4018 75.7915 42.4898C75.8395 42.5778 75.9035 42.6378 75.9835 42.6698C76.0715 42.7018 76.1595 42.7178 76.2475 42.7178C76.3355 42.7178 76.4115 42.7018 76.4755 42.6698C76.5475 42.6378 76.6315 42.6218 76.7275 42.6218C76.8235 42.6218 76.9115 42.6658 76.9915 42.7538C77.0715 42.8418 77.1115 42.9618 77.1115 43.1138C77.1115 43.3058 77.0075 43.4618 76.7995 43.5818C76.5915 43.7018 76.3675 43.7618 76.1275 43.7618C75.9915 43.7618 75.8315 43.7498 75.6475 43.7258C75.4635 43.7018 75.2835 43.6418 75.1075 43.5458C74.9395 43.4498 74.7995 43.2978 74.6875 43.0898C74.5755 42.8738 74.5195 42.5738 74.5195 42.1898V36.5738C74.5195 36.3978 74.5755 36.2538 74.6875 36.1418C74.8075 36.0218 74.9515 35.9618 75.1195 35.9618ZM79.8684 43.1498C79.8684 43.3258 79.8084 43.4738 79.6884 43.5938C79.5764 43.7058 79.4364 43.7618 79.2684 43.7618C79.1004 43.7618 78.9564 43.7058 78.8364 43.5938C78.7244 43.4738 78.6684 43.3258 78.6684 43.1498V35.4938C78.6684 35.3178 78.7284 35.1738 78.8484 35.0618C78.9684 34.9418 79.1124 34.8818 79.2804 34.8818C79.4564 34.8818 79.5964 34.9418 79.7004 35.0618C79.8124 35.1738 79.8684 35.3178 79.8684 35.4938V43.1498ZM87.5853 40.6058C87.5853 41.2458 87.4453 41.8138 87.1653 42.3098C86.8853 42.7978 86.5053 43.1818 86.0253 43.4618C85.5453 43.7418 85.0053 43.8818 84.4053 43.8818C83.8053 43.8818 83.2653 43.7418 82.7853 43.4618C82.3053 43.1818 81.9213 42.7978 81.6333 42.3098C81.3533 41.8138 81.2133 41.2458 81.2133 40.6058C81.2133 39.9578 81.3533 39.3898 81.6333 38.9018C81.9213 38.4058 82.3053 38.0178 82.7853 37.7378C83.2653 37.4498 83.8053 37.3058 84.4053 37.3058C85.0053 37.3058 85.5453 37.4498 86.0253 37.7378C86.5053 38.0178 86.8853 38.4058 87.1653 38.9018C87.4453 39.3898 87.5853 39.9578 87.5853 40.6058ZM86.3853 40.6058C86.3853 40.1658 86.2973 39.7858 86.1213 39.4658C85.9453 39.1378 85.7053 38.8818 85.4013 38.6978C85.1053 38.5058 84.7733 38.4098 84.4053 38.4098C84.0373 38.4098 83.7013 38.5058 83.3973 38.6978C83.0933 38.8818 82.8533 39.1378 82.6773 39.4658C82.5013 39.7858 82.4133 40.1658 82.4133 40.6058C82.4133 41.0298 82.5013 41.4058 82.6773 41.7338C82.8533 42.0618 83.0933 42.3178 83.3973 42.5018C83.7013 42.6858 84.0373 42.7778 84.4053 42.7778C84.7733 42.7778 85.1053 42.6858 85.4013 42.5018C85.7053 42.3178 85.9453 42.0618 86.1213 41.7338C86.2973 41.4058 86.3853 41.0298 86.3853 40.6058ZM94.9915 40.6058C94.9915 41.2458 94.8515 41.8138 94.5715 42.3098C94.2915 42.7978 93.9115 43.1818 93.4315 43.4618C92.9515 43.7418 92.4115 43.8818 91.8115 43.8818C91.2115 43.8818 90.6715 43.7418 90.1915 43.4618C89.7115 43.1818 89.3275 42.7978 89.0395 42.3098C88.7595 41.8138 88.6195 41.2458 88.6195 40.6058C88.6195 39.9578 88.7595 39.3898 89.0395 38.9018C89.3275 38.4058 89.7115 38.0178 90.1915 37.7378C90.6715 37.4498 91.2115 37.3058 91.8115 37.3058C92.4115 37.3058 92.9515 37.4498 93.4315 37.7378C93.9115 38.0178 94.2915 38.4058 94.5715 38.9018C94.8515 39.3898 94.9915 39.9578 94.9915 40.6058ZM93.7915 40.6058C93.7915 40.1658 93.7035 39.7858 93.5275 39.4658C93.3515 39.1378 93.1115 38.8818 92.8075 38.6978C92.5115 38.5058 92.1795 38.4098 91.8115 38.4098C91.4435 38.4098 91.1075 38.5058 90.8035 38.6978C90.4995 38.8818 90.2595 39.1378 90.0835 39.4658C89.9075 39.7858 89.8195 40.1658 89.8195 40.6058C89.8195 41.0298 89.9075 41.4058 90.0835 41.7338C90.2595 42.0618 90.4995 42.3178 90.8035 42.5018C91.1075 42.6858 91.4435 42.7778 91.8115 42.7778C92.1795 42.7778 92.5115 42.6858 92.8075 42.5018C93.1115 42.3178 93.3515 42.0618 93.5275 41.7338C93.7035 41.4058 93.7915 41.0298 93.7915 40.6058ZM97.0458 43.7618C96.8778 43.7618 96.7338 43.7058 96.6138 43.5938C96.5018 43.4738 96.4458 43.3258 96.4458 43.1498V35.4938C96.4458 35.3178 96.5018 35.1738 96.6138 35.0618C96.7338 34.9418 96.8778 34.8818 97.0458 34.8818C97.2218 34.8818 97.3658 34.9418 97.4778 35.0618C97.5898 35.1738 97.6458 35.3178 97.6458 35.4938V43.1498C97.6458 43.3258 97.5898 43.4738 97.4778 43.5938C97.3658 43.7058 97.2218 43.7618 97.0458 43.7618ZM100.958 37.4258C101.11 37.4258 101.242 37.4898 101.354 37.6178C101.466 37.7458 101.522 37.8738 101.522 38.0018C101.522 38.1618 101.446 38.3098 101.294 38.4458L97.5378 41.8058L97.4898 40.4258L100.514 37.6178C100.642 37.4898 100.79 37.4258 100.958 37.4258ZM101.102 43.7498C100.934 43.7498 100.79 43.6818 100.67 43.5458L98.2698 41.0138L99.1818 40.1738L101.522 42.7058C101.65 42.8418 101.714 42.9938 101.714 43.1618C101.714 43.3378 101.642 43.4818 101.498 43.5938C101.362 43.6978 101.23 43.7498 101.102 43.7498ZM103.497 43.7498C103.297 43.7498 103.141 43.6938 103.029 43.5818C102.925 43.4698 102.873 43.3138 102.873 43.1138V42.8978C102.873 42.6978 102.925 42.5418 103.029 42.4298C103.141 42.3178 103.297 42.2618 103.497 42.2618H103.629C103.829 42.2618 103.981 42.3178 104.085 42.4298C104.189 42.5418 104.241 42.6978 104.241 42.8978V43.1138C104.241 43.3138 104.189 43.4698 104.085 43.5818C103.981 43.6938 103.829 43.7498 103.629 43.7498H103.497ZM108.544 37.3058C108.976 37.3058 109.36 37.3538 109.696 37.4498C110.032 37.5378 110.292 37.6658 110.476 37.8338C110.668 37.9938 110.764 38.1818 110.764 38.3978C110.764 38.5338 110.724 38.6618 110.644 38.7818C110.564 38.8938 110.444 38.9498 110.284 38.9498C110.172 38.9498 110.076 38.9298 109.996 38.8898C109.924 38.8498 109.856 38.8018 109.792 38.7458C109.728 38.6898 109.648 38.6338 109.552 38.5778C109.464 38.5298 109.332 38.4898 109.156 38.4578C108.988 38.4258 108.836 38.4098 108.7 38.4098C108.276 38.4098 107.908 38.5058 107.596 38.6978C107.292 38.8898 107.052 39.1498 106.876 39.4778C106.708 39.8058 106.624 40.1778 106.624 40.5938C106.624 41.0098 106.708 41.3818 106.876 41.7098C107.052 42.0378 107.288 42.2978 107.584 42.4898C107.888 42.6818 108.24 42.7778 108.64 42.7778C108.88 42.7778 109.076 42.7618 109.228 42.7298C109.38 42.6898 109.512 42.6418 109.624 42.5858C109.744 42.5138 109.844 42.4418 109.924 42.3698C110.012 42.2898 110.132 42.2498 110.284 42.2498C110.46 42.2498 110.592 42.3058 110.68 42.4178C110.776 42.5218 110.824 42.6538 110.824 42.8138C110.824 42.9898 110.716 43.1618 110.5 43.3298C110.292 43.4898 110.012 43.6218 109.66 43.7258C109.308 43.8298 108.92 43.8818 108.496 43.8818C107.872 43.8818 107.328 43.7378 106.864 43.4498C106.408 43.1618 106.052 42.7698 105.796 42.2738C105.548 41.7778 105.424 41.2178 105.424 40.5938C105.424 39.9618 105.556 39.4018 105.82 38.9138C106.084 38.4178 106.452 38.0258 106.924 37.7378C107.396 37.4498 107.936 37.3058 108.544 37.3058ZM118.019 40.6058C118.019 41.2458 117.879 41.8138 117.599 42.3098C117.319 42.7978 116.939 43.1818 116.459 43.4618C115.979 43.7418 115.439 43.8818 114.839 43.8818C114.239 43.8818 113.699 43.7418 113.219 43.4618C112.739 43.1818 112.355 42.7978 112.067 42.3098C111.787 41.8138 111.647 41.2458 111.647 40.6058C111.647 39.9578 111.787 39.3898 112.067 38.9018C112.355 38.4058 112.739 38.0178 113.219 37.7378C113.699 37.4498 114.239 37.3058 114.839 37.3058C115.439 37.3058 115.979 37.4498 116.459 37.7378C116.939 38.0178 117.319 38.4058 117.599 38.9018C117.879 39.3898 118.019 39.9578 118.019 40.6058ZM116.819 40.6058C116.819 40.1658 116.731 39.7858 116.555 39.4658C116.379 39.1378 116.139 38.8818 115.835 38.6978C115.539 38.5058 115.207 38.4098 114.839 38.4098C114.471 38.4098 114.135 38.5058 113.831 38.6978C113.527 38.8818 113.287 39.1378 113.111 39.4658C112.935 39.7858 112.847 40.1658 112.847 40.6058C112.847 41.0298 112.935 41.4058 113.111 41.7338C113.287 42.0618 113.527 42.3178 113.831 42.5018C114.135 42.6858 114.471 42.7778 114.839 42.7778C115.207 42.7778 115.539 42.6858 115.835 42.5018C116.139 42.3178 116.379 42.0618 116.555 41.7338C116.731 41.4058 116.819 41.0298 116.819 40.6058ZM122.545 37.3418C123.137 37.3418 123.593 37.4898 123.913 37.7858C124.233 38.0738 124.445 38.4658 124.549 38.9618L124.357 38.9018L124.441 38.7098C124.545 38.5018 124.701 38.2938 124.909 38.0858C125.125 37.8698 125.381 37.6938 125.677 37.5578C125.973 37.4138 126.289 37.3418 126.625 37.3418C127.177 37.3418 127.605 37.4618 127.909 37.7018C128.213 37.9338 128.425 38.2498 128.545 38.6498C128.665 39.0418 128.725 39.4818 128.725 39.9698V43.1498C128.725 43.3258 128.669 43.4738 128.557 43.5938C128.445 43.7058 128.301 43.7618 128.125 43.7618C127.957 43.7618 127.813 43.7058 127.693 43.5938C127.581 43.4738 127.525 43.3258 127.525 43.1498V39.9818C127.525 39.7018 127.485 39.4458 127.405 39.2138C127.333 38.9818 127.201 38.7978 127.009 38.6618C126.825 38.5178 126.569 38.4458 126.241 38.4458C125.929 38.4458 125.649 38.5178 125.401 38.6618C125.161 38.7978 124.973 38.9818 124.837 39.2138C124.701 39.4458 124.633 39.7018 124.633 39.9818V43.1498C124.633 43.3258 124.577 43.4738 124.465 43.5938C124.353 43.7058 124.209 43.7618 124.033 43.7618C123.857 43.7618 123.713 43.7058 123.601 43.5938C123.489 43.4738 123.433 43.3258 123.433 43.1498V39.9698C123.433 39.6898 123.393 39.4338 123.313 39.2018C123.241 38.9698 123.113 38.7858 122.929 38.6498C122.745 38.5138 122.489 38.4458 122.161 38.4458C121.849 38.4458 121.573 38.5138 121.333 38.6498C121.093 38.7858 120.905 38.9698 120.769 39.2018C120.641 39.4338 120.577 39.6898 120.577 39.9698V43.1498C120.577 43.3258 120.517 43.4738 120.397 43.5938C120.285 43.7058 120.145 43.7618 119.977 43.7618C119.801 43.7618 119.657 43.7058 119.545 43.5938C119.433 43.4738 119.377 43.3258 119.377 43.1498V38.0618C119.377 37.8858 119.433 37.7418 119.545 37.6298C119.657 37.5098 119.801 37.4498 119.977 37.4498C120.145 37.4498 120.285 37.5098 120.397 37.6298C120.517 37.7418 120.577 37.8858 120.577 38.0618V38.7698L120.349 38.9018C120.405 38.7258 120.497 38.5458 120.625 38.3618C120.753 38.1778 120.913 38.0098 121.105 37.8578C121.305 37.7058 121.525 37.5818 121.765 37.4858C122.005 37.3898 122.265 37.3418 122.545 37.3418Z" fill="white"/>
<path fill-rule="evenodd" clip-rule="evenodd" d="M71.7441 18.1768C71.7441 16.1158 71.7441 14.0811 71.7441 11.998C72.216 12.2994 72.6565 12.5808 73.097 12.862C73.4924 13.1145 73.5589 13.1132 73.9669 12.8606C76.2248 11.4628 78.483 10.0656 80.7413 8.66845C80.8098 8.62613 80.8804 8.58693 80.98 8.52881C80.9878 8.6245 80.9989 8.69617 80.9989 8.76789C80.9998 11.4561 81.0011 14.1444 80.9988 16.8326C80.9979 17.7262 80.5133 18.176 79.559 18.1764C77.0492 18.1775 74.5394 18.1768 72.0296 18.1768C71.9392 18.1768 71.8488 18.1768 71.7441 18.1768Z" fill="white"/>
<path fill-rule="evenodd" clip-rule="evenodd" d="M71.7622 5.72533C71.8539 5.72533 71.9361 5.72533 72.0183 5.72533C74.6687 5.72533 77.319 5.72512 79.9694 5.72556C80.4433 5.72565 80.8099 5.9955 80.9589 6.41975C81.0243 6.60614 80.9578 6.69728 80.7961 6.79815C78.743 8.07854 76.6942 9.36494 74.6443 10.6498C74.3515 10.8333 74.0547 11.0118 73.7671 11.2021C73.6097 11.3063 73.4704 11.3119 73.307 11.214C72.8386 10.933 72.3613 10.6646 71.8962 10.379C71.8186 10.3313 71.7379 10.2226 71.7374 10.1417C71.7292 8.69765 71.7331 7.25356 71.7351 5.80949C71.7353 5.7933 71.7452 5.77713 71.7622 5.72533Z" fill="white"/>
<path fill-rule="evenodd" clip-rule="evenodd" d="M70.5683 24.0795C65.7078 23.132 60.8664 22.1881 56.0067 21.2407C56.0067 21.1303 56.0067 21.0366 56.0067 20.9429C56.0066 15.2009 56.0085 9.45889 56 3.71688C55.9996 3.47901 56.0682 3.39649 56.3183 3.35194C60.2039 2.66059 64.0874 1.95935 67.9714 1.26057C68.8279 1.10646 69.6845 0.952949 70.5683 0.79425C70.5683 8.55798 70.5683 16.3063 70.5683 24.0795ZM66.6943 12.4147C66.6844 11.4684 66.5455 10.5947 66.0435 9.80301C65.6382 9.16387 65.0907 8.67877 64.3033 8.46988C62.7712 8.06349 61.3043 8.73187 60.5823 10.1762C60.1198 11.1016 60.021 12.0834 60.1103 13.0886C60.1876 13.9596 60.4584 14.7642 61.0614 15.4526C62.2599 16.8208 64.4411 16.8299 65.6557 15.4702C66.4599 14.57 66.6783 13.4985 66.6943 12.4147Z" fill="white"/>
<path fill-rule="evenodd" clip-rule="evenodd" d="M61.6866 12.4353C61.6845 11.761 61.782 11.1083 62.1919 10.5299C62.5702 9.99614 63.1444 9.77809 63.7773 9.92551C64.2691 10.0401 64.5663 10.3636 64.7643 10.7719C65.1024 11.4691 65.1609 12.2107 65.0586 12.9534C65.0019 13.3653 64.8767 13.7826 64.6971 14.1626C64.465 14.6537 64.0188 14.9347 63.4228 14.947C62.8229 14.9593 62.4058 14.6695 62.1134 14.206C61.7685 13.6591 61.6849 13.0558 61.6866 12.4353Z" fill="white"/>
</svg>
