<svg width="20" height="20" viewBox="0 0 20 20" fill="none" xmlns="http://www.w3.org/2000/svg">
<rect width="20" height="20" rx="3" fill="#DDE5E5"/>
<path d="M7.24793 18.1875C6.80242 18.1875 6.39796 18.0497 6.03455 17.7742C5.67111 17.4987 5.37801 17.1362 5.15529 16.6867C4.93253 16.2371 4.82117 15.7368 4.82117 15.1858V8.57347C4.82117 8.02245 4.93253 7.52217 5.15529 7.07264C5.37801 6.6231 5.67111 6.26061 6.03455 5.98508C6.39796 5.70955 6.80242 5.57181 7.24793 5.57181H12.7521C13.1976 5.57181 13.602 5.70955 13.9655 5.98508C14.3406 6.26061 14.6337 6.6231 14.8447 7.07264C15.0675 7.52217 15.1789 8.02245 15.1789 8.57347V13.3152H7.12483V15.0771C7.12483 15.1496 7.14242 15.2148 7.17759 15.2728C7.22446 15.3163 7.27722 15.3381 7.33585 15.3381H15.1789V18.1875H7.24793ZM7.12483 10.7486H12.8752V8.68222C12.8752 8.60973 12.8517 8.55172 12.8048 8.50822C12.7697 8.4502 12.7228 8.42121 12.6642 8.42121H7.33585C7.27722 8.42121 7.22446 8.4502 7.17759 8.50822C7.14242 8.55172 7.12483 8.60973 7.12483 8.68222V10.7486Z" fill="black"/>
<rect x="4.94861" y="1.88745" width="4.45937" height="2.36255" rx="1" fill="#00ADB7"/>
<rect x="10.0522" y="1.88745" width="4.45937" height="2.36255" rx="1" fill="#9200D7"/>
</svg>
