<svg width="100" height="100" viewBox="0 0 100 100" fill="none" xmlns="http://www.w3.org/2000/svg">
<mask id="mask0_251506_55" style="mask-type:luminance" maskUnits="userSpaceOnUse" x="29" y="13" width="44" height="44">
<path d="M72.1741 13.0435H29.5654V56.5217H72.1741V13.0435Z" fill="white"/>
</mask>
<g mask="url(#mask0_251506_55)">
<path d="M50.5812 55.6765C55.9551 55.6243 61.2742 53.3982 65.1003 49.6182C69.6429 45.1287 71.9829 38.4852 71.1673 32.1434C69.7682 21.2747 60.8343 13.9 50.4473 13.9C42.556 13.9 34.8856 18.8365 31.5221 25.9947C28.9464 31.4756 28.9412 38.0913 31.5221 43.5817C34.8621 50.6895 42.4064 55.6 50.3134 55.6765C50.4029 55.6765 50.4916 55.6765 50.5812 55.6765ZM50.3351 52.1947C42.309 52.1174 34.8212 45.9104 33.3325 37.953C32.2829 32.3426 34.2638 26.2721 38.3916 22.2878C43.2116 17.6356 50.7856 16.0774 57.0838 18.7139C62.7195 21.0739 66.9369 26.5521 67.7143 32.5878C68.3803 37.7608 66.5238 43.1834 62.8751 46.9182C59.6751 50.1939 55.1873 52.1504 50.5595 52.1947C50.4847 52.1947 50.4099 52.1947 50.3351 52.1947Z" fill="#969696"/>
<path d="M49.004 44.44V28.8248H51.4032V44.44H49.004ZM50.224 26.2222C49.7564 26.2222 49.3531 26.063 49.0142 25.7445C48.6821 25.4259 48.5161 25.043 48.5161 24.5957C48.5161 24.1484 48.6821 23.7655 49.0142 23.4469C49.3531 23.1284 49.7564 22.9691 50.224 22.9691C50.6917 22.9691 51.0915 23.1284 51.4236 23.4469C51.7625 23.7655 51.9319 24.1484 51.9319 24.5957C51.9319 25.043 51.7625 25.4259 51.4236 25.7445C51.0915 26.063 50.6917 26.2222 50.224 26.2222Z" fill="#969696"/>
</g>
<path d="M15.6812 77.7261C15.6812 77.8739 15.6247 78 15.5117 78.1043C15.4073 78.2087 15.2812 78.2609 15.1334 78.2609C14.9682 78.2609 14.8378 78.2087 14.7421 78.1043C14.6465 78 14.5986 77.8739 14.5986 77.7261V69.6652C14.5986 69.5087 14.6508 69.3826 14.7552 69.2869C14.8595 69.1826 14.9899 69.1304 15.1465 69.1304C15.2943 69.1304 15.4204 69.1826 15.5247 69.2869C15.6291 69.3826 15.6812 69.5087 15.6812 69.6652V77.7261ZM21.1438 71.3478C21.7351 71.3478 22.2003 71.4695 22.5394 71.713C22.8785 71.9565 23.1177 72.2826 23.2568 72.6913C23.4046 73.1 23.4785 73.5565 23.4785 74.0609V77.7261C23.4785 77.8739 23.4264 78 23.322 78.1043C23.2264 78.2087 23.1046 78.2609 22.9568 78.2609C22.809 78.2609 22.6829 78.2087 22.5785 78.1043C22.4829 78 22.4351 77.8739 22.4351 77.7261V74.0869C22.4351 73.7565 22.3829 73.4609 22.2785 73.2C22.1829 72.9304 22.0177 72.7174 21.7829 72.5609C21.5568 72.3956 21.2438 72.313 20.8438 72.313C20.4785 72.313 20.1438 72.3956 19.8394 72.5609C19.5351 72.7174 19.2916 72.9304 19.109 73.2C18.9264 73.4609 18.8351 73.7565 18.8351 74.0869V77.7261C18.8351 77.8739 18.7829 78 18.6785 78.1043C18.5829 78.2087 18.4612 78.2609 18.3133 78.2609C18.1655 78.2609 18.0394 78.2087 17.9351 78.1043C17.8394 78 17.7916 77.8739 17.7916 77.7261V72.0391C17.7916 71.8913 17.8394 71.7696 17.9351 71.6739C18.0394 71.5696 18.1655 71.5174 18.3133 71.5174C18.4698 71.5174 18.5959 71.5696 18.6916 71.6739C18.7872 71.7696 18.8351 71.8913 18.8351 72.0391V72.9652L18.5742 73.2522C18.6177 73.0261 18.7177 72.8 18.8742 72.5739C19.0307 72.3391 19.2264 72.1304 19.4612 71.9478C19.6959 71.7652 19.9568 71.6217 20.2438 71.5174C20.5307 71.4043 20.8307 71.3478 21.1438 71.3478ZM28.2261 68.6348C28.3739 68.6348 28.5261 68.6522 28.6826 68.6869C28.8478 68.7217 28.987 68.7826 29.1 68.8695C29.2218 68.9565 29.2826 69.0739 29.2826 69.2217C29.2826 69.3609 29.2392 69.4782 29.1522 69.5739C29.0652 69.6609 28.9609 69.7043 28.8392 69.7043C28.7609 69.7043 28.6522 69.6826 28.5131 69.6391C28.3739 69.5869 28.2305 69.5609 28.0826 69.5609C27.8826 69.5609 27.7174 69.6043 27.587 69.6913C27.4652 69.7782 27.3739 69.8956 27.3131 70.0435C27.2609 70.1826 27.2348 70.3391 27.2348 70.513V77.7261C27.2348 77.8739 27.1826 78 27.0783 78.1043C26.9826 78.2087 26.8609 78.2609 26.7131 78.2609C26.5565 78.2609 26.4305 78.2087 26.3348 78.1043C26.2392 78 26.1913 77.8739 26.1913 77.7261V70.5261C26.1913 69.9435 26.3696 69.4826 26.7261 69.1435C27.0913 68.8043 27.5913 68.6348 28.2261 68.6348ZM28.5913 71.6217C28.7305 71.6217 28.8478 71.6695 28.9435 71.7652C29.0392 71.8522 29.087 71.9652 29.087 72.1043C29.087 72.2435 29.0392 72.3608 28.9435 72.4565C28.8478 72.5435 28.7305 72.5869 28.5913 72.5869H25.3174C25.1783 72.5869 25.0609 72.5391 24.9652 72.4435C24.8696 72.3478 24.8218 72.2348 24.8218 72.1043C24.8218 71.9565 24.8696 71.8391 24.9652 71.7522C25.0609 71.6652 25.1783 71.6217 25.3174 71.6217H28.5913ZM36.3859 74.8695C36.3859 75.5478 36.2338 76.1522 35.9294 76.6826C35.6338 77.213 35.2294 77.6304 34.7164 77.9348C34.212 78.2391 33.6425 78.3913 33.0077 78.3913C32.3729 78.3913 31.799 78.2391 31.2859 77.9348C30.7729 77.6304 30.3642 77.213 30.0598 76.6826C29.7642 76.1522 29.6164 75.5478 29.6164 74.8695C29.6164 74.1913 29.7642 73.5869 30.0598 73.0565C30.3642 72.5261 30.7729 72.1087 31.2859 71.8043C31.799 71.5 32.3729 71.3478 33.0077 71.3478C33.6425 71.3478 34.212 71.5 34.7164 71.8043C35.2294 72.1087 35.6338 72.5261 35.9294 73.0565C36.2338 73.5869 36.3859 74.1913 36.3859 74.8695ZM35.3425 74.8695C35.3425 74.3652 35.2381 73.9217 35.0294 73.5391C34.8294 73.1565 34.5512 72.8565 34.1946 72.6391C33.8468 72.4217 33.4512 72.313 33.0077 72.313C32.5642 72.313 32.1642 72.4217 31.8077 72.6391C31.4598 72.8565 31.1816 73.1565 30.9729 73.5391C30.7642 73.9217 30.6598 74.3652 30.6598 74.8695C30.6598 75.3652 30.7642 75.8043 30.9729 76.1869C31.1816 76.5695 31.4598 76.8739 31.8077 77.1C32.1642 77.3174 32.5642 77.4261 33.0077 77.4261C33.4512 77.4261 33.8468 77.3174 34.1946 77.1C34.5512 76.8739 34.8294 76.5695 35.0294 76.1869C35.2381 75.8043 35.3425 75.3652 35.3425 74.8695ZM38.4772 78.2609C38.3293 78.2609 38.2032 78.2087 38.0989 78.1043C38.0032 78 37.9554 77.8739 37.9554 77.7261V72.0391C37.9554 71.8913 38.0032 71.7696 38.0989 71.6739C38.2032 71.5696 38.3293 71.5174 38.4772 71.5174C38.6337 71.5174 38.7598 71.5696 38.8554 71.6739C38.9511 71.7696 38.9989 71.8913 38.9989 72.0391V73.7608L38.8424 73.4869C38.8945 73.2174 38.9858 72.9565 39.1163 72.7043C39.2554 72.4435 39.4293 72.213 39.638 72.013C39.8467 71.8043 40.0858 71.6435 40.3554 71.5304C40.625 71.4087 40.9206 71.3478 41.2424 71.3478C41.4337 71.3478 41.6076 71.3956 41.7641 71.4913C41.9293 71.5782 42.0119 71.7043 42.0119 71.8695C42.0119 72.0522 41.9641 72.1869 41.8685 72.2739C41.7728 72.3609 41.6641 72.4043 41.5424 72.4043C41.4293 72.4043 41.3206 72.3826 41.2163 72.3391C41.1119 72.2869 40.9815 72.2609 40.825 72.2609C40.6076 72.2609 40.3902 72.3217 40.1728 72.4435C39.9641 72.5565 39.7685 72.7217 39.5858 72.9391C39.4119 73.1565 39.2685 73.4043 39.1554 73.6826C39.0511 73.9522 38.9989 74.2435 38.9989 74.5565V77.7261C38.9989 77.8739 38.9467 78 38.8424 78.1043C38.7467 78.2087 38.625 78.2609 38.4772 78.2609ZM46.4124 71.413C47.0037 71.413 47.4819 71.5652 47.8472 71.8695C48.2211 72.1652 48.4689 72.5869 48.5906 73.1348H48.395L48.4863 72.9C48.5906 72.6565 48.7689 72.4217 49.0211 72.1956C49.2732 71.9695 49.5645 71.7826 49.895 71.6348C50.2254 71.4869 50.5689 71.413 50.9254 71.413C51.4993 71.413 51.9515 71.5391 52.2819 71.7913C52.6124 72.0348 52.8472 72.3652 52.9863 72.7826C53.1341 73.1913 53.208 73.6522 53.208 74.1652V77.7261C53.208 77.8739 53.1558 78 53.0515 78.1043C52.9558 78.2087 52.8341 78.2609 52.6863 78.2609C52.5298 78.2609 52.4037 78.2087 52.308 78.1043C52.2124 78 52.1645 77.8739 52.1645 77.7261V74.1913C52.1645 73.8522 52.1124 73.5478 52.008 73.2782C51.9124 73 51.7515 72.7826 51.5254 72.6261C51.308 72.4608 51.008 72.3782 50.6254 72.3782C50.2689 72.3782 49.9428 72.4608 49.6472 72.6261C49.3515 72.7826 49.1167 73 48.9428 73.2782C48.7689 73.5478 48.6819 73.8522 48.6819 74.1913V77.7261C48.6819 77.8739 48.6341 78 48.5385 78.1043C48.4428 78.2087 48.3167 78.2609 48.1602 78.2609C48.0124 78.2609 47.8863 78.2087 47.7819 78.1043C47.6863 78 47.6385 77.8739 47.6385 77.7261V74.1522C47.6385 73.8217 47.5906 73.5261 47.495 73.2652C47.408 72.9956 47.2558 72.7826 47.0385 72.6261C46.8211 72.4608 46.5211 72.3782 46.1385 72.3782C45.7906 72.3782 45.4732 72.4608 45.1863 72.6261C44.8993 72.7826 44.6689 72.9956 44.495 73.2652C44.3211 73.5261 44.2341 73.8217 44.2341 74.1522V77.7261C44.2341 77.8739 44.1819 78 44.0776 78.1043C43.9819 78.2087 43.8602 78.2609 43.7124 78.2609C43.5645 78.2609 43.4385 78.2087 43.3341 78.1043C43.2385 78 43.1906 77.8739 43.1906 77.7261V72.0391C43.1906 71.8913 43.2385 71.7696 43.3341 71.6739C43.4385 71.5696 43.5645 71.5174 43.7124 71.5174C43.8689 71.5174 43.995 71.5696 44.0906 71.6739C44.1863 71.7696 44.2341 71.8913 44.2341 72.0391V73.0304L43.9472 73.3435C43.9819 73.1174 44.0689 72.8913 44.208 72.6652C44.3558 72.4391 44.5428 72.2304 44.7689 72.0391C44.995 71.8478 45.2472 71.6956 45.5254 71.5826C45.8037 71.4695 46.0993 71.413 46.4124 71.413ZM60.6952 71.4522C60.8431 71.4522 60.9648 71.5043 61.0605 71.6087C61.1648 71.7043 61.217 71.8261 61.217 71.9739V77.7261C61.217 77.8739 61.1648 78 61.0605 78.1043C60.9648 78.2087 60.8431 78.2609 60.6952 78.2609C60.5387 78.2609 60.4126 78.2087 60.317 78.1043C60.2213 78 60.1735 77.8739 60.1735 77.7261V76.4869L60.4213 76.4609C60.4213 76.6522 60.3561 76.8609 60.2257 77.0869C60.0952 77.313 59.917 77.5261 59.6909 77.7261C59.4648 77.9174 59.1952 78.0782 58.8822 78.2087C58.5778 78.3304 58.2474 78.3913 57.8909 78.3913C57.2996 78.3913 56.7692 78.2391 56.2996 77.9348C55.83 77.6217 55.4561 77.2 55.1778 76.6695C54.9083 76.1391 54.7735 75.5348 54.7735 74.8565C54.7735 74.1695 54.9083 73.5652 55.1778 73.0435C55.4561 72.513 55.83 72.1 56.2996 71.8043C56.7692 71.5 57.2909 71.3478 57.8648 71.3478C58.2387 71.3478 58.5865 71.4087 58.9083 71.5304C59.23 71.6522 59.5083 71.8174 59.7431 72.0261C59.9865 72.2348 60.1735 72.4652 60.3039 72.7174C60.4431 72.9695 60.5126 73.2217 60.5126 73.4739L60.1735 73.3956V71.9739C60.1735 71.8261 60.2213 71.7043 60.317 71.6087C60.4126 71.5043 60.5387 71.4522 60.6952 71.4522ZM58.0083 77.4261C58.4431 77.4261 58.8257 77.313 59.1561 77.0869C59.4952 76.8609 59.7561 76.5565 59.9387 76.1739C60.13 75.7826 60.2257 75.3435 60.2257 74.8565C60.2257 74.3782 60.13 73.9478 59.9387 73.5652C59.7561 73.1739 59.4952 72.8696 59.1561 72.6522C58.8257 72.4261 58.4431 72.313 58.0083 72.313C57.5822 72.313 57.1996 72.4217 56.8605 72.6391C56.53 72.8565 56.2692 73.1565 56.0778 73.5391C55.8865 73.9217 55.7909 74.3609 55.7909 74.8565C55.7909 75.3435 55.8822 75.7826 56.0648 76.1739C56.2561 76.5565 56.517 76.8609 56.8474 77.0869C57.1865 77.313 57.5735 77.4261 58.0083 77.4261ZM66.1508 71.3478C66.5943 71.3478 66.9943 71.3956 67.3508 71.4913C67.7073 71.5869 67.9898 71.7174 68.1986 71.8826C68.4073 72.0478 68.5117 72.2348 68.5117 72.4435C68.5117 72.5565 68.4725 72.6652 68.3942 72.7695C68.3159 72.8739 68.2116 72.9261 68.0812 72.9261C67.9595 72.9261 67.8595 72.9043 67.7812 72.8609C67.7117 72.8174 67.6421 72.7609 67.5725 72.6913C67.5117 72.6217 67.4247 72.5609 67.3116 72.5087C67.2072 72.4478 67.0551 72.4 66.8551 72.3652C66.6551 72.3304 66.4551 72.313 66.2551 72.313C65.7768 72.313 65.3551 72.4261 64.9898 72.6522C64.6333 72.8782 64.3507 73.1826 64.142 73.5652C63.9333 73.9478 63.829 74.3826 63.829 74.8695C63.829 75.3565 63.929 75.7913 64.129 76.1739C64.329 76.5565 64.6072 76.8609 64.9639 77.0869C65.3203 77.313 65.7334 77.4261 66.203 77.4261C66.5073 77.4261 66.7508 77.4 66.9334 77.3478C67.116 77.2956 67.2682 77.2348 67.3899 77.1652C67.5465 77.0782 67.6638 76.9913 67.7421 76.9043C67.8291 76.8174 67.9421 76.7739 68.0812 76.7739C68.2291 76.7739 68.342 76.8217 68.4204 76.9174C68.5073 77.013 68.5508 77.1304 68.5508 77.2695C68.5508 77.4261 68.4421 77.5913 68.2247 77.7652C68.0073 77.9391 67.7117 78.0869 67.3377 78.2087C66.9725 78.3304 66.5551 78.3913 66.0856 78.3913C65.4246 78.3913 64.8464 78.2391 64.3507 77.9348C63.8551 77.6217 63.4681 77.2 63.1899 76.6695C62.9203 76.1304 62.7855 75.5304 62.7855 74.8695C62.7855 74.2087 62.9246 73.613 63.2029 73.0826C63.4898 72.5522 63.8855 72.1304 64.3899 71.8174C64.8943 71.5043 65.4812 71.3478 66.1508 71.3478ZM70.9189 77.7261C70.9189 77.8739 70.8667 78 70.7624 78.1043C70.6667 78.2087 70.545 78.2609 70.3972 78.2609C70.2406 78.2609 70.1145 78.2087 70.0189 78.1043C69.9232 78 69.8754 77.8739 69.8754 77.7261V71.9348C69.8754 71.7869 69.9232 71.6652 70.0189 71.5695C70.1232 71.4652 70.2493 71.413 70.3972 71.413C70.545 71.413 70.6667 71.4652 70.7624 71.5695C70.8667 71.6652 70.9189 71.7869 70.9189 71.9348V77.7261ZM70.3972 70.5391C70.1798 70.5391 70.0189 70.4956 69.9145 70.4087C69.8102 70.3217 69.758 70.1869 69.758 70.0043V69.8217C69.758 69.6391 69.8145 69.5043 69.9276 69.4174C70.0406 69.3304 70.2015 69.2869 70.4102 69.2869C70.6189 69.2869 70.7754 69.3304 70.8798 69.4174C70.9841 69.5043 71.0363 69.6391 71.0363 69.8217V70.0043C71.0363 70.1869 70.9798 70.3217 70.8667 70.4087C70.7624 70.4956 70.6059 70.5391 70.3972 70.5391ZM79.1976 74.8695C79.1976 75.5478 79.0454 76.1522 78.7411 76.6826C78.4454 77.213 78.0411 77.6304 77.528 77.9348C77.0237 78.2391 76.4541 78.3913 75.8193 78.3913C75.1845 78.3913 74.6106 78.2391 74.0976 77.9348C73.5845 77.6304 73.1758 77.213 72.8715 76.6826C72.5758 76.1522 72.428 75.5478 72.428 74.8695C72.428 74.1913 72.5758 73.5869 72.8715 73.0565C73.1758 72.5261 73.5845 72.1087 74.0976 71.8043C74.6106 71.5 75.1845 71.3478 75.8193 71.3478C76.4541 71.3478 77.0237 71.5 77.528 71.8043C78.0411 72.1087 78.4454 72.5261 78.7411 73.0565C79.0454 73.5869 79.1976 74.1913 79.1976 74.8695ZM78.1541 74.8695C78.1541 74.3652 78.0498 73.9217 77.8411 73.5391C77.6411 73.1565 77.3628 72.8565 77.0063 72.6391C76.6585 72.4217 76.2628 72.313 75.8193 72.313C75.3758 72.313 74.9759 72.4217 74.6193 72.6391C74.2715 72.8565 73.9932 73.1565 73.7845 73.5391C73.5758 73.9217 73.4715 74.3652 73.4715 74.8695C73.4715 75.3652 73.5758 75.8043 73.7845 76.1869C73.9932 76.5695 74.2715 76.8739 74.6193 77.1C74.9759 77.3174 75.3758 77.4261 75.8193 77.4261C76.2628 77.4261 76.6585 77.3174 77.0063 77.1C77.3628 76.8739 77.6411 76.5695 77.8411 76.1869C78.0498 75.8043 78.1541 75.3652 78.1541 74.8695ZM75.7411 70.9174C75.6802 70.9174 75.615 70.8913 75.5454 70.8391C75.4845 70.7869 75.4541 70.7174 75.4541 70.6304C75.4541 70.5695 75.4802 70.5 75.5324 70.4217L76.315 69.1435C76.3672 69.0565 76.4367 68.9739 76.5237 68.8956C76.6106 68.8174 76.715 68.7782 76.8367 68.7782C77.0106 68.7782 77.1411 68.8261 77.228 68.9217C77.315 69.0087 77.3585 69.1261 77.3585 69.2739C77.3498 69.3435 77.3324 69.4087 77.3063 69.4695C77.2802 69.5304 77.2411 69.5956 77.1889 69.6652L76.1976 70.7087C76.1367 70.7782 76.0628 70.8304 75.9758 70.8652C75.8976 70.9 75.8193 70.9174 75.7411 70.9174ZM84.1192 71.3478C84.7105 71.3478 85.1758 71.4695 85.5149 71.713C85.854 71.9565 86.0931 72.2826 86.2323 72.6913C86.3801 73.1 86.454 73.5565 86.454 74.0609V77.7261C86.454 77.8739 86.4019 78 86.2975 78.1043C86.2019 78.2087 86.0801 78.2609 85.9323 78.2609C85.7845 78.2609 85.6584 78.2087 85.554 78.1043C85.4584 78 85.4105 77.8739 85.4105 77.7261V74.0869C85.4105 73.7565 85.3584 73.4609 85.254 73.2C85.1584 72.9304 84.9932 72.7174 84.7584 72.5609C84.5323 72.3956 84.2192 72.313 83.8192 72.313C83.454 72.313 83.1192 72.3956 82.8149 72.5609C82.5105 72.7174 82.2671 72.9304 82.0845 73.2C81.9019 73.4609 81.8105 73.7565 81.8105 74.0869V77.7261C81.8105 77.8739 81.7584 78 81.654 78.1043C81.5584 78.2087 81.4366 78.2609 81.2888 78.2609C81.141 78.2609 81.0149 78.2087 80.9105 78.1043C80.8149 78 80.7671 77.8739 80.7671 77.7261V72.0391C80.7671 71.8913 80.8149 71.7696 80.9105 71.6739C81.0149 71.5696 81.141 71.5174 81.2888 71.5174C81.4453 71.5174 81.5714 71.5696 81.6671 71.6739C81.7627 71.7696 81.8105 71.8913 81.8105 72.0391V72.9652L81.5497 73.2522C81.5932 73.0261 81.6932 72.8 81.8497 72.5739C82.0062 72.3391 82.2019 72.1304 82.4366 71.9478C82.6714 71.7652 82.9323 71.6217 83.2192 71.5174C83.5062 71.4043 83.8062 71.3478 84.1192 71.3478Z" fill="#969696"/>
</svg>
