<svg width="50" height="50" viewBox="0 0 50 50" fill="none" xmlns="http://www.w3.org/2000/svg">
<mask id="mask0_251445_85" style="mask-type:luminance" maskUnits="userSpaceOnUse" x="6" y="6" width="39" height="39">
<path d="M44.6153 6.15385H6.15381V44.6154H44.6153V6.15385Z" fill="white"/>
</mask>
<g mask="url(#mask0_251445_85)">
<path d="M25.1239 43.8677C29.9747 43.8215 34.7762 41.8523 38.2298 38.5085C42.3303 34.5369 44.4426 28.66 43.7063 23.05C42.4434 13.4354 34.379 6.91154 25.003 6.91154C17.8798 6.91154 10.9559 11.2785 7.9198 17.6108C5.59484 22.4592 5.59013 28.3115 7.9198 33.1685C10.9347 39.4562 17.7448 43.8 24.8821 43.8677C24.963 43.8677 25.043 43.8677 25.1239 43.8677ZM24.9017 40.7877C17.6569 40.7192 10.8978 35.2285 9.55403 28.1892C8.60662 23.2262 10.3947 17.8562 14.1207 14.3315C18.4716 10.2162 25.3083 8.8377 30.9936 11.17C36.0807 13.2577 39.8876 18.1039 40.5893 23.4431C41.1906 28.0192 39.5148 32.8162 36.2212 36.12C33.3327 39.0177 29.2817 40.7485 25.1043 40.7877C25.0368 40.7877 24.9693 40.7877 24.9017 40.7877Z" fill="#969696"/>
<path d="M23.7002 33.9277V20.1142H25.8659V33.9277H23.7002ZM24.8014 17.812C24.3793 17.812 24.0153 17.6712 23.7094 17.3894C23.4096 17.1075 23.2598 16.7689 23.2598 16.3732C23.2598 15.9775 23.4096 15.6387 23.7094 15.3569C24.0153 15.0752 24.3793 14.9342 24.8014 14.9342C25.2236 14.9342 25.5845 15.0752 25.8843 15.3569C26.1901 15.6387 26.3431 15.9775 26.3431 16.3732C26.3431 16.7689 26.1901 17.1075 25.8843 17.3894C25.5845 17.6712 25.2236 17.812 24.8014 17.812Z" fill="#969696"/>
</g>
</svg>
