<svg width="81" height="81" viewBox="0 0 81 81" fill="none" xmlns="http://www.w3.org/2000/svg">
<mask id="mask0_251454_273" style="mask-type:luminance" maskUnits="userSpaceOnUse" x="22" y="16" width="38" height="37">
<path d="M59.1081 16.054H22.6216V52.5405H59.1081V16.054Z" fill="white"/>
</mask>
<g mask="url(#mask0_251454_273)">
<path d="M40.8648 16.054C37.2567 16.054 33.7295 17.124 30.7295 19.1286C27.7293 21.1332 25.3911 23.9824 24.0103 27.3159C22.6295 30.6494 22.2682 34.3175 22.9722 37.8564C23.6761 41.3952 25.4135 44.6459 27.9649 47.1972C30.5163 49.7486 33.7669 51.4861 37.3058 52.19C40.8446 52.8939 44.5127 52.5326 47.8462 51.1519C51.1797 49.7711 54.0289 47.4328 56.0335 44.4327C58.0382 41.4326 59.1081 37.9054 59.1081 34.2973C59.1028 29.4605 57.1791 24.8233 53.759 21.4031C50.3389 17.983 45.7016 16.0593 40.8648 16.054ZM40.8648 49.5C37.8581 49.5 34.9188 48.6084 32.4187 46.9379C29.9186 45.2674 27.97 42.8931 26.8194 40.1151C25.6687 37.3372 25.3676 34.2804 25.9543 31.3314C26.5408 28.3823 27.9888 25.6735 30.1149 23.5473C32.241 21.4212 34.9499 19.9733 37.8989 19.3867C40.848 18.8001 43.9047 19.1012 46.6827 20.2518C49.4606 21.4025 51.8349 23.3511 53.5054 25.8511C55.1759 28.3512 56.0675 31.2905 56.0675 34.2973C56.0631 38.328 54.46 42.1922 51.6099 45.0423C48.7598 47.8924 44.8955 49.4956 40.8648 49.5Z" fill="#969696"/>
<path d="M45.0729 25.723C44.8148 25.4134 44.4444 25.219 44.043 25.1825C43.6416 25.146 43.2421 25.2705 42.9324 25.5283L33.8108 33.1297C33.6397 33.2724 33.5021 33.451 33.4076 33.6527C33.3131 33.8545 33.2642 34.0745 33.2642 34.2973C33.2642 34.5201 33.3131 34.7401 33.4076 34.9419C33.5021 35.1436 33.6397 35.3222 33.8108 35.4649L42.9324 43.0662C43.085 43.1997 43.2627 43.3013 43.4551 43.3651C43.6476 43.4288 43.8508 43.4535 44.0528 43.4376C44.255 43.4216 44.4518 43.3654 44.6319 43.2723C44.8119 43.1792 44.9716 43.051 45.1013 42.8953C45.2311 42.7395 45.3284 42.5594 45.3875 42.3655C45.4467 42.1716 45.4665 41.9678 45.4457 41.7662C45.4249 41.5645 45.364 41.3691 45.2666 41.1913C45.1692 41.0136 45.0372 40.8571 44.8784 40.7311L37.1584 34.2973L44.8784 27.8635C45.1879 27.6054 45.3823 27.2349 45.4188 26.8335C45.4553 26.4321 45.3309 26.0327 45.0729 25.723Z" fill="#969696"/>
</g>
<path d="M24.0956 67.8649C23.9715 67.8649 23.8657 67.8211 23.7781 67.7335C23.6978 67.6459 23.6577 67.5401 23.6577 67.4161V62.6436C23.6577 62.5196 23.6978 62.4174 23.7781 62.3372C23.8657 62.2496 23.9715 62.2058 24.0956 62.2058C24.2269 62.2058 24.3327 62.2496 24.413 62.3372C24.4933 62.4174 24.5334 62.5196 24.5334 62.6436V64.0885L24.402 63.8586C24.4458 63.6324 24.5224 63.4135 24.6319 63.2019C24.7487 62.983 24.8946 62.7896 25.0697 62.6217C25.2449 62.4466 25.4456 62.3116 25.6718 62.2167C25.898 62.1146 26.1461 62.0635 26.4161 62.0635C26.5766 62.0635 26.7226 62.1036 26.8539 62.1839C26.9926 62.2569 27.0619 62.3627 27.0619 62.5013C27.0619 62.6546 27.0218 62.7677 26.9415 62.8407C26.8612 62.9136 26.77 62.9501 26.6679 62.9501C26.573 62.9501 26.4818 62.9319 26.3942 62.8954C26.3066 62.8516 26.1972 62.8297 26.0658 62.8297C25.8834 62.8297 25.701 62.8808 25.5185 62.983C25.3434 63.0778 25.1792 63.2165 25.026 63.3989C24.88 63.5813 24.7596 63.7893 24.6647 64.0228C24.5772 64.249 24.5334 64.4935 24.5334 64.7562V67.4161C24.5334 67.5401 24.4896 67.6459 24.402 67.7335C24.3218 67.8211 24.2196 67.8649 24.0956 67.8649ZM30.4213 67.9743C29.8375 67.9743 29.3267 67.8503 28.8889 67.6022C28.451 67.354 28.108 67.0147 27.8599 66.5842C27.6191 66.1463 27.4987 65.6428 27.4987 65.0736C27.4987 64.4388 27.6228 63.8988 27.8709 63.4536C28.1263 63.0012 28.4547 62.6582 28.856 62.4247C29.2647 62.1839 29.6952 62.0635 30.1476 62.0635C30.4833 62.0635 30.808 62.1255 31.1218 62.2496C31.4356 62.3736 31.7129 62.5561 31.9537 62.7969C32.1945 63.0304 32.3879 63.315 32.5339 63.6507C32.6798 63.979 32.7564 64.3476 32.7637 64.7562C32.7637 64.873 32.7199 64.9715 32.6324 65.0517C32.5448 65.132 32.4426 65.1722 32.3259 65.1722H28.0022L27.8052 64.4169H32.0194L31.8443 64.5701V64.3293C31.8151 64.0301 31.7129 63.7747 31.5378 63.5631C31.3699 63.3442 31.162 63.1763 30.9139 63.0596C30.673 62.9428 30.4176 62.8845 30.1476 62.8845C29.9287 62.8845 29.7098 62.9246 29.4909 63.0049C29.2793 63.0778 29.0859 63.2019 28.9107 63.377C28.7429 63.5449 28.6043 63.7638 28.4948 64.0338C28.3926 64.3038 28.3416 64.6285 28.3416 65.008C28.3416 65.4312 28.4255 65.8034 28.5933 66.1244C28.7684 66.4455 29.0093 66.7009 29.3157 66.8907C29.6222 67.0731 29.9798 67.1643 30.3884 67.1643C30.6439 67.1643 30.8664 67.1315 31.0562 67.0658C31.2459 67.0001 31.4101 66.9199 31.5487 66.825C31.6874 66.7228 31.8041 66.6207 31.899 66.5185C31.9939 66.4528 32.0851 66.42 32.1726 66.42C32.2821 66.42 32.3697 66.4565 32.4353 66.5294C32.5083 66.6024 32.5448 66.69 32.5448 66.7922C32.5448 66.9162 32.4864 67.0257 32.3697 67.1205C32.1653 67.3468 31.888 67.5474 31.5378 67.7226C31.1875 67.8904 30.8153 67.9743 30.4213 67.9743ZM36.4017 62.0635C36.7155 62.0635 37.0074 62.1182 37.2774 62.2277C37.5474 62.3299 37.7809 62.4649 37.9779 62.6327C38.1823 62.8005 38.3391 62.9757 38.4486 63.1581C38.5654 63.3405 38.6237 63.512 38.6237 63.6726L38.4158 63.5412V62.5889C38.4158 62.4649 38.4559 62.3627 38.5362 62.2824C38.6164 62.1949 38.7223 62.1511 38.8536 62.1511C38.9777 62.1511 39.0798 62.1949 39.1601 62.2824C39.2477 62.3627 39.2914 62.4649 39.2914 62.5889V67.3832C39.2914 67.9816 39.1637 68.4778 38.9083 68.8719C38.6602 69.2659 38.3246 69.5615 37.9013 69.7585C37.4781 69.9555 37.0037 70.054 36.4783 70.054C36.2594 70.054 36.0186 70.0249 35.7559 69.9665C35.4932 69.9081 35.2597 69.8351 35.0554 69.7476C34.851 69.6673 34.7197 69.5834 34.6613 69.4958C34.5518 69.4228 34.4825 69.3389 34.4533 69.244C34.4314 69.1565 34.4497 69.0726 34.5081 68.9923C34.5737 68.8901 34.6577 68.839 34.7598 68.839C34.8693 68.839 35.0043 68.8719 35.1648 68.9376C35.2305 68.9595 35.3327 68.9959 35.4713 69.047C35.6173 69.0981 35.7778 69.1419 35.9529 69.1784C36.1354 69.2222 36.3141 69.244 36.4893 69.244C37.1096 69.244 37.5839 69.0799 37.9123 68.7515C38.2479 68.4304 38.4158 68.0035 38.4158 67.4708V66.4528L38.5362 66.5076C38.4924 66.7119 38.4012 66.9016 38.2625 67.0767C38.1312 67.2519 37.967 67.4088 37.77 67.5474C37.5802 67.6788 37.3686 67.7846 37.1351 67.8649C36.9016 67.9378 36.6644 67.9743 36.4236 67.9743C35.9128 67.9743 35.4531 67.8466 35.0444 67.5912C34.6358 67.3358 34.311 66.9855 34.0702 66.5404C33.8367 66.0953 33.72 65.5881 33.72 65.0189C33.72 64.4424 33.8367 63.9316 34.0702 63.4865C34.311 63.0413 34.6321 62.6947 35.0335 62.4466C35.4421 62.1912 35.8982 62.0635 36.4017 62.0635ZM36.5112 62.8735C36.139 62.8735 35.8033 62.9684 35.5041 63.1581C35.2123 63.3405 34.9824 63.5923 34.8146 63.9134C34.654 64.2345 34.5737 64.603 34.5737 65.0189C34.5737 65.4203 34.654 65.7851 34.8146 66.1135C34.9824 66.4346 35.2123 66.69 35.5041 66.8797C35.8033 67.0695 36.139 67.1643 36.5112 67.1643C36.8906 67.1643 37.2263 67.0731 37.5182 66.8907C37.8101 66.7009 38.04 66.4455 38.2078 66.1244C38.3756 65.8034 38.4596 65.4349 38.4596 65.0189C38.4596 64.5957 38.3756 64.2235 38.2078 63.9024C38.04 63.5813 37.8101 63.3296 37.5182 63.1472C37.2263 62.9647 36.8906 62.8735 36.5112 62.8735ZM41.3482 67.8649C41.2241 67.8649 41.1183 67.8211 41.0308 67.7335C40.9505 67.6459 40.9103 67.5401 40.9103 67.4161V62.6436C40.9103 62.5196 40.9505 62.4174 41.0308 62.3372C41.1183 62.2496 41.2241 62.2058 41.3482 62.2058C41.4795 62.2058 41.5853 62.2496 41.6656 62.3372C41.7459 62.4174 41.786 62.5196 41.786 62.6436V64.0885L41.6547 63.8586C41.6985 63.6324 41.7751 63.4135 41.8845 63.2019C42.0013 62.983 42.1472 62.7896 42.3224 62.6217C42.4975 62.4466 42.6982 62.3116 42.9244 62.2167C43.1506 62.1146 43.3987 62.0635 43.6687 62.0635C43.8293 62.0635 43.9752 62.1036 44.1066 62.1839C44.2452 62.2569 44.3145 62.3627 44.3145 62.5013C44.3145 62.6546 44.2744 62.7677 44.1941 62.8407C44.1139 62.9136 44.0226 62.9501 43.9205 62.9501C43.8256 62.9501 43.7344 62.9319 43.6468 62.8954C43.5593 62.8516 43.4498 62.8297 43.3185 62.8297C43.136 62.8297 42.9536 62.8808 42.7712 62.983C42.596 63.0778 42.4318 63.2165 42.2786 63.3989C42.1326 63.5813 42.0122 63.7893 41.9174 64.0228C41.8298 64.249 41.786 64.4935 41.786 64.7562V67.4161C41.786 67.5401 41.7422 67.6459 41.6547 67.7335C41.5744 67.8211 41.4722 67.8649 41.3482 67.8649ZM47.6739 67.9743C47.0901 67.9743 46.5793 67.8503 46.1415 67.6022C45.7037 67.354 45.3607 67.0147 45.1126 66.5842C44.8718 66.1463 44.7514 65.6428 44.7514 65.0736C44.7514 64.4388 44.8754 63.8988 45.1235 63.4536C45.3789 63.0012 45.7073 62.6582 46.1087 62.4247C46.5173 62.1839 46.9478 62.0635 47.4003 62.0635C47.736 62.0635 48.0607 62.1255 48.3745 62.2496C48.6882 62.3736 48.9655 62.5561 49.2064 62.7969C49.4472 63.0304 49.6405 63.315 49.7865 63.6507C49.9324 63.979 50.0091 64.3476 50.0164 64.7562C50.0164 64.873 49.9726 64.9715 49.885 65.0517C49.7974 65.132 49.6953 65.1722 49.5785 65.1722H45.2549L45.0578 64.4169H49.272L49.0969 64.5701V64.3293C49.0677 64.0301 48.9655 63.7747 48.7904 63.5631C48.6226 63.3442 48.4146 63.1763 48.1665 63.0596C47.9257 62.9428 47.6703 62.8845 47.4003 62.8845C47.1814 62.8845 46.9624 62.9246 46.7435 63.0049C46.5319 63.0778 46.3385 63.2019 46.1634 63.377C45.9955 63.5449 45.8569 63.7638 45.7474 64.0338C45.6453 64.3038 45.5942 64.6285 45.5942 65.008C45.5942 65.4312 45.6781 65.8034 45.8459 66.1244C46.0211 66.4455 46.2619 66.7009 46.5684 66.8907C46.8749 67.0731 47.2324 67.1643 47.6411 67.1643C47.8965 67.1643 48.1191 67.1315 48.3088 67.0658C48.4985 67.0001 48.6627 66.9199 48.8014 66.825C48.94 66.7228 49.0568 66.6207 49.1516 66.5185C49.2465 66.4528 49.3377 66.42 49.4253 66.42C49.5347 66.42 49.6223 66.4565 49.688 66.5294C49.7609 66.6024 49.7974 66.69 49.7974 66.7922C49.7974 66.9162 49.7391 67.0257 49.6223 67.1205C49.418 67.3468 49.1407 67.5474 48.7904 67.7226C48.4401 67.8904 48.068 67.9743 47.6739 67.9743ZM51.0151 66.9673C50.9495 66.8724 50.9203 66.7739 50.9276 66.6717C50.9349 66.5623 50.9969 66.4674 51.1137 66.3872C51.1866 66.3361 51.2705 66.3142 51.3654 66.3215C51.4676 66.3288 51.5588 66.3762 51.6391 66.4638C51.8434 66.7046 52.0769 66.898 52.3396 67.0439C52.6023 67.1826 52.9234 67.2519 53.3028 67.2519C53.478 67.2446 53.6531 67.2154 53.8282 67.1643C54.0034 67.1132 54.1493 67.0257 54.2661 66.9016C54.3901 66.7703 54.4522 66.5988 54.4522 66.3872C54.4522 66.1828 54.3901 66.0223 54.2661 65.9055C54.142 65.7815 53.9815 65.683 53.7845 65.61C53.5874 65.5297 53.3722 65.4604 53.1386 65.402C52.8978 65.3363 52.6607 65.2634 52.4272 65.1831C52.1936 65.0955 51.982 64.9897 51.7923 64.8657C51.6099 64.7343 51.4603 64.5738 51.3435 64.384C51.2341 64.187 51.1793 63.9499 51.1793 63.6726C51.1793 63.3442 51.2669 63.0596 51.442 62.8188C51.6245 62.578 51.8653 62.3919 52.1645 62.2605C52.4709 62.1292 52.803 62.0635 53.1605 62.0635C53.3649 62.0635 53.5765 62.089 53.7954 62.1401C54.0216 62.1839 54.2405 62.2642 54.4522 62.3809C54.6638 62.4904 54.8499 62.6436 55.0104 62.8407C55.0761 62.9136 55.1126 63.0049 55.1199 63.1143C55.1272 63.2238 55.0797 63.3223 54.9776 63.4099C54.8973 63.4682 54.8061 63.4938 54.7039 63.4865C54.6091 63.4792 54.5288 63.4427 54.4631 63.377C54.3099 63.1946 54.1165 63.0559 53.883 62.9611C53.6568 62.8589 53.405 62.8078 53.1277 62.8078C52.9526 62.8078 52.7811 62.8334 52.6132 62.8845C52.4454 62.9355 52.3031 63.0231 52.1863 63.1472C52.0769 63.2639 52.0222 63.4281 52.0222 63.6397C52.0295 63.8367 52.0951 63.9973 52.2192 64.1213C52.3432 64.2454 52.5111 64.3476 52.7227 64.4278C52.9343 64.5008 53.1678 64.5738 53.4232 64.6467C53.6568 64.7051 53.8793 64.7745 54.0909 64.8547C54.3099 64.9277 54.5069 65.0262 54.682 65.1503C54.8572 65.2743 54.9958 65.4349 55.098 65.6319C55.2001 65.8216 55.2512 66.0624 55.2512 66.3543C55.2512 66.69 55.1564 66.9819 54.9666 67.23C54.7769 67.4708 54.5251 67.6569 54.2113 67.7882C53.9049 67.9123 53.5728 67.9743 53.2153 67.9743C52.8139 67.9743 52.4162 67.8977 52.0222 67.7445C51.6354 67.5912 51.2997 67.3322 51.0151 66.9673ZM61.2654 62.1511C61.3895 62.1511 61.4916 62.1949 61.5719 62.2824C61.6595 62.3627 61.7033 62.4649 61.7033 62.5889V67.4161C61.7033 67.5401 61.6595 67.6459 61.5719 67.7335C61.4916 67.8211 61.3895 67.8649 61.2654 67.8649C61.1341 67.8649 61.0283 67.8211 60.948 67.7335C60.8677 67.6459 60.8276 67.5401 60.8276 67.4161V66.3762L61.0356 66.3543C61.0356 66.5149 60.9808 66.69 60.8714 66.8797C60.7619 67.0695 60.6123 67.2482 60.4226 67.4161C60.2329 67.5766 60.0066 67.7116 59.7439 67.8211C59.4885 67.9232 59.2112 67.9743 58.9121 67.9743C58.4158 67.9743 57.9707 67.8466 57.5766 67.5912C57.1826 67.3285 56.8688 66.9746 56.6353 66.5294C56.4091 66.0843 56.296 65.5772 56.296 65.008C56.296 64.4315 56.4091 63.9243 56.6353 63.4865C56.8688 63.0413 57.1826 62.6947 57.5766 62.4466C57.9707 62.1912 58.4085 62.0635 58.8902 62.0635C59.2039 62.0635 59.4958 62.1146 59.7658 62.2167C60.0358 62.3189 60.2693 62.4576 60.4664 62.6327C60.6707 62.8078 60.8276 63.0012 60.9371 63.2128C61.0538 63.4245 61.1122 63.6361 61.1122 63.8477L60.8276 63.782V62.5889C60.8276 62.4649 60.8677 62.3627 60.948 62.2824C61.0283 62.1949 61.1341 62.1511 61.2654 62.1511ZM59.0106 67.1643C59.3754 67.1643 59.6965 67.0695 59.9738 66.8797C60.2584 66.69 60.4773 66.4346 60.6306 66.1135C60.7911 65.7851 60.8714 65.4166 60.8714 65.008C60.8714 64.6066 60.7911 64.2454 60.6306 63.9243C60.4773 63.5959 60.2584 63.3405 59.9738 63.1581C59.6965 62.9684 59.3754 62.8735 59.0106 62.8735C58.653 62.8735 58.3319 62.9647 58.0473 63.1472C57.77 63.3296 57.5511 63.5813 57.3906 63.9024C57.23 64.2235 57.1498 64.592 57.1498 65.008C57.1498 65.4166 57.2264 65.7851 57.3796 66.1135C57.5402 66.4346 57.7591 66.69 58.0364 66.8797C58.321 67.0695 58.6457 67.1643 59.0106 67.1643ZM63.7639 67.8649C63.6398 67.8649 63.534 67.8211 63.4464 67.7335C63.3662 67.6459 63.326 67.5401 63.326 67.4161V62.6436C63.326 62.5196 63.3662 62.4174 63.4464 62.3372C63.534 62.2496 63.6398 62.2058 63.7639 62.2058C63.8952 62.2058 64.001 62.2496 64.0813 62.3372C64.1616 62.4174 64.2017 62.5196 64.2017 62.6436V64.0885L64.0704 63.8586C64.1141 63.6324 64.1908 63.4135 64.3002 63.2019C64.417 62.983 64.5629 62.7896 64.7381 62.6217C64.9132 62.4466 65.1139 62.3116 65.3401 62.2167C65.5663 62.1146 65.8144 62.0635 66.0844 62.0635C66.245 62.0635 66.3909 62.1036 66.5223 62.1839C66.6609 62.2569 66.7302 62.3627 66.7302 62.5013C66.7302 62.6546 66.6901 62.7677 66.6098 62.8407C66.5296 62.9136 66.4383 62.9501 66.3362 62.9501C66.2413 62.9501 66.1501 62.9319 66.0625 62.8954C65.975 62.8516 65.8655 62.8297 65.7341 62.8297C65.5517 62.8297 65.3693 62.8808 65.1869 62.983C65.0117 63.0778 64.8475 63.2165 64.6943 63.3989C64.5483 63.5813 64.4279 63.7893 64.3331 64.0228C64.2455 64.249 64.2017 64.4935 64.2017 64.7562V67.4161C64.2017 67.5401 64.1579 67.6459 64.0704 67.7335C63.9901 67.8211 63.8879 67.8649 63.7639 67.8649Z" fill="#969696"/>
</svg>
