<svg width="150" height="150" viewBox="0 0 150 150" fill="none" xmlns="http://www.w3.org/2000/svg">
<g filter="url(#filter0_d_251454_69)">
<mask id="mask0_251454_69" style="mask-type:luminance" maskUnits="userSpaceOnUse" x="44" y="19" width="65" height="66">
<path d="M108.261 19.5652H44.3478V84.7826H108.261V19.5652Z" fill="white"/>
</mask>
<g mask="url(#mask0_251454_69)">
<path d="M75.8713 83.5148C83.9322 83.4365 91.9109 80.0974 97.65 74.4274C104.464 67.6931 107.974 57.7278 106.75 48.2152C104.652 31.9122 91.2509 20.85 75.6705 20.85C63.8335 20.85 52.3278 28.2548 47.2826 38.9922C43.4191 47.2135 43.4113 57.137 47.2826 65.3726C52.2926 76.0344 63.6091 83.4 75.4696 83.5148C75.6039 83.5148 75.737 83.5148 75.8713 83.5148ZM75.5022 78.2922C63.4631 78.1761 52.2313 68.8657 49.9983 56.9296C48.4239 48.5139 51.3952 39.4083 57.587 33.4317C64.817 26.4535 76.1778 24.1161 85.6252 28.0709C94.0787 31.6109 100.405 39.8283 101.571 48.8817C102.57 56.6413 99.7852 64.7752 94.3122 70.3774C89.5122 75.2909 82.7805 78.2257 75.8387 78.2922C75.7265 78.2922 75.6144 78.2922 75.5022 78.2922Z" fill="#969696"/>
<path d="M73.5055 66.66V43.2372H77.1043V66.66H73.5055ZM75.3355 39.3334C74.634 39.3334 74.0291 39.0946 73.5208 38.6168C73.0226 38.1389 72.7736 37.5646 72.7736 36.8936C72.7736 36.2227 73.0226 35.6482 73.5208 35.1704C74.0291 34.6927 74.634 34.4537 75.3355 34.4537C76.037 34.4537 76.6367 34.6927 77.1348 35.1704C77.6431 35.6482 77.8974 36.2227 77.8974 36.8936C77.8974 37.5646 77.6431 38.1389 77.1348 38.6168C76.6367 39.0946 76.037 39.3334 75.3355 39.3334Z" fill="#969696"/>
</g>
<path d="M23.5221 116.589C23.5221 116.811 23.4373 117 23.2677 117.157C23.1112 117.313 22.9221 117.391 22.7003 117.391C22.4525 117.391 22.2569 117.313 22.1134 117.157C21.9699 117 21.8982 116.811 21.8982 116.589V104.498C21.8982 104.263 21.9764 104.074 22.1329 103.93C22.2895 103.774 22.4851 103.696 22.7199 103.696C22.9416 103.696 23.1308 103.774 23.2873 103.93C23.4438 104.074 23.5221 104.263 23.5221 104.498V116.589ZM31.7159 107.022C32.6028 107.022 33.3006 107.204 33.8093 107.57C34.318 107.935 34.6767 108.424 34.8854 109.037C35.1072 109.65 35.218 110.335 35.218 111.091V116.589C35.218 116.811 35.1398 117 34.9832 117.157C34.8398 117.313 34.6572 117.391 34.4354 117.391C34.2137 117.391 34.0246 117.313 33.868 117.157C33.7246 117 33.6528 116.811 33.6528 116.589V111.13C33.6528 110.635 33.5746 110.191 33.418 109.8C33.2746 109.396 33.0267 109.076 32.6746 108.841C32.3354 108.593 31.8659 108.47 31.2659 108.47C30.718 108.47 30.2159 108.593 29.7593 108.841C29.3028 109.076 28.9376 109.396 28.6637 109.8C28.3898 110.191 28.2528 110.635 28.2528 111.13V116.589C28.2528 116.811 28.1746 117 28.018 117.157C27.8746 117.313 27.6919 117.391 27.4702 117.391C27.2485 117.391 27.0593 117.313 26.9028 117.157C26.7593 117 26.6876 116.811 26.6876 116.589V108.059C26.6876 107.837 26.7593 107.654 26.9028 107.511C27.0593 107.354 27.2485 107.276 27.4702 107.276C27.705 107.276 27.8941 107.354 28.0376 107.511C28.1811 107.654 28.2528 107.837 28.2528 108.059V109.448L27.8615 109.878C27.9267 109.539 28.0767 109.2 28.3115 108.861C28.5463 108.509 28.8398 108.196 29.1919 107.922C29.5441 107.648 29.9354 107.433 30.3659 107.276C30.7963 107.107 31.2463 107.022 31.7159 107.022ZM42.3394 102.952C42.5611 102.952 42.7894 102.978 43.0242 103.03C43.272 103.083 43.4807 103.174 43.6502 103.304C43.8329 103.435 43.9242 103.611 43.9242 103.833C43.9242 104.041 43.8589 104.217 43.7285 104.361C43.5981 104.491 43.4416 104.557 43.2589 104.557C43.1416 104.557 42.9785 104.524 42.7698 104.459C42.5611 104.38 42.3459 104.341 42.1242 104.341C41.8242 104.341 41.5763 104.407 41.3807 104.537C41.1981 104.667 41.0611 104.843 40.9698 105.065C40.8916 105.274 40.8524 105.509 40.8524 105.77V116.589C40.8524 116.811 40.7742 117 40.6176 117.157C40.4742 117.313 40.2916 117.391 40.0698 117.391C39.835 117.391 39.6459 117.313 39.5024 117.157C39.3589 117 39.2872 116.811 39.2872 116.589V105.789C39.2872 104.915 39.5546 104.224 40.0894 103.715C40.6372 103.207 41.3872 102.952 42.3394 102.952ZM42.8872 107.433C43.0959 107.433 43.272 107.504 43.4155 107.648C43.5589 107.778 43.6307 107.948 43.6307 108.157C43.6307 108.365 43.5589 108.541 43.4155 108.685C43.272 108.815 43.0959 108.88 42.8872 108.88H37.9763C37.7676 108.88 37.5916 108.809 37.4481 108.665C37.3046 108.522 37.2329 108.352 37.2329 108.157C37.2329 107.935 37.3046 107.759 37.4481 107.628C37.5916 107.498 37.7676 107.433 37.9763 107.433H42.8872ZM54.5791 112.304C54.5791 113.322 54.3509 114.228 53.8943 115.024C53.4509 115.82 52.8443 116.446 52.0748 116.902C51.3182 117.359 50.4639 117.587 49.5117 117.587C48.5596 117.587 47.6987 117.359 46.9291 116.902C46.1596 116.446 45.5465 115.82 45.09 115.024C44.6465 114.228 44.4248 113.322 44.4248 112.304C44.4248 111.287 44.6465 110.38 45.09 109.585C45.5465 108.789 46.1596 108.163 46.9291 107.707C47.6987 107.25 48.5596 107.022 49.5117 107.022C50.4639 107.022 51.3182 107.25 52.0748 107.707C52.8443 108.163 53.4509 108.789 53.8943 109.585C54.3509 110.38 54.5791 111.287 54.5791 112.304ZM53.0139 112.304C53.0139 111.548 52.8574 110.883 52.5443 110.309C52.2443 109.735 51.8269 109.285 51.2922 108.959C50.7704 108.633 50.1769 108.47 49.5117 108.47C48.8465 108.47 48.2465 108.633 47.7117 108.959C47.19 109.285 46.7726 109.735 46.4596 110.309C46.1465 110.883 45.99 111.548 45.99 112.304C45.99 113.048 46.1465 113.707 46.4596 114.28C46.7726 114.854 47.19 115.311 47.7117 115.65C48.2465 115.976 48.8465 116.139 49.5117 116.139C50.1769 116.139 50.7704 115.976 51.2922 115.65C51.8269 115.311 52.2443 114.854 52.5443 114.28C52.8574 113.707 53.0139 113.048 53.0139 112.304ZM57.7159 117.391C57.4942 117.391 57.3051 117.313 57.1486 117.157C57.0051 117 56.9333 116.811 56.9333 116.589V108.059C56.9333 107.837 57.0051 107.654 57.1486 107.511C57.3051 107.354 57.4942 107.276 57.7159 107.276C57.9507 107.276 58.1399 107.354 58.2833 107.511C58.4268 107.654 58.4986 107.837 58.4986 108.059V110.641L58.2638 110.23C58.342 109.826 58.479 109.435 58.6746 109.057C58.8833 108.665 59.1442 108.32 59.4572 108.02C59.7703 107.707 60.129 107.465 60.5333 107.296C60.9377 107.113 61.3812 107.022 61.8638 107.022C62.1507 107.022 62.4116 107.093 62.6464 107.237C62.8942 107.367 63.0181 107.557 63.0181 107.804C63.0181 108.078 62.9464 108.28 62.8029 108.411C62.6594 108.541 62.4964 108.607 62.3138 108.607C62.1442 108.607 61.9812 108.574 61.8246 108.509C61.6681 108.43 61.4725 108.391 61.2377 108.391C60.9116 108.391 60.5855 108.483 60.2594 108.665C59.9464 108.835 59.6529 109.083 59.379 109.409C59.1181 109.735 58.9029 110.107 58.7333 110.524C58.5768 110.928 58.4986 111.365 58.4986 111.835V116.589C58.4986 116.811 58.4203 117 58.2638 117.157C58.1203 117.313 57.9377 117.391 57.7159 117.391ZM69.6188 107.12C70.5057 107.12 71.2231 107.348 71.7709 107.804C72.3318 108.248 72.7035 108.88 72.8862 109.702H72.5927L72.7296 109.35C72.8862 108.985 73.1536 108.633 73.5318 108.293C73.9101 107.954 74.347 107.674 74.8427 107.452C75.3383 107.23 75.8535 107.12 76.3883 107.12C77.2492 107.12 77.9275 107.309 78.4231 107.687C78.9188 108.052 79.2709 108.548 79.4796 109.174C79.7014 109.787 79.8122 110.478 79.8122 111.248V116.589C79.8122 116.811 79.734 117 79.5775 117.157C79.434 117.313 79.2514 117.391 79.0296 117.391C78.7949 117.391 78.6057 117.313 78.4622 117.157C78.3188 117 78.247 116.811 78.247 116.589V111.287C78.247 110.778 78.1688 110.322 78.0122 109.917C77.8688 109.5 77.6275 109.174 77.2883 108.939C76.9622 108.691 76.5122 108.567 75.9383 108.567C75.4035 108.567 74.9144 108.691 74.4709 108.939C74.0275 109.174 73.6753 109.5 73.4144 109.917C73.1536 110.322 73.0231 110.778 73.0231 111.287V116.589C73.0231 116.811 72.9514 117 72.8079 117.157C72.6644 117.313 72.4753 117.391 72.2405 117.391C72.0188 117.391 71.8296 117.313 71.6731 117.157C71.5296 117 71.4579 116.811 71.4579 116.589V111.228C71.4579 110.733 71.3862 110.289 71.2427 109.898C71.1122 109.493 70.884 109.174 70.5579 108.939C70.2318 108.691 69.7818 108.567 69.2079 108.567C68.6862 108.567 68.2101 108.691 67.7796 108.939C67.3492 109.174 67.0035 109.493 66.7427 109.898C66.4818 110.289 66.3514 110.733 66.3514 111.228V116.589C66.3514 116.811 66.2731 117 66.1166 117.157C65.9731 117.313 65.7905 117.391 65.5688 117.391C65.347 117.391 65.1579 117.313 65.0014 117.157C64.8579 117 64.7862 116.811 64.7862 116.589V108.059C64.7862 107.837 64.8579 107.654 65.0014 107.511C65.1579 107.354 65.347 107.276 65.5688 107.276C65.8036 107.276 65.9927 107.354 66.1362 107.511C66.2796 107.654 66.3514 107.837 66.3514 108.059V109.546L65.9209 110.015C65.9731 109.676 66.1036 109.337 66.3122 108.998C66.534 108.659 66.8144 108.346 67.1536 108.059C67.4927 107.772 67.8709 107.543 68.2883 107.374C68.7057 107.204 69.1492 107.12 69.6188 107.12ZM91.0431 107.178C91.2648 107.178 91.4474 107.257 91.5909 107.413C91.7474 107.557 91.8257 107.739 91.8257 107.961V116.589C91.8257 116.811 91.7474 117 91.5909 117.157C91.4474 117.313 91.2648 117.391 91.0431 117.391C90.8083 117.391 90.6192 117.313 90.4757 117.157C90.3322 117 90.2605 116.811 90.2605 116.589V114.73L90.6322 114.691C90.6322 114.978 90.5344 115.291 90.3387 115.63C90.1431 115.97 89.8757 116.289 89.5365 116.589C89.1974 116.876 88.7931 117.117 88.3235 117.313C87.867 117.496 87.3713 117.587 86.8365 117.587C85.9496 117.587 85.1539 117.359 84.4496 116.902C83.7452 116.433 83.1844 115.8 82.767 115.004C82.3626 114.209 82.1605 113.302 82.1605 112.285C82.1605 111.254 82.3626 110.348 82.767 109.565C83.1844 108.77 83.7452 108.15 84.4496 107.707C85.1539 107.25 85.9366 107.022 86.7974 107.022C87.3583 107.022 87.88 107.113 88.3626 107.296C88.8452 107.478 89.2626 107.726 89.6148 108.039C89.98 108.352 90.2605 108.698 90.4561 109.076C90.6648 109.454 90.7692 109.833 90.7692 110.211L90.2605 110.093V107.961C90.2605 107.739 90.3322 107.557 90.4757 107.413C90.6192 107.257 90.8083 107.178 91.0431 107.178ZM87.0126 116.139C87.6648 116.139 88.2387 115.97 88.7344 115.63C89.2431 115.291 89.6344 114.835 89.9083 114.261C90.1952 113.674 90.3387 113.015 90.3387 112.285C90.3387 111.567 90.1952 110.922 89.9083 110.348C89.6344 109.761 89.2431 109.304 88.7344 108.978C88.2387 108.639 87.6648 108.47 87.0126 108.47C86.3735 108.47 85.7996 108.633 85.2909 108.959C84.7952 109.285 84.4039 109.735 84.117 110.309C83.83 110.883 83.6865 111.541 83.6865 112.285C83.6865 113.015 83.8235 113.674 84.0974 114.261C84.3844 114.835 84.7757 115.291 85.2713 115.63C85.78 115.97 86.3605 116.139 87.0126 116.139ZM99.2264 107.022C99.8916 107.022 100.492 107.093 101.026 107.237C101.561 107.38 101.985 107.576 102.298 107.824C102.611 108.072 102.768 108.352 102.768 108.665C102.768 108.835 102.709 108.998 102.592 109.154C102.474 109.311 102.318 109.389 102.122 109.389C101.939 109.389 101.789 109.357 101.672 109.291C101.568 109.226 101.463 109.141 101.359 109.037C101.268 108.933 101.137 108.841 100.968 108.763C100.811 108.672 100.583 108.6 100.283 108.548C99.9828 108.496 99.6828 108.47 99.3828 108.47C98.6654 108.47 98.0328 108.639 97.485 108.978C96.9502 109.317 96.5263 109.774 96.2132 110.348C95.9002 110.922 95.7437 111.574 95.7437 112.304C95.7437 113.035 95.8937 113.687 96.1937 114.261C96.4937 114.835 96.9111 115.291 97.446 115.63C97.9806 115.97 98.6003 116.139 99.3047 116.139C99.7612 116.139 100.126 116.1 100.4 116.022C100.674 115.943 100.903 115.852 101.085 115.748C101.32 115.617 101.496 115.487 101.613 115.357C101.744 115.226 101.913 115.161 102.122 115.161C102.344 115.161 102.513 115.233 102.631 115.376C102.761 115.52 102.826 115.696 102.826 115.904C102.826 116.139 102.663 116.387 102.337 116.648C102.011 116.909 101.568 117.13 101.007 117.313C100.459 117.496 99.8329 117.587 99.1286 117.587C98.1372 117.587 97.2698 117.359 96.5263 116.902C95.7828 116.433 95.2024 115.8 94.785 115.004C94.3806 114.196 94.1785 113.296 94.1785 112.304C94.1785 111.313 94.3872 110.42 94.8046 109.624C95.235 108.828 95.8285 108.196 96.5851 107.726C97.3416 107.257 98.2221 107.022 99.2264 107.022ZM106.379 116.589C106.379 116.811 106.3 117 106.144 117.157C106 117.313 105.818 117.391 105.596 117.391C105.361 117.391 105.172 117.313 105.029 117.157C104.885 117 104.813 116.811 104.813 116.589V107.902C104.813 107.68 104.885 107.498 105.029 107.354C105.185 107.198 105.374 107.12 105.596 107.12C105.818 107.12 106 107.198 106.144 107.354C106.3 107.498 106.379 107.68 106.379 107.902V116.589ZM105.596 105.809C105.27 105.809 105.029 105.743 104.872 105.613C104.716 105.483 104.637 105.28 104.637 105.007V104.733C104.637 104.459 104.722 104.257 104.892 104.126C105.061 103.996 105.302 103.93 105.616 103.93C105.929 103.93 106.163 103.996 106.32 104.126C106.476 104.257 106.555 104.459 106.555 104.733V105.007C106.555 105.28 106.47 105.483 106.3 105.613C106.144 105.743 105.909 105.809 105.596 105.809ZM118.797 112.304C118.797 113.322 118.568 114.228 118.112 115.024C117.668 115.82 117.062 116.446 116.292 116.902C115.536 117.359 114.681 117.587 113.729 117.587C112.777 117.587 111.916 117.359 111.147 116.902C110.377 116.446 109.764 115.82 109.307 115.024C108.864 114.228 108.642 113.322 108.642 112.304C108.642 111.287 108.864 110.38 109.307 109.585C109.764 108.789 110.377 108.163 111.147 107.707C111.916 107.25 112.777 107.022 113.729 107.022C114.681 107.022 115.536 107.25 116.292 107.707C117.062 108.163 117.668 108.789 118.112 109.585C118.568 110.38 118.797 111.287 118.797 112.304ZM117.231 112.304C117.231 111.548 117.075 110.883 116.762 110.309C116.462 109.735 116.044 109.285 115.51 108.959C114.988 108.633 114.394 108.47 113.729 108.47C113.064 108.47 112.464 108.633 111.929 108.959C111.407 109.285 110.99 109.735 110.677 110.309C110.364 110.883 110.207 111.548 110.207 112.304C110.207 113.048 110.364 113.707 110.677 114.28C110.99 114.854 111.407 115.311 111.929 115.65C112.464 115.976 113.064 116.139 113.729 116.139C114.394 116.139 114.988 115.976 115.51 115.65C116.044 115.311 116.462 114.854 116.762 114.28C117.075 113.707 117.231 113.048 117.231 112.304ZM113.612 106.376C113.521 106.376 113.423 106.337 113.318 106.259C113.227 106.18 113.181 106.076 113.181 105.946C113.181 105.854 113.22 105.75 113.299 105.633L114.473 103.715C114.551 103.585 114.655 103.461 114.786 103.343C114.916 103.226 115.073 103.167 115.255 103.167C115.516 103.167 115.712 103.239 115.842 103.383C115.973 103.513 116.038 103.689 116.038 103.911C116.025 104.015 115.999 104.113 115.96 104.204C115.921 104.296 115.862 104.393 115.784 104.498L114.297 106.063C114.205 106.167 114.094 106.246 113.964 106.298C113.847 106.35 113.729 106.376 113.612 106.376ZM126.179 107.022C127.066 107.022 127.764 107.204 128.273 107.57C128.781 107.935 129.14 108.424 129.349 109.037C129.57 109.65 129.681 110.335 129.681 111.091V116.589C129.681 116.811 129.603 117 129.446 117.157C129.303 117.313 129.12 117.391 128.899 117.391C128.677 117.391 128.488 117.313 128.331 117.157C128.188 117 128.116 116.811 128.116 116.589V111.13C128.116 110.635 128.038 110.191 127.881 109.8C127.738 109.396 127.49 109.076 127.138 108.841C126.799 108.593 126.329 108.47 125.729 108.47C125.181 108.47 124.679 108.593 124.223 108.841C123.766 109.076 123.401 109.396 123.127 109.8C122.853 110.191 122.716 110.635 122.716 111.13V116.589C122.716 116.811 122.638 117 122.481 117.157C122.338 117.313 122.155 117.391 121.933 117.391C121.712 117.391 121.523 117.313 121.366 117.157C121.223 117 121.151 116.811 121.151 116.589V108.059C121.151 107.837 121.223 107.654 121.366 107.511C121.523 107.354 121.712 107.276 121.933 107.276C122.168 107.276 122.357 107.354 122.501 107.511C122.644 107.654 122.716 107.837 122.716 108.059V109.448L122.325 109.878C122.39 109.539 122.54 109.2 122.775 108.861C123.01 108.509 123.303 108.196 123.655 107.922C124.007 107.648 124.399 107.433 124.829 107.276C125.26 107.107 125.71 107.022 126.179 107.022Z" fill="#969696"/>
</g>
<defs>
<filter id="filter0_d_251454_69" x="-4" y="0" width="158" height="158" filterUnits="userSpaceOnUse" color-interpolation-filters="sRGB">
<feFlood flood-opacity="0" result="BackgroundImageFix"/>
<feColorMatrix in="SourceAlpha" type="matrix" values="0 0 0 0 0 0 0 0 0 0 0 0 0 0 0 0 0 0 127 0" result="hardAlpha"/>
<feOffset dy="4"/>
<feGaussianBlur stdDeviation="2"/>
<feComposite in2="hardAlpha" operator="out"/>
<feColorMatrix type="matrix" values="0 0 0 0 0 0 0 0 0 0 0 0 0 0 0 0 0 0 0.25 0"/>
<feBlend mode="normal" in2="BackgroundImageFix" result="effect1_dropShadow_251454_69"/>
<feBlend mode="normal" in="SourceGraphic" in2="effect1_dropShadow_251454_69" result="shape"/>
</filter>
</defs>
</svg>
