<svg width="115" height="115" viewBox="0 0 115 115" fill="none" xmlns="http://www.w3.org/2000/svg">
<g clip-path="url(#clip0_251445_68)">
<path d="M58.168 64.028C64.348 63.968 70.465 61.408 74.865 57.061C80.089 51.898 82.78 44.258 81.842 36.965C80.233 24.466 69.959 15.985 58.014 15.985C48.939 15.985 40.118 21.662 36.25 29.894C33.288 36.197 33.282 43.805 36.25 50.119C40.091 58.293 48.767 63.94 57.86 64.028C57.963 64.028 58.065 64.028 58.168 64.028ZM57.885 60.024C48.655 59.935 40.044 52.797 38.332 43.646C37.125 37.194 39.403 30.213 44.15 25.631C49.693 20.281 58.403 18.489 65.646 21.521C72.127 24.235 76.977 30.535 77.871 37.476C78.637 43.425 76.502 49.661 72.306 53.956C68.626 57.723 63.465 59.973 58.143 60.024C58.057 60.024 57.971 60.024 57.885 60.024Z" fill="#969696"/>
<path d="M56.3542 51.106V33.1485H59.1133V51.106H56.3542ZM57.7572 30.1556C57.2194 30.1556 56.7556 29.9725 56.3659 29.6062C55.984 29.2398 55.7931 28.7995 55.7931 28.2851C55.7931 27.7707 55.984 27.3303 56.3659 26.964C56.7556 26.5977 57.2194 26.4145 57.7572 26.4145C58.295 26.4145 58.7548 26.5977 59.1367 26.964C59.5264 27.3303 59.7213 27.7707 59.7213 28.2851C59.7213 28.7995 59.5264 29.2398 59.1367 29.6062C58.7548 29.9725 58.295 30.1556 57.7572 30.1556Z" fill="#969696"/>
</g>
<path d="M18.0336 89.385C18.0336 89.555 17.9686 89.7 17.8386 89.82C17.7186 89.94 17.5736 90 17.4036 90C17.2136 90 17.0636 89.94 16.9536 89.82C16.8436 89.7 16.7886 89.555 16.7886 89.385V80.115C16.7886 79.935 16.8486 79.79 16.9686 79.68C17.0886 79.56 17.2386 79.5 17.4186 79.5C17.5886 79.5 17.7336 79.56 17.8536 79.68C17.9736 79.79 18.0336 79.935 18.0336 80.115V89.385ZM24.3155 82.05C24.9955 82.05 25.5305 82.19 25.9205 82.47C26.3105 82.75 26.5855 83.125 26.7455 83.595C26.9155 84.065 27.0005 84.59 27.0005 85.17V89.385C27.0005 89.555 26.9405 89.7 26.8205 89.82C26.7105 89.94 26.5705 90 26.4005 90C26.2305 90 26.0855 89.94 25.9655 89.82C25.8555 89.7 25.8005 89.555 25.8005 89.385V85.2C25.8005 84.82 25.7405 84.48 25.6205 84.18C25.5105 83.87 25.3205 83.625 25.0505 83.445C24.7905 83.255 24.4305 83.16 23.9705 83.16C23.5505 83.16 23.1655 83.255 22.8155 83.445C22.4655 83.625 22.1855 83.87 21.9755 84.18C21.7655 84.48 21.6605 84.82 21.6605 85.2V89.385C21.6605 89.555 21.6005 89.7 21.4805 89.82C21.3705 89.94 21.2305 90 21.0605 90C20.8905 90 20.7455 89.94 20.6255 89.82C20.5155 89.7 20.4605 89.555 20.4605 89.385V82.845C20.4605 82.675 20.5155 82.535 20.6255 82.425C20.7455 82.305 20.8905 82.245 21.0605 82.245C21.2405 82.245 21.3855 82.305 21.4955 82.425C21.6055 82.535 21.6605 82.675 21.6605 82.845V83.91L21.3605 84.24C21.4105 83.98 21.5255 83.72 21.7055 83.46C21.8855 83.19 22.1105 82.95 22.3805 82.74C22.6505 82.53 22.9505 82.365 23.2805 82.245C23.6105 82.115 23.9555 82.05 24.3155 82.05ZM32.4602 78.93C32.6302 78.93 32.8052 78.95 32.9852 78.99C33.1752 79.03 33.3352 79.1 33.4652 79.2C33.6052 79.3 33.6752 79.435 33.6752 79.605C33.6752 79.765 33.6252 79.9 33.5252 80.01C33.4252 80.11 33.3052 80.16 33.1652 80.16C33.0752 80.16 32.9502 80.135 32.7902 80.085C32.6302 80.025 32.4652 79.995 32.2952 79.995C32.0652 79.995 31.8752 80.045 31.7252 80.145C31.5852 80.245 31.4802 80.38 31.4102 80.55C31.3502 80.71 31.3202 80.89 31.3202 81.09V89.385C31.3202 89.555 31.2602 89.7 31.1402 89.82C31.0302 89.94 30.8902 90 30.7202 90C30.5402 90 30.3952 89.94 30.2852 89.82C30.1752 89.7 30.1202 89.555 30.1202 89.385V81.105C30.1202 80.435 30.3252 79.905 30.7352 79.515C31.1552 79.125 31.7302 78.93 32.4602 78.93ZM32.8802 82.365C33.0402 82.365 33.1752 82.42 33.2852 82.53C33.3952 82.63 33.4502 82.76 33.4502 82.92C33.4502 83.08 33.3952 83.215 33.2852 83.325C33.1752 83.425 33.0402 83.475 32.8802 83.475H29.1152C28.9552 83.475 28.8202 83.42 28.7102 83.31C28.6002 83.2 28.5452 83.07 28.5452 82.92C28.5452 82.75 28.6002 82.615 28.7102 82.515C28.8202 82.415 28.9552 82.365 29.1152 82.365H32.8802ZM41.844 86.1C41.844 86.88 41.669 87.575 41.319 88.185C40.979 88.795 40.514 89.275 39.924 89.625C39.344 89.975 38.689 90.15 37.959 90.15C37.229 90.15 36.569 89.975 35.979 89.625C35.389 89.275 34.919 88.795 34.569 88.185C34.229 87.575 34.059 86.88 34.059 86.1C34.059 85.32 34.229 84.625 34.569 84.015C34.919 83.405 35.389 82.925 35.979 82.575C36.569 82.225 37.229 82.05 37.959 82.05C38.689 82.05 39.344 82.225 39.924 82.575C40.514 82.925 40.979 83.405 41.319 84.015C41.669 84.625 41.844 85.32 41.844 86.1ZM40.644 86.1C40.644 85.52 40.524 85.01 40.284 84.57C40.054 84.13 39.734 83.785 39.324 83.535C38.924 83.285 38.469 83.16 37.959 83.16C37.449 83.16 36.989 83.285 36.579 83.535C36.179 83.785 35.859 84.13 35.619 84.57C35.379 85.01 35.259 85.52 35.259 86.1C35.259 86.67 35.379 87.175 35.619 87.615C35.859 88.055 36.179 88.405 36.579 88.665C36.989 88.915 37.449 89.04 37.959 89.04C38.469 89.04 38.924 88.915 39.324 88.665C39.734 88.405 40.054 88.055 40.284 87.615C40.524 87.175 40.644 86.67 40.644 86.1ZM44.2489 90C44.0789 90 43.9339 89.94 43.8139 89.82C43.7039 89.7 43.6489 89.555 43.6489 89.385V82.845C43.6489 82.675 43.7039 82.535 43.8139 82.425C43.9339 82.305 44.0789 82.245 44.2489 82.245C44.4289 82.245 44.5739 82.305 44.6839 82.425C44.7939 82.535 44.8489 82.675 44.8489 82.845V84.825L44.6689 84.51C44.7289 84.2 44.8339 83.9 44.9839 83.61C45.1439 83.31 45.3439 83.045 45.5839 82.815C45.8239 82.575 46.0989 82.39 46.4089 82.26C46.7189 82.12 47.0589 82.05 47.4289 82.05C47.6489 82.05 47.8489 82.105 48.0289 82.215C48.2189 82.315 48.3139 82.46 48.3139 82.65C48.3139 82.86 48.2589 83.015 48.1489 83.115C48.0389 83.215 47.9139 83.265 47.7739 83.265C47.6439 83.265 47.5189 83.24 47.3989 83.19C47.2789 83.13 47.1289 83.1 46.9489 83.1C46.6989 83.1 46.4489 83.17 46.1989 83.31C45.9589 83.44 45.7339 83.63 45.5239 83.88C45.3239 84.13 45.1589 84.415 45.0289 84.735C44.9089 85.045 44.8489 85.38 44.8489 85.74V89.385C44.8489 89.555 44.7889 89.7 44.6689 89.82C44.5589 89.94 44.4189 90 44.2489 90ZM53.3744 82.125C54.0544 82.125 54.6044 82.3 55.0244 82.65C55.4544 82.99 55.7394 83.475 55.8794 84.105H55.6544L55.7594 83.835C55.8794 83.555 56.0844 83.285 56.3744 83.025C56.6644 82.765 56.9994 82.55 57.3794 82.38C57.7594 82.21 58.1544 82.125 58.5644 82.125C59.2244 82.125 59.7444 82.27 60.1244 82.56C60.5044 82.84 60.7744 83.22 60.9344 83.7C61.1044 84.17 61.1894 84.7 61.1894 85.29V89.385C61.1894 89.555 61.1294 89.7 61.0094 89.82C60.8994 89.94 60.7594 90 60.5894 90C60.4094 90 60.2644 89.94 60.1544 89.82C60.0444 89.7 59.9894 89.555 59.9894 89.385V85.32C59.9894 84.93 59.9294 84.58 59.8094 84.27C59.6994 83.95 59.5144 83.7 59.2544 83.52C59.0044 83.33 58.6594 83.235 58.2194 83.235C57.8094 83.235 57.4344 83.33 57.0944 83.52C56.7544 83.7 56.4844 83.95 56.2844 84.27C56.0844 84.58 55.9844 84.93 55.9844 85.32V89.385C55.9844 89.555 55.9294 89.7 55.8194 89.82C55.7094 89.94 55.5644 90 55.3844 90C55.2144 90 55.0694 89.94 54.9494 89.82C54.8394 89.7 54.7844 89.555 54.7844 89.385V85.275C54.7844 84.895 54.7294 84.555 54.6194 84.255C54.5194 83.945 54.3444 83.7 54.0944 83.52C53.8444 83.33 53.4994 83.235 53.0594 83.235C52.6594 83.235 52.2944 83.33 51.9644 83.52C51.6344 83.7 51.3694 83.945 51.1694 84.255C50.9694 84.555 50.8694 84.895 50.8694 85.275V89.385C50.8694 89.555 50.8094 89.7 50.6894 89.82C50.5794 89.94 50.4394 90 50.2694 90C50.0994 90 49.9544 89.94 49.8344 89.82C49.7244 89.7 49.6694 89.555 49.6694 89.385V82.845C49.6694 82.675 49.7244 82.535 49.8344 82.425C49.9544 82.305 50.0994 82.245 50.2694 82.245C50.4494 82.245 50.5944 82.305 50.7044 82.425C50.8144 82.535 50.8694 82.675 50.8694 82.845V83.985L50.5394 84.345C50.5794 84.085 50.6794 83.825 50.8394 83.565C51.0094 83.305 51.2244 83.065 51.4844 82.845C51.7444 82.625 52.0344 82.45 52.3544 82.32C52.6744 82.19 53.0144 82.125 53.3744 82.125ZM69.7997 82.17C69.9697 82.17 70.1097 82.23 70.2197 82.35C70.3397 82.46 70.3997 82.6 70.3997 82.77V89.385C70.3997 89.555 70.3397 89.7 70.2197 89.82C70.1097 89.94 69.9697 90 69.7997 90C69.6197 90 69.4747 89.94 69.3647 89.82C69.2547 89.7 69.1997 89.555 69.1997 89.385V87.96L69.4847 87.93C69.4847 88.15 69.4097 88.39 69.2597 88.65C69.1097 88.91 68.9047 89.155 68.6447 89.385C68.3847 89.605 68.0747 89.79 67.7147 89.94C67.3647 90.08 66.9847 90.15 66.5747 90.15C65.8947 90.15 65.2847 89.975 64.7447 89.625C64.2047 89.265 63.7747 88.78 63.4547 88.17C63.1447 87.56 62.9897 86.865 62.9897 86.085C62.9897 85.295 63.1447 84.6 63.4547 84C63.7747 83.39 64.2047 82.915 64.7447 82.575C65.2847 82.225 65.8847 82.05 66.5447 82.05C66.9747 82.05 67.3747 82.12 67.7447 82.26C68.1147 82.4 68.4347 82.59 68.7047 82.83C68.9847 83.07 69.1997 83.335 69.3497 83.625C69.5097 83.915 69.5897 84.205 69.5897 84.495L69.1997 84.405V82.77C69.1997 82.6 69.2547 82.46 69.3647 82.35C69.4747 82.23 69.6197 82.17 69.7997 82.17ZM66.7097 89.04C67.2097 89.04 67.6497 88.91 68.0297 88.65C68.4197 88.39 68.7197 88.04 68.9297 87.6C69.1497 87.15 69.2597 86.645 69.2597 86.085C69.2597 85.535 69.1497 85.04 68.9297 84.6C68.7197 84.15 68.4197 83.8 68.0297 83.55C67.6497 83.29 67.2097 83.16 66.7097 83.16C66.2197 83.16 65.7797 83.285 65.3897 83.535C65.0097 83.785 64.7097 84.13 64.4897 84.57C64.2697 85.01 64.1597 85.515 64.1597 86.085C64.1597 86.645 64.2647 87.15 64.4747 87.6C64.6947 88.04 64.9947 88.39 65.3747 88.65C65.7647 88.91 66.2097 89.04 66.7097 89.04ZM76.0736 82.05C76.5836 82.05 77.0436 82.105 77.4536 82.215C77.8636 82.325 78.1885 82.475 78.4286 82.665C78.6686 82.855 78.7886 83.07 78.7886 83.31C78.7886 83.44 78.7436 83.565 78.6535 83.685C78.5635 83.805 78.4435 83.865 78.2936 83.865C78.1536 83.865 78.0386 83.84 77.9486 83.79C77.8686 83.74 77.7886 83.675 77.7086 83.595C77.6386 83.515 77.5386 83.445 77.4085 83.385C77.2885 83.315 77.1135 83.26 76.8835 83.22C76.6535 83.18 76.4235 83.16 76.1935 83.16C75.6435 83.16 75.1585 83.29 74.7385 83.55C74.3285 83.81 74.0035 84.16 73.7635 84.6C73.5235 85.04 73.4035 85.54 73.4035 86.1C73.4035 86.66 73.5185 87.16 73.7485 87.6C73.9785 88.04 74.2985 88.39 74.7086 88.65C75.1185 88.91 75.5936 89.04 76.1336 89.04C76.4836 89.04 76.7636 89.01 76.9736 88.95C77.1836 88.89 77.3586 88.82 77.4986 88.74C77.6786 88.64 77.8136 88.54 77.9036 88.44C78.0036 88.34 78.1336 88.29 78.2936 88.29C78.4636 88.29 78.5935 88.345 78.6836 88.455C78.7836 88.565 78.8336 88.7 78.8336 88.86C78.8336 89.04 78.7086 89.23 78.4586 89.43C78.2086 89.63 77.8686 89.8 77.4385 89.94C77.0186 90.08 76.5386 90.15 75.9986 90.15C75.2385 90.15 74.5735 89.975 74.0035 89.625C73.4335 89.265 72.9885 88.78 72.6685 88.17C72.3585 87.55 72.2035 86.86 72.2035 86.1C72.2035 85.34 72.3635 84.655 72.6835 84.045C73.0135 83.435 73.4685 82.95 74.0486 82.59C74.6286 82.23 75.3036 82.05 76.0736 82.05ZM81.5569 89.385C81.5569 89.555 81.4969 89.7 81.3769 89.82C81.2669 89.94 81.1269 90 80.9569 90C80.7769 90 80.6319 89.94 80.5219 89.82C80.4119 89.7 80.3569 89.555 80.3569 89.385V82.725C80.3569 82.555 80.4119 82.415 80.5219 82.305C80.6419 82.185 80.7869 82.125 80.9569 82.125C81.1269 82.125 81.2669 82.185 81.3769 82.305C81.4969 82.415 81.5569 82.555 81.5569 82.725V89.385ZM80.9569 81.12C80.7069 81.12 80.5219 81.07 80.4019 80.97C80.2819 80.87 80.2219 80.715 80.2219 80.505V80.295C80.2219 80.085 80.2869 79.93 80.4169 79.83C80.5469 79.73 80.7319 79.68 80.9719 79.68C81.2119 79.68 81.3919 79.73 81.5119 79.83C81.6319 79.93 81.6919 80.085 81.6919 80.295V80.505C81.6919 80.715 81.6269 80.87 81.4969 80.97C81.3769 81.07 81.1969 81.12 80.9569 81.12ZM91.0774 86.1C91.0774 86.88 90.9024 87.575 90.5524 88.185C90.2124 88.795 89.7474 89.275 89.1574 89.625C88.5774 89.975 87.9224 90.15 87.1924 90.15C86.4624 90.15 85.8024 89.975 85.2124 89.625C84.6224 89.275 84.1524 88.795 83.8024 88.185C83.4624 87.575 83.2924 86.88 83.2924 86.1C83.2924 85.32 83.4624 84.625 83.8024 84.015C84.1524 83.405 84.6224 82.925 85.2124 82.575C85.8024 82.225 86.4624 82.05 87.1924 82.05C87.9224 82.05 88.5774 82.225 89.1574 82.575C89.7474 82.925 90.2124 83.405 90.5524 84.015C90.9024 84.625 91.0774 85.32 91.0774 86.1ZM89.8774 86.1C89.8774 85.52 89.7574 85.01 89.5174 84.57C89.2874 84.13 88.9674 83.785 88.5574 83.535C88.1574 83.285 87.7024 83.16 87.1924 83.16C86.6824 83.16 86.2224 83.285 85.8124 83.535C85.4124 83.785 85.0924 84.13 84.8524 84.57C84.6124 85.01 84.4924 85.52 84.4924 86.1C84.4924 86.67 84.6124 87.175 84.8524 87.615C85.0924 88.055 85.4124 88.405 85.8124 88.665C86.2224 88.915 86.6824 89.04 87.1924 89.04C87.7024 89.04 88.1574 88.915 88.5574 88.665C88.9674 88.405 89.2874 88.055 89.5174 87.615C89.7574 87.175 89.8774 86.67 89.8774 86.1ZM87.1024 81.555C87.0324 81.555 86.9574 81.525 86.8774 81.465C86.8074 81.405 86.7724 81.325 86.7724 81.225C86.7724 81.155 86.8024 81.075 86.8624 80.985L87.7624 79.515C87.8224 79.415 87.9024 79.32 88.0024 79.23C88.1024 79.14 88.2224 79.095 88.3624 79.095C88.5624 79.095 88.7124 79.15 88.8124 79.26C88.9124 79.36 88.9624 79.495 88.9624 79.665C88.9524 79.745 88.9324 79.82 88.9024 79.89C88.8724 79.96 88.8274 80.035 88.7674 80.115L87.6274 81.315C87.5574 81.395 87.4724 81.455 87.3724 81.495C87.2824 81.535 87.1924 81.555 87.1024 81.555ZM96.7373 82.05C97.4173 82.05 97.9523 82.19 98.3423 82.47C98.7323 82.75 99.0073 83.125 99.1673 83.595C99.3373 84.065 99.4223 84.59 99.4223 85.17V89.385C99.4223 89.555 99.3623 89.7 99.2423 89.82C99.1323 89.94 98.9923 90 98.8223 90C98.6523 90 98.5073 89.94 98.3873 89.82C98.2773 89.7 98.2223 89.555 98.2223 89.385V85.2C98.2223 84.82 98.1623 84.48 98.0423 84.18C97.9323 83.87 97.7423 83.625 97.4723 83.445C97.2123 83.255 96.8523 83.16 96.3923 83.16C95.9723 83.16 95.5873 83.255 95.2373 83.445C94.8873 83.625 94.6073 83.87 94.3973 84.18C94.1873 84.48 94.0823 84.82 94.0823 85.2V89.385C94.0823 89.555 94.0223 89.7 93.9023 89.82C93.7923 89.94 93.6523 90 93.4823 90C93.3123 90 93.1673 89.94 93.0473 89.82C92.9373 89.7 92.8823 89.555 92.8823 89.385V82.845C92.8823 82.675 92.9373 82.535 93.0473 82.425C93.1673 82.305 93.3123 82.245 93.4823 82.245C93.6623 82.245 93.8073 82.305 93.9173 82.425C94.0273 82.535 94.0823 82.675 94.0823 82.845V83.91L93.7823 84.24C93.8323 83.98 93.9473 83.72 94.1273 83.46C94.3073 83.19 94.5323 82.95 94.8023 82.74C95.0723 82.53 95.3723 82.365 95.7023 82.245C96.0323 82.115 96.3773 82.05 96.7373 82.05Z" fill="#969696"/>
<defs>
<clipPath id="clip0_251445_68">
<rect width="49" height="50" fill="white" transform="translate(34 15)"/>
</clipPath>
</defs>
</svg>
