<svg width="312" height="148" viewBox="0 0 312 148" fill="none" xmlns="http://www.w3.org/2000/svg">
<path d="M41.0023 69C39.3809 69 37.9089 68.5947 36.5863 67.784C35.2636 66.9733 34.1969 65.9067 33.3863 64.584C32.5756 63.2613 32.1703 61.7893 32.1703 60.168V40.712C32.1703 39.0907 32.5756 37.6187 33.3863 36.296C34.1969 34.9733 35.2636 33.9067 36.5863 33.096C37.9089 32.2853 39.3809 31.88 41.0023 31.88H61.0343C62.6556 31.88 64.1276 32.2853 65.4503 33.096C66.8156 33.9067 67.8823 34.9733 68.6503 36.296C69.4609 37.6187 69.8663 39.0907 69.8663 40.712V54.664H40.5543V59.848C40.5543 60.0613 40.6183 60.2533 40.7463 60.424C40.9169 60.552 41.1089 60.616 41.3223 60.616H69.8663V69H41.0023ZM40.5543 47.112H61.4823V41.032C61.4823 40.8187 61.3969 40.648 61.2262 40.52C61.0983 40.3493 60.9276 40.264 60.7143 40.264H41.3223C41.1089 40.264 40.9169 40.3493 40.7463 40.52C40.6183 40.648 40.5543 40.8187 40.5543 41.032V47.112ZM76.6748 69V31.88H105.539C107.16 31.88 108.632 32.2853 109.955 33.096C111.32 33.9067 112.387 34.9733 113.155 36.296C113.965 37.6187 114.371 39.0907 114.371 40.712V69H105.987V41.032C105.987 40.8187 105.901 40.648 105.731 40.52C105.603 40.3493 105.432 40.264 105.219 40.264H85.8268C85.6134 40.264 85.4214 40.3493 85.2508 40.52C85.1228 40.648 85.0588 40.8187 85.0588 41.032V69H76.6748ZM121.109 69V31.88H129.493V69H121.109ZM121.109 28.168V19.72H129.493V28.168H121.109ZM140.801 83.656V75.208H163.137C163.35 75.208 163.521 75.1227 163.649 74.952C163.819 74.824 163.905 74.6533 163.905 74.44V69H143.425C141.846 69 140.374 68.5947 139.009 67.784C137.686 66.9733 136.619 65.9067 135.809 64.584C134.998 63.2613 134.593 61.7893 134.593 60.168V40.712C134.593 39.0907 134.998 37.6187 135.809 36.296C136.619 34.9733 137.686 33.9067 139.009 33.096C140.374 32.2853 141.846 31.88 143.425 31.88H163.521C165.142 31.88 166.614 32.2853 167.937 33.096C169.259 33.9067 170.305 34.9733 171.073 36.296C171.883 37.6187 172.289 39.0907 172.289 40.712V74.824C172.289 76.488 171.905 77.9813 171.137 79.304C170.369 80.6267 169.302 81.672 167.937 82.44C166.614 83.2507 165.142 83.656 163.521 83.656H140.801ZM143.745 60.616H163.137C163.35 60.616 163.521 60.552 163.649 60.424C163.819 60.2533 163.905 60.0613 163.905 59.848V41.032C163.905 40.8187 163.819 40.648 163.649 40.52C163.521 40.3493 163.35 40.264 163.137 40.264H143.745C143.531 40.264 143.339 40.3493 143.169 40.52C143.041 40.648 142.977 40.8187 142.977 41.032V59.848C142.977 60.0613 143.041 60.2533 143.169 60.424C143.339 60.552 143.531 60.616 143.745 60.616ZM178.675 69V31.88H224.691C226.355 31.88 227.848 32.2853 229.171 33.096C230.493 33.9067 231.539 34.9733 232.307 36.296C233.117 37.6187 233.523 39.0907 233.523 40.712V69H225.203V41.032C225.203 40.8187 225.117 40.648 224.947 40.52C224.776 40.3493 224.584 40.264 224.371 40.264H211.123C210.909 40.264 210.717 40.3493 210.547 40.52C210.419 40.648 210.355 40.8187 210.355 41.032V69H201.907V41.032C201.907 40.8187 201.821 40.648 201.651 40.52C201.523 40.3493 201.352 40.264 201.139 40.264H187.827C187.613 40.264 187.421 40.3493 187.251 40.52C187.123 40.648 187.059 40.8187 187.059 41.032V69H178.675ZM249.877 69C248.256 69 246.784 68.5947 245.461 67.784C244.139 66.9733 243.072 65.9067 242.261 64.584C241.451 63.2613 241.045 61.7893 241.045 60.168V40.712C241.045 39.0907 241.451 37.6187 242.261 36.296C243.072 34.9733 244.139 33.9067 245.461 33.096C246.784 32.2853 248.256 31.88 249.877 31.88H269.909C271.531 31.88 273.003 32.2853 274.325 33.096C275.691 33.9067 276.757 34.9733 277.525 36.296C278.336 37.6187 278.741 39.0907 278.741 40.712V60.168C278.741 61.7893 278.336 63.2613 277.525 64.584C276.757 65.9067 275.712 66.9733 274.389 67.784C273.067 68.5947 271.573 69 269.909 69H249.877ZM250.197 60.616H269.589C269.803 60.616 269.973 60.552 270.101 60.424C270.272 60.2533 270.357 60.0613 270.357 59.848V41.032C270.357 40.8187 270.272 40.648 270.101 40.52C269.973 40.3493 269.803 40.264 269.589 40.264H250.197C249.984 40.264 249.792 40.3493 249.621 40.52C249.493 40.648 249.429 40.8187 249.429 41.032V59.848C249.429 60.0613 249.493 60.2533 249.621 60.424C249.792 60.552 249.984 60.616 250.197 60.616Z" fill="black"/>
<path d="M37.9209 104.5H46.8209C47.1042 104.5 47.3459 104.592 47.5459 104.775C47.7459 104.958 47.8459 105.192 47.8459 105.475C47.8459 105.758 47.7459 105.992 47.5459 106.175C47.3459 106.342 47.1042 106.425 46.8209 106.425H38.7709L38.9959 106V112.325L38.7459 112.05H45.6959C45.9792 112.05 46.2209 112.142 46.4209 112.325C46.6209 112.508 46.7209 112.742 46.7209 113.025C46.7209 113.308 46.6209 113.542 46.4209 113.725C46.2209 113.892 45.9792 113.975 45.6959 113.975H38.8209L38.9959 113.75V120.225L38.8459 120.05H46.8209C47.1042 120.05 47.3459 120.15 47.5459 120.35C47.7459 120.55 47.8459 120.775 47.8459 121.025C47.8459 121.308 47.7459 121.542 47.5459 121.725C47.3459 121.908 47.1042 122 46.8209 122H37.9209C37.6375 122 37.3959 121.9 37.1959 121.7C37.0125 121.5 36.9209 121.258 36.9209 120.975V105.5C36.9209 105.217 37.0125 104.983 37.1959 104.8C37.3959 104.6 37.6375 104.5 37.9209 104.5ZM57.2537 108.75C58.387 108.75 59.2787 108.983 59.9287 109.45C60.5787 109.917 61.037 110.542 61.3037 111.325C61.587 112.108 61.7287 112.983 61.7287 113.95V120.975C61.7287 121.258 61.6287 121.5 61.4287 121.7C61.2453 121.9 61.012 122 60.7287 122C60.4453 122 60.2037 121.9 60.0037 121.7C59.8203 121.5 59.7287 121.258 59.7287 120.975V114C59.7287 113.367 59.6287 112.8 59.4287 112.3C59.2453 111.783 58.9287 111.375 58.4787 111.075C58.0453 110.758 57.4453 110.6 56.6787 110.6C55.9787 110.6 55.337 110.758 54.7537 111.075C54.1703 111.375 53.7037 111.783 53.3537 112.3C53.0037 112.8 52.8287 113.367 52.8287 114V120.975C52.8287 121.258 52.7287 121.5 52.5287 121.7C52.3453 121.9 52.112 122 51.8287 122C51.5453 122 51.3037 121.9 51.1037 121.7C50.9203 121.5 50.8287 121.258 50.8287 120.975V110.075C50.8287 109.792 50.9203 109.558 51.1037 109.375C51.3037 109.175 51.5453 109.075 51.8287 109.075C52.1287 109.075 52.3703 109.175 52.5537 109.375C52.737 109.558 52.8287 109.792 52.8287 110.075V111.85L52.3287 112.4C52.412 111.967 52.6037 111.533 52.9037 111.1C53.2037 110.65 53.5787 110.25 54.0287 109.9C54.4787 109.55 54.9787 109.275 55.5287 109.075C56.0787 108.858 56.6537 108.75 57.2537 108.75ZM71.1783 108.75C72.0283 108.75 72.7949 108.842 73.4783 109.025C74.1616 109.208 74.7033 109.458 75.1033 109.775C75.5033 110.092 75.7033 110.45 75.7033 110.85C75.7033 111.067 75.6283 111.275 75.4783 111.475C75.3283 111.675 75.1283 111.775 74.8783 111.775C74.6449 111.775 74.4533 111.733 74.3033 111.65C74.1699 111.567 74.0366 111.458 73.9033 111.325C73.7866 111.192 73.6199 111.075 73.4033 110.975C73.2033 110.858 72.9116 110.767 72.5283 110.7C72.1449 110.633 71.7616 110.6 71.3783 110.6C70.4616 110.6 69.6533 110.817 68.9533 111.25C68.2699 111.683 67.7283 112.267 67.3283 113C66.9283 113.733 66.7283 114.567 66.7283 115.5C66.7283 116.433 66.9199 117.267 67.3033 118C67.6866 118.733 68.2199 119.317 68.9033 119.75C69.5866 120.183 70.3783 120.4 71.2783 120.4C71.8616 120.4 72.3283 120.35 72.6783 120.25C73.0283 120.15 73.3199 120.033 73.5533 119.9C73.8533 119.733 74.0783 119.567 74.2283 119.4C74.3949 119.233 74.6116 119.15 74.8783 119.15C75.1616 119.15 75.3783 119.242 75.5283 119.425C75.6949 119.608 75.7783 119.833 75.7783 120.1C75.7783 120.4 75.5699 120.717 75.1533 121.05C74.7366 121.383 74.1699 121.667 73.4533 121.9C72.7533 122.133 71.9533 122.25 71.0533 122.25C69.7866 122.25 68.6783 121.958 67.7283 121.375C66.7783 120.775 66.0366 119.967 65.5033 118.95C64.9866 117.917 64.7283 116.767 64.7283 115.5C64.7283 114.233 64.9949 113.092 65.5283 112.075C66.0783 111.058 66.8366 110.25 67.8033 109.65C68.7699 109.05 69.8949 108.75 71.1783 108.75ZM79.3921 122C79.1088 122 78.8671 121.9 78.6671 121.7C78.4838 121.5 78.3921 121.258 78.3921 120.975V110.075C78.3921 109.792 78.4838 109.558 78.6671 109.375C78.8671 109.175 79.1088 109.075 79.3921 109.075C79.6921 109.075 79.9338 109.175 80.1171 109.375C80.3005 109.558 80.3921 109.792 80.3921 110.075V113.375L80.0921 112.85C80.1921 112.333 80.3671 111.833 80.6171 111.35C80.8838 110.85 81.2171 110.408 81.6171 110.025C82.0171 109.625 82.4755 109.317 82.9921 109.1C83.5088 108.867 84.0755 108.75 84.6921 108.75C85.0588 108.75 85.3921 108.842 85.6921 109.025C86.0088 109.192 86.1671 109.433 86.1671 109.75C86.1671 110.1 86.0755 110.358 85.8921 110.525C85.7088 110.692 85.5005 110.775 85.2671 110.775C85.0505 110.775 84.8421 110.733 84.6421 110.65C84.4421 110.55 84.1921 110.5 83.8921 110.5C83.4755 110.5 83.0588 110.617 82.6421 110.85C82.2421 111.067 81.8671 111.383 81.5171 111.8C81.1838 112.217 80.9088 112.692 80.6921 113.225C80.4921 113.742 80.3921 114.3 80.3921 114.9V120.975C80.3921 121.258 80.2921 121.5 80.0921 121.7C79.9088 121.9 79.6755 122 79.3921 122ZM90.3513 120.975C90.3513 121.258 90.2513 121.5 90.0513 121.7C89.868 121.9 89.6347 122 89.3513 122C89.0513 122 88.8097 121.9 88.6263 121.7C88.443 121.5 88.3513 121.258 88.3513 120.975V109.875C88.3513 109.592 88.443 109.358 88.6263 109.175C88.8263 108.975 89.068 108.875 89.3513 108.875C89.6347 108.875 89.868 108.975 90.0513 109.175C90.2513 109.358 90.3513 109.592 90.3513 109.875V120.975ZM89.3513 107.2C88.9347 107.2 88.6263 107.117 88.4263 106.95C88.2263 106.783 88.1263 106.525 88.1263 106.175V105.825C88.1263 105.475 88.2347 105.217 88.4513 105.05C88.668 104.883 88.9763 104.8 89.3763 104.8C89.7763 104.8 90.0763 104.883 90.2763 105.05C90.4763 105.217 90.5763 105.475 90.5763 105.825V106.175C90.5763 106.525 90.468 106.783 90.2513 106.95C90.0513 107.117 89.7513 107.2 89.3513 107.2ZM100.319 108.875C101.452 108.875 102.469 109.158 103.369 109.725C104.269 110.292 104.977 111.075 105.494 112.075C106.027 113.075 106.294 114.225 106.294 115.525C106.294 116.808 106.027 117.958 105.494 118.975C104.977 119.975 104.269 120.767 103.369 121.35C102.486 121.917 101.486 122.2 100.369 122.2C99.7522 122.2 99.1689 122.108 98.6189 121.925C98.0856 121.725 97.5939 121.475 97.1439 121.175C96.7106 120.858 96.3439 120.508 96.0439 120.125C95.7439 119.725 95.5272 119.333 95.3939 118.95L95.9439 118.6V125.975C95.9439 126.258 95.8522 126.5 95.6689 126.7C95.4856 126.9 95.2439 127 94.9439 127C94.6606 127 94.4189 126.9 94.2189 126.7C94.0356 126.517 93.9439 126.275 93.9439 125.975V110C93.9439 109.717 94.0356 109.483 94.2189 109.3C94.4189 109.1 94.6606 109 94.9439 109C95.2439 109 95.4856 109.1 95.6689 109.3C95.8522 109.483 95.9439 109.717 95.9439 110V112.225L95.5689 112.025C95.6856 111.608 95.8856 111.208 96.1689 110.825C96.4689 110.442 96.8272 110.108 97.2439 109.825C97.6772 109.525 98.1522 109.292 98.6689 109.125C99.2022 108.958 99.7522 108.875 100.319 108.875ZM100.094 110.725C99.2606 110.725 98.5189 110.933 97.8689 111.35C97.2356 111.767 96.7356 112.333 96.3689 113.05C96.0189 113.767 95.8439 114.592 95.8439 115.525C95.8439 116.442 96.0189 117.267 96.3689 118C96.7356 118.733 97.2356 119.308 97.8689 119.725C98.5189 120.142 99.2606 120.35 100.094 120.35C100.927 120.35 101.661 120.142 102.294 119.725C102.927 119.308 103.427 118.733 103.794 118C104.161 117.267 104.344 116.442 104.344 115.525C104.344 114.592 104.161 113.767 103.794 113.05C103.427 112.333 102.927 111.767 102.294 111.35C101.661 110.933 100.927 110.725 100.094 110.725ZM108.8 109.15H114.675C114.942 109.15 115.159 109.242 115.325 109.425C115.509 109.608 115.6 109.825 115.6 110.075C115.6 110.342 115.509 110.567 115.325 110.75C115.159 110.917 114.942 111 114.675 111H108.8C108.55 111 108.334 110.908 108.15 110.725C107.967 110.542 107.875 110.317 107.875 110.05C107.875 109.8 107.967 109.592 108.15 109.425C108.334 109.242 108.55 109.15 108.8 109.15ZM111.425 105.75C111.709 105.75 111.942 105.85 112.125 106.05C112.309 106.233 112.4 106.467 112.4 106.75V118.825C112.4 119.225 112.459 119.525 112.575 119.725C112.692 119.925 112.842 120.067 113.025 120.15C113.225 120.217 113.417 120.25 113.6 120.25C113.767 120.25 113.909 120.225 114.025 120.175C114.159 120.108 114.309 120.075 114.475 120.075C114.642 120.075 114.792 120.158 114.925 120.325C115.075 120.475 115.15 120.675 115.15 120.925C115.15 121.225 114.975 121.483 114.625 121.7C114.275 121.9 113.884 122 113.45 122C113.217 122 112.925 121.983 112.575 121.95C112.242 121.917 111.909 121.808 111.575 121.625C111.242 121.442 110.959 121.142 110.725 120.725C110.509 120.292 110.4 119.692 110.4 118.925V106.75C110.4 106.467 110.5 106.233 110.7 106.05C110.9 105.85 111.142 105.75 111.425 105.75ZM129.032 108.95C129.316 108.95 129.549 109.05 129.732 109.25C129.932 109.433 130.032 109.667 130.032 109.95V120.975C130.032 121.258 129.932 121.5 129.732 121.7C129.549 121.9 129.316 122 129.032 122C128.732 122 128.491 121.9 128.307 121.7C128.124 121.5 128.032 121.258 128.032 120.975V118.6L128.507 118.55C128.507 118.917 128.382 119.317 128.132 119.75C127.882 120.183 127.541 120.592 127.107 120.975C126.674 121.342 126.157 121.65 125.557 121.9C124.974 122.133 124.341 122.25 123.657 122.25C122.524 122.25 121.507 121.958 120.607 121.375C119.707 120.775 118.991 119.967 118.457 118.95C117.941 117.933 117.682 116.775 117.682 115.475C117.682 114.158 117.941 113 118.457 112C118.991 110.983 119.707 110.192 120.607 109.625C121.507 109.042 122.507 108.75 123.607 108.75C124.324 108.75 124.991 108.867 125.607 109.1C126.224 109.333 126.757 109.65 127.207 110.05C127.674 110.45 128.032 110.892 128.282 111.375C128.549 111.858 128.682 112.342 128.682 112.825L128.032 112.675V109.95C128.032 109.667 128.124 109.433 128.307 109.25C128.491 109.05 128.732 108.95 129.032 108.95ZM123.882 120.4C124.716 120.4 125.449 120.183 126.082 119.75C126.732 119.317 127.232 118.733 127.582 118C127.949 117.25 128.132 116.408 128.132 115.475C128.132 114.558 127.949 113.733 127.582 113C127.232 112.25 126.732 111.667 126.082 111.25C125.449 110.817 124.716 110.6 123.882 110.6C123.066 110.6 122.332 110.808 121.682 111.225C121.049 111.642 120.549 112.217 120.182 112.95C119.816 113.683 119.632 114.525 119.632 115.475C119.632 116.408 119.807 117.25 120.157 118C120.524 118.733 121.024 119.317 121.657 119.75C122.307 120.183 123.049 120.4 123.882 120.4ZM144.389 103.5C144.672 103.5 144.905 103.6 145.089 103.8C145.289 103.983 145.389 104.217 145.389 104.5V120.975C145.389 121.258 145.289 121.5 145.089 121.7C144.905 121.9 144.672 122 144.389 122C144.089 122 143.847 121.9 143.664 121.7C143.48 121.5 143.389 121.258 143.389 120.975V118.6L143.864 118.425C143.864 118.825 143.739 119.25 143.489 119.7C143.239 120.133 142.897 120.542 142.464 120.925C142.03 121.308 141.514 121.625 140.914 121.875C140.33 122.125 139.697 122.25 139.014 122.25C137.897 122.25 136.88 121.958 135.964 121.375C135.064 120.792 134.347 119.992 133.814 118.975C133.297 117.958 133.039 116.8 133.039 115.5C133.039 114.183 133.297 113.017 133.814 112C134.347 110.983 135.064 110.192 135.964 109.625C136.864 109.042 137.864 108.75 138.964 108.75C139.664 108.75 140.322 108.867 140.939 109.1C141.555 109.333 142.089 109.65 142.539 110.05C143.005 110.45 143.372 110.892 143.639 111.375C143.905 111.858 144.039 112.342 144.039 112.825L143.389 112.675V104.5C143.389 104.217 143.48 103.983 143.664 103.8C143.847 103.6 144.089 103.5 144.389 103.5ZM139.239 120.4C140.072 120.4 140.805 120.192 141.439 119.775C142.089 119.342 142.589 118.758 142.939 118.025C143.305 117.275 143.489 116.433 143.489 115.5C143.489 114.55 143.305 113.708 142.939 112.975C142.589 112.242 142.089 111.667 141.439 111.25C140.805 110.817 140.072 110.6 139.239 110.6C138.422 110.6 137.689 110.817 137.039 111.25C136.405 111.667 135.905 112.242 135.539 112.975C135.172 113.708 134.989 114.55 134.989 115.5C134.989 116.417 135.172 117.25 135.539 118C135.905 118.733 136.405 119.317 137.039 119.75C137.689 120.183 138.422 120.4 139.239 120.4ZM161.37 115.5C161.37 116.8 161.079 117.958 160.495 118.975C159.929 119.992 159.154 120.792 158.17 121.375C157.204 121.958 156.112 122.25 154.895 122.25C153.679 122.25 152.579 121.958 151.595 121.375C150.612 120.792 149.829 119.992 149.245 118.975C148.679 117.958 148.395 116.8 148.395 115.5C148.395 114.2 148.679 113.042 149.245 112.025C149.829 111.008 150.612 110.208 151.595 109.625C152.579 109.042 153.679 108.75 154.895 108.75C156.112 108.75 157.204 109.042 158.17 109.625C159.154 110.208 159.929 111.008 160.495 112.025C161.079 113.042 161.37 114.2 161.37 115.5ZM159.37 115.5C159.37 114.533 159.17 113.683 158.77 112.95C158.387 112.217 157.854 111.642 157.17 111.225C156.504 110.808 155.745 110.6 154.895 110.6C154.045 110.6 153.279 110.808 152.595 111.225C151.929 111.642 151.395 112.217 150.995 112.95C150.595 113.683 150.395 114.533 150.395 115.5C150.395 116.45 150.595 117.292 150.995 118.025C151.395 118.758 151.929 119.342 152.595 119.775C153.279 120.192 154.045 120.4 154.895 120.4C155.745 120.4 156.504 120.192 157.17 119.775C157.854 119.342 158.387 118.758 158.77 118.025C159.17 117.292 159.37 116.45 159.37 115.5ZM165.378 122C165.095 122 164.853 121.9 164.653 121.7C164.47 121.5 164.378 121.258 164.378 120.975V110.075C164.378 109.792 164.47 109.558 164.653 109.375C164.853 109.175 165.095 109.075 165.378 109.075C165.678 109.075 165.92 109.175 166.103 109.375C166.287 109.558 166.378 109.792 166.378 110.075V113.375L166.078 112.85C166.178 112.333 166.353 111.833 166.603 111.35C166.87 110.85 167.203 110.408 167.603 110.025C168.003 109.625 168.462 109.317 168.978 109.1C169.495 108.867 170.062 108.75 170.678 108.75C171.045 108.75 171.378 108.842 171.678 109.025C171.995 109.192 172.153 109.433 172.153 109.75C172.153 110.1 172.062 110.358 171.878 110.525C171.695 110.692 171.487 110.775 171.253 110.775C171.037 110.775 170.828 110.733 170.628 110.65C170.428 110.55 170.178 110.5 169.878 110.5C169.462 110.5 169.045 110.617 168.628 110.85C168.228 111.067 167.853 111.383 167.503 111.8C167.17 112.217 166.895 112.692 166.678 113.225C166.478 113.742 166.378 114.3 166.378 114.9V120.975C166.378 121.258 166.278 121.5 166.078 121.7C165.895 121.9 165.662 122 165.378 122ZM191.947 103.5C192.231 103.5 192.464 103.6 192.647 103.8C192.847 103.983 192.947 104.217 192.947 104.5V120.975C192.947 121.258 192.847 121.5 192.647 121.7C192.464 121.9 192.231 122 191.947 122C191.647 122 191.406 121.9 191.222 121.7C191.039 121.5 190.947 121.258 190.947 120.975V118.6L191.422 118.425C191.422 118.825 191.297 119.25 191.047 119.7C190.797 120.133 190.456 120.542 190.022 120.925C189.589 121.308 189.072 121.625 188.472 121.875C187.889 122.125 187.256 122.25 186.572 122.25C185.456 122.25 184.439 121.958 183.522 121.375C182.622 120.792 181.906 119.992 181.372 118.975C180.856 117.958 180.597 116.8 180.597 115.5C180.597 114.183 180.856 113.017 181.372 112C181.906 110.983 182.622 110.192 183.522 109.625C184.422 109.042 185.422 108.75 186.522 108.75C187.222 108.75 187.881 108.867 188.497 109.1C189.114 109.333 189.647 109.65 190.097 110.05C190.564 110.45 190.931 110.892 191.197 111.375C191.464 111.858 191.597 112.342 191.597 112.825L190.947 112.675V104.5C190.947 104.217 191.039 103.983 191.222 103.8C191.406 103.6 191.647 103.5 191.947 103.5ZM186.797 120.4C187.631 120.4 188.364 120.192 188.997 119.775C189.647 119.342 190.147 118.758 190.497 118.025C190.864 117.275 191.047 116.433 191.047 115.5C191.047 114.55 190.864 113.708 190.497 112.975C190.147 112.242 189.647 111.667 188.997 111.25C188.364 110.817 187.631 110.6 186.797 110.6C185.981 110.6 185.247 110.817 184.597 111.25C183.964 111.667 183.464 112.242 183.097 112.975C182.731 113.708 182.547 114.55 182.547 115.5C182.547 116.417 182.731 117.25 183.097 118C183.464 118.733 183.964 119.317 184.597 119.75C185.247 120.183 185.981 120.4 186.797 120.4ZM202.629 122.25C201.296 122.25 200.129 121.967 199.129 121.4C198.129 120.833 197.346 120.058 196.779 119.075C196.229 118.075 195.954 116.925 195.954 115.625C195.954 114.175 196.237 112.942 196.804 111.925C197.387 110.892 198.137 110.108 199.054 109.575C199.987 109.025 200.971 108.75 202.004 108.75C202.771 108.75 203.512 108.892 204.229 109.175C204.946 109.458 205.579 109.875 206.129 110.425C206.679 110.958 207.121 111.608 207.454 112.375C207.787 113.125 207.962 113.967 207.979 114.9C207.979 115.167 207.879 115.392 207.679 115.575C207.479 115.758 207.246 115.85 206.979 115.85H197.104L196.654 114.125H206.279L205.879 114.475V113.925C205.812 113.242 205.579 112.658 205.179 112.175C204.796 111.675 204.321 111.292 203.754 111.025C203.204 110.758 202.621 110.625 202.004 110.625C201.504 110.625 201.004 110.717 200.504 110.9C200.021 111.067 199.579 111.35 199.179 111.75C198.796 112.133 198.479 112.633 198.229 113.25C197.996 113.867 197.879 114.608 197.879 115.475C197.879 116.442 198.071 117.292 198.454 118.025C198.854 118.758 199.404 119.342 200.104 119.775C200.804 120.192 201.621 120.4 202.554 120.4C203.137 120.4 203.646 120.325 204.079 120.175C204.512 120.025 204.887 119.842 205.204 119.625C205.521 119.392 205.787 119.158 206.004 118.925C206.221 118.775 206.429 118.7 206.629 118.7C206.879 118.7 207.079 118.783 207.229 118.95C207.396 119.117 207.479 119.317 207.479 119.55C207.479 119.833 207.346 120.083 207.079 120.3C206.612 120.817 205.979 121.275 205.179 121.675C204.379 122.058 203.529 122.25 202.629 122.25ZM217.37 109.15H223.245C223.511 109.15 223.728 109.242 223.895 109.425C224.078 109.608 224.17 109.825 224.17 110.075C224.17 110.342 224.078 110.567 223.895 110.75C223.728 110.917 223.511 111 223.245 111H217.37C217.12 111 216.903 110.908 216.72 110.725C216.536 110.542 216.445 110.317 216.445 110.05C216.445 109.8 216.536 109.592 216.72 109.425C216.903 109.242 217.12 109.15 217.37 109.15ZM219.995 105.75C220.278 105.75 220.511 105.85 220.695 106.05C220.878 106.233 220.97 106.467 220.97 106.75V118.825C220.97 119.225 221.028 119.525 221.145 119.725C221.261 119.925 221.411 120.067 221.595 120.15C221.795 120.217 221.986 120.25 222.17 120.25C222.336 120.25 222.478 120.225 222.595 120.175C222.728 120.108 222.878 120.075 223.045 120.075C223.211 120.075 223.361 120.158 223.495 120.325C223.645 120.475 223.72 120.675 223.72 120.925C223.72 121.225 223.545 121.483 223.195 121.7C222.845 121.9 222.453 122 222.02 122C221.786 122 221.495 121.983 221.145 121.95C220.811 121.917 220.478 121.808 220.145 121.625C219.811 121.442 219.528 121.142 219.295 120.725C219.078 120.292 218.97 119.692 218.97 118.925V106.75C218.97 106.467 219.07 106.233 219.27 106.05C219.47 105.85 219.711 105.75 219.995 105.75ZM232.805 122.25C231.471 122.25 230.305 121.967 229.305 121.4C228.305 120.833 227.521 120.058 226.955 119.075C226.405 118.075 226.13 116.925 226.13 115.625C226.13 114.175 226.413 112.942 226.98 111.925C227.563 110.892 228.313 110.108 229.23 109.575C230.163 109.025 231.146 108.75 232.18 108.75C232.946 108.75 233.688 108.892 234.405 109.175C235.121 109.458 235.755 109.875 236.305 110.425C236.855 110.958 237.296 111.608 237.63 112.375C237.963 113.125 238.138 113.967 238.155 114.9C238.155 115.167 238.055 115.392 237.855 115.575C237.655 115.758 237.421 115.85 237.155 115.85H227.28L226.83 114.125H236.455L236.055 114.475V113.925C235.988 113.242 235.755 112.658 235.355 112.175C234.971 111.675 234.496 111.292 233.93 111.025C233.38 110.758 232.796 110.625 232.18 110.625C231.68 110.625 231.18 110.717 230.68 110.9C230.196 111.067 229.755 111.35 229.355 111.75C228.971 112.133 228.655 112.633 228.405 113.25C228.171 113.867 228.055 114.608 228.055 115.475C228.055 116.442 228.246 117.292 228.63 118.025C229.03 118.758 229.58 119.342 230.28 119.775C230.98 120.192 231.796 120.4 232.73 120.4C233.313 120.4 233.821 120.325 234.255 120.175C234.688 120.025 235.063 119.842 235.38 119.625C235.696 119.392 235.963 119.158 236.18 118.925C236.396 118.775 236.605 118.7 236.805 118.7C237.055 118.7 237.255 118.783 237.405 118.95C237.571 119.117 237.655 119.317 237.655 119.55C237.655 119.833 237.521 120.083 237.255 120.3C236.788 120.817 236.155 121.275 235.355 121.675C234.555 122.058 233.705 122.25 232.805 122.25ZM240.914 108.925C241.23 108.925 241.497 109.067 241.714 109.35L250.414 120.45C250.547 120.633 250.614 120.833 250.614 121.05C250.614 121.333 250.514 121.575 250.314 121.775C250.114 121.975 249.88 122.075 249.614 122.075C249.297 122.075 249.022 121.925 248.789 121.625L240.089 110.55C239.955 110.367 239.889 110.167 239.889 109.95C239.889 109.65 239.989 109.408 240.189 109.225C240.405 109.025 240.647 108.925 240.914 108.925ZM240.914 122.05C240.697 122.05 240.48 121.967 240.264 121.8C240.047 121.633 239.939 121.417 239.939 121.15C239.939 120.933 240.022 120.725 240.189 120.525L244.289 115.35L245.339 117L241.714 121.65C241.514 121.917 241.247 122.05 240.914 122.05ZM249.614 108.925C249.897 108.925 250.122 109.017 250.289 109.2C250.472 109.383 250.564 109.592 250.564 109.825C250.564 109.925 250.539 110.033 250.489 110.15C250.455 110.267 250.397 110.375 250.314 110.475L246.239 115.7L245.189 114.175L248.789 109.375C249.022 109.075 249.297 108.925 249.614 108.925ZM253.918 109.15H259.793C260.059 109.15 260.276 109.242 260.443 109.425C260.626 109.608 260.718 109.825 260.718 110.075C260.718 110.342 260.626 110.567 260.443 110.75C260.276 110.917 260.059 111 259.793 111H253.918C253.668 111 253.451 110.908 253.268 110.725C253.084 110.542 252.993 110.317 252.993 110.05C252.993 109.8 253.084 109.592 253.268 109.425C253.451 109.242 253.668 109.15 253.918 109.15ZM256.543 105.75C256.826 105.75 257.059 105.85 257.243 106.05C257.426 106.233 257.518 106.467 257.518 106.75V118.825C257.518 119.225 257.576 119.525 257.693 119.725C257.809 119.925 257.959 120.067 258.143 120.15C258.343 120.217 258.534 120.25 258.718 120.25C258.884 120.25 259.026 120.225 259.143 120.175C259.276 120.108 259.426 120.075 259.593 120.075C259.759 120.075 259.909 120.158 260.043 120.325C260.193 120.475 260.268 120.675 260.268 120.925C260.268 121.225 260.093 121.483 259.743 121.7C259.393 121.9 259.001 122 258.568 122C258.334 122 258.043 121.983 257.693 121.95C257.359 121.917 257.026 121.808 256.693 121.625C256.359 121.442 256.076 121.142 255.843 120.725C255.626 120.292 255.518 119.692 255.518 118.925V106.75C255.518 106.467 255.618 106.233 255.818 106.05C256.018 105.85 256.259 105.75 256.543 105.75ZM275.652 115.5C275.652 116.8 275.361 117.958 274.777 118.975C274.211 119.992 273.436 120.792 272.452 121.375C271.486 121.958 270.394 122.25 269.177 122.25C267.961 122.25 266.861 121.958 265.877 121.375C264.894 120.792 264.111 119.992 263.527 118.975C262.961 117.958 262.677 116.8 262.677 115.5C262.677 114.2 262.961 113.042 263.527 112.025C264.111 111.008 264.894 110.208 265.877 109.625C266.861 109.042 267.961 108.75 269.177 108.75C270.394 108.75 271.486 109.042 272.452 109.625C273.436 110.208 274.211 111.008 274.777 112.025C275.361 113.042 275.652 114.2 275.652 115.5ZM273.652 115.5C273.652 114.533 273.452 113.683 273.052 112.95C272.669 112.217 272.136 111.642 271.452 111.225C270.786 110.808 270.027 110.6 269.177 110.6C268.327 110.6 267.561 110.808 266.877 111.225C266.211 111.642 265.677 112.217 265.277 112.95C264.877 113.683 264.677 114.533 264.677 115.5C264.677 116.45 264.877 117.292 265.277 118.025C265.677 118.758 266.211 119.342 266.877 119.775C267.561 120.192 268.327 120.4 269.177 120.4C270.027 120.4 270.786 120.192 271.452 119.775C272.136 119.342 272.669 118.758 273.052 118.025C273.452 117.292 273.652 116.45 273.652 115.5Z" fill="black"/>
</svg>
