<svg width="205" height="97" viewBox="0 0 205 97" fill="none" xmlns="http://www.w3.org/2000/svg">
<path d="M26.9408 45.223C25.8754 45.223 24.9083 44.9573 24.0392 44.426C23.1702 43.8947 22.4693 43.1956 21.9367 42.3287C21.404 41.4618 21.1377 40.497 21.1377 39.4344V26.6829C21.1377 25.6203 21.404 24.6555 21.9367 23.7886C22.4693 22.9217 23.1702 22.2226 24.0392 21.6913C24.9083 21.16 25.8754 20.8943 26.9408 20.8943H40.1028C41.1681 20.8943 42.1353 21.16 43.0044 21.6913C43.9014 22.2226 44.6023 22.9217 45.1069 23.7886C45.6395 24.6555 45.9059 25.6203 45.9059 26.6829V35.8271H26.6464V39.2247C26.6464 39.3645 26.6885 39.4903 26.7726 39.6022C26.8847 39.6861 27.0108 39.7281 27.151 39.7281H45.9059V45.223H26.9408ZM26.6464 30.8775H40.3972V26.8926C40.3972 26.7528 40.3411 26.6409 40.2289 26.557C40.1449 26.4451 40.0327 26.3892 39.8926 26.3892H27.151C27.0108 26.3892 26.8847 26.4451 26.7726 26.557C26.6885 26.6409 26.6464 26.7528 26.6464 26.8926V30.8775ZM50.3794 45.223V20.8943H69.3447C70.4098 20.8943 71.377 21.16 72.2462 21.6913C73.1431 22.2226 73.8442 22.9217 74.3488 23.7886C74.881 24.6555 75.1478 25.6203 75.1478 26.6829V45.223H69.6391V26.8926C69.6391 26.7528 69.5826 26.6409 69.4709 26.557C69.3867 26.4451 69.2744 26.3892 69.1344 26.3892H56.3928C56.2526 26.3892 56.1264 26.4451 56.0143 26.557C55.9302 26.6409 55.8882 26.7528 55.8882 26.8926V45.223H50.3794ZM79.575 45.223V20.8943H85.0837V45.223H79.575ZM79.575 18.4615V12.9246H85.0837V18.4615H79.575ZM92.5136 54.8286V49.2917H107.19C107.329 49.2917 107.442 49.2358 107.526 49.1239C107.638 49.0401 107.694 48.9282 107.694 48.7884V45.223H94.2377C93.2003 45.223 92.2331 44.9573 91.3362 44.426C90.4669 43.8947 89.7659 43.1956 89.2336 42.3287C88.7008 41.4618 88.4347 40.497 88.4347 39.4344V26.6829C88.4347 25.6203 88.7008 24.6555 89.2336 23.7886C89.7659 22.9217 90.4669 22.2226 91.3362 21.6913C92.2331 21.16 93.2003 20.8943 94.2377 20.8943H107.442C108.507 20.8943 109.474 21.16 110.343 21.6913C111.212 22.2226 111.899 22.9217 112.404 23.7886C112.936 24.6555 113.203 25.6203 113.203 26.6829V49.04C113.203 50.1306 112.951 51.1094 112.446 51.9763C111.941 52.8432 111.24 53.5283 110.343 54.0316C109.474 54.563 108.507 54.8286 107.442 54.8286H92.5136ZM94.448 39.7281H107.19C107.329 39.7281 107.442 39.6861 107.526 39.6022C107.638 39.4903 107.694 39.3645 107.694 39.2247V26.8926C107.694 26.7528 107.638 26.6409 107.526 26.557C107.442 26.4451 107.329 26.3892 107.19 26.3892H94.448C94.3074 26.3892 94.1812 26.4451 94.0695 26.557C93.9854 26.6409 93.9434 26.7528 93.9434 26.8926V39.2247C93.9434 39.3645 93.9854 39.4903 94.0695 39.6022C94.1812 39.6861 94.3074 39.7281 94.448 39.7281ZM117.399 45.223V20.8943H147.634C148.727 20.8943 149.708 21.16 150.577 21.6913C151.446 22.2226 152.133 22.9217 152.638 23.7886C153.17 24.6555 153.437 25.6203 153.437 26.6829V45.223H147.97V26.8926C147.97 26.7528 147.914 26.6409 147.802 26.557C147.69 26.4451 147.563 26.3892 147.423 26.3892H138.719C138.578 26.3892 138.452 26.4451 138.34 26.557C138.256 26.6409 138.214 26.7528 138.214 26.8926V45.223H132.663V26.8926C132.663 26.7528 132.607 26.6409 132.495 26.557C132.411 26.4451 132.299 26.3892 132.159 26.3892H123.412C123.272 26.3892 123.145 26.4451 123.034 26.557C122.95 26.6409 122.908 26.7528 122.908 26.8926V45.223H117.399ZM164.182 45.223C163.117 45.223 162.15 44.9573 161.281 44.426C160.412 43.8947 159.711 43.1956 159.178 42.3287C158.646 41.4618 158.379 40.497 158.379 39.4344V26.6829C158.379 25.6203 158.646 24.6555 159.178 23.7886C159.711 22.9217 160.412 22.2226 161.281 21.6913C162.15 21.16 163.117 20.8943 164.182 20.8943H177.344C178.41 20.8943 179.377 21.16 180.246 21.6913C181.143 22.2226 181.844 22.9217 182.348 23.7886C182.881 24.6555 183.147 25.6203 183.147 26.6829V39.4344C183.147 40.497 182.881 41.4618 182.348 42.3287C181.844 43.1956 181.157 43.8947 180.288 44.426C179.419 44.9573 178.438 45.223 177.344 45.223H164.182ZM164.392 39.7281H177.134C177.275 39.7281 177.386 39.6861 177.47 39.6022C177.583 39.4903 177.639 39.3645 177.639 39.2247V26.8926C177.639 26.7528 177.583 26.6409 177.47 26.557C177.386 26.4451 177.275 26.3892 177.134 26.3892H164.392C164.252 26.3892 164.126 26.4451 164.014 26.557C163.93 26.6409 163.888 26.7528 163.888 26.8926V39.2247C163.888 39.3645 163.93 39.4903 164.014 39.6022C164.126 39.6861 164.252 39.7281 164.392 39.7281Z" fill="black"/>
<path d="M24.9158 68.4899H30.7636C30.9497 68.4899 31.1085 68.5502 31.24 68.6701C31.3714 68.79 31.4371 68.9434 31.4371 69.1289C31.4371 69.3144 31.3714 69.4677 31.24 69.5877C31.1085 69.6971 30.9497 69.7515 30.7636 69.7515H25.4743L25.6222 69.473V73.6184L25.4579 73.4382H30.0244C30.2106 73.4382 30.3694 73.4985 30.5008 73.6184C30.6322 73.7383 30.6979 73.8917 30.6979 74.0772C30.6979 74.2627 30.6322 74.416 30.5008 74.536C30.3694 74.6454 30.2106 74.6998 30.0244 74.6998H25.5072L25.6222 74.5524V78.7961L25.5236 78.6814H30.7636C30.9497 78.6814 31.1085 78.747 31.24 78.878C31.3714 79.0091 31.4371 79.1566 31.4371 79.3204C31.4371 79.5059 31.3714 79.6593 31.24 79.7792C31.1085 79.8992 30.9497 79.9595 30.7636 79.9595H24.9158C24.7296 79.9595 24.5709 79.8939 24.4395 79.7628C24.319 79.6318 24.2588 79.4731 24.2588 79.2877V69.1453C24.2588 68.9598 24.319 68.8064 24.4395 68.6865C24.5709 68.5554 24.7296 68.4899 24.9158 68.4899ZM37.6185 71.2753C38.3631 71.2753 38.949 71.428 39.3761 71.7341C39.8032 72.0402 40.1043 72.4498 40.2795 72.963C40.4657 73.4762 40.5588 74.0497 40.5588 74.6834V79.2877C40.5588 79.4731 40.4931 79.6318 40.3617 79.7628C40.2412 79.8939 40.0879 79.9595 39.9017 79.9595C39.7155 79.9595 39.5568 79.8939 39.4254 79.7628C39.3049 79.6318 39.2447 79.4731 39.2447 79.2877V74.7162C39.2447 74.3013 39.179 73.9297 39.0476 73.602C38.9271 73.2632 38.719 72.9958 38.4234 72.7992C38.1386 72.5914 37.7444 72.4878 37.2407 72.4878C36.7807 72.4878 36.3591 72.5914 35.9759 72.7992C35.5925 72.9958 35.2859 73.2632 35.056 73.602C34.826 73.9297 34.711 74.3013 34.711 74.7162V79.2877C34.711 79.4731 34.6453 79.6318 34.5139 79.7628C34.3934 79.8939 34.2401 79.9595 34.054 79.9595C33.8678 79.9595 33.709 79.8939 33.5776 79.7628C33.4571 79.6318 33.3969 79.4731 33.3969 79.2877V72.1437C33.3969 71.9583 33.4571 71.8049 33.5776 71.685C33.709 71.5539 33.8678 71.4883 34.054 71.4883C34.2511 71.4883 34.4098 71.5539 34.5303 71.685C34.6508 71.8049 34.711 71.9583 34.711 72.1437V73.3071L34.3825 73.6676C34.4372 73.3838 34.5632 73.0993 34.7603 72.8155C34.9574 72.5206 35.2038 72.2584 35.4995 72.0291C35.7952 71.7997 36.1237 71.6194 36.4851 71.4883C36.8464 71.3461 37.2243 71.2753 37.6185 71.2753ZM46.7677 71.2753C47.3262 71.2753 47.8298 71.3356 48.2789 71.4556C48.7278 71.5755 49.0838 71.7394 49.3466 71.9471C49.6094 72.1549 49.7408 72.3895 49.7408 72.6517C49.7408 72.7939 49.6915 72.9302 49.593 73.0613C49.4944 73.1924 49.363 73.2579 49.1987 73.2579C49.0454 73.2579 48.9195 73.2304 48.8209 73.176C48.7333 73.1216 48.6457 73.0502 48.5581 72.963C48.4814 72.8758 48.3719 72.7992 48.2296 72.7336C48.0982 72.6569 47.9065 72.5973 47.6547 72.5534C47.4028 72.5095 47.1509 72.4878 46.8991 72.4878C46.2968 72.4878 45.7657 72.6301 45.3057 72.9138C44.8567 73.1976 44.5008 73.5804 44.238 74.0608C43.9752 74.5412 43.8438 75.0878 43.8438 75.6993C43.8438 76.3108 43.9697 76.8574 44.2216 77.3378C44.4734 77.8182 44.8238 78.201 45.2729 78.4848C45.7218 78.7686 46.242 78.9108 46.8334 78.9108C47.2166 78.9108 47.5233 78.878 47.7532 78.8125C47.9832 78.747 48.1748 78.6703 48.3282 78.5831C48.5253 78.4737 48.6731 78.3649 48.7717 78.2554C48.8811 78.146 49.0235 78.0916 49.1987 78.0916C49.3849 78.0916 49.5273 78.1519 49.6258 78.2718C49.7353 78.3917 49.7901 78.5392 49.7901 78.7142C49.7901 78.9108 49.6532 79.1186 49.3794 79.3368C49.1056 79.5551 48.7333 79.7412 48.2624 79.8939C47.8025 80.0466 47.2769 80.1233 46.6855 80.1233C45.8532 80.1233 45.125 79.9319 44.5008 79.5498C43.8766 79.1566 43.3893 78.627 43.0389 77.9605C42.6994 77.2834 42.5297 76.5297 42.5297 75.6993C42.5297 74.8689 42.7048 74.1211 43.0553 73.4546C43.4167 72.788 43.9149 72.2584 44.5501 71.8652C45.1852 71.472 45.9244 71.2753 46.7677 71.2753ZM52.1645 79.9595C51.9784 79.9595 51.8196 79.8939 51.6882 79.7628C51.5677 79.6318 51.5075 79.4731 51.5075 79.2877V72.1437C51.5075 71.9583 51.5677 71.8049 51.6882 71.685C51.8196 71.5539 51.9784 71.4883 52.1645 71.4883C52.3617 71.4883 52.5205 71.5539 52.6409 71.685C52.7614 71.8049 52.8216 71.9583 52.8216 72.1437V74.3066L52.6245 73.9625C52.6902 73.6237 52.8052 73.2959 52.9694 72.9794C53.1447 72.6517 53.3637 72.362 53.6265 72.111C53.8893 71.8488 54.1905 71.6469 54.5299 71.5047C54.8694 71.352 55.2418 71.2753 55.6469 71.2753C55.8879 71.2753 56.1069 71.3356 56.304 71.4556C56.5121 71.565 56.6161 71.723 56.6161 71.9307C56.6161 72.1601 56.5559 72.3292 56.4354 72.4387C56.3149 72.5481 56.1781 72.6025 56.0247 72.6025C55.8824 72.6025 55.7455 72.575 55.6141 72.5206C55.4827 72.4551 55.3184 72.4223 55.1213 72.4223C54.8475 72.4223 54.5738 72.499 54.3 72.6517C54.0371 72.7939 53.7907 73.001 53.5608 73.2743C53.3418 73.5476 53.1611 73.8589 53.0187 74.2083C52.8873 74.5471 52.8216 74.9128 52.8216 75.3061V79.2877C52.8216 79.4731 52.7559 79.6318 52.6245 79.7628C52.504 79.8939 52.3508 79.9595 52.1645 79.9595ZM59.3653 79.2877C59.3653 79.4731 59.2996 79.6318 59.1682 79.7628C59.0477 79.8939 58.8945 79.9595 58.7083 79.9595C58.5111 79.9595 58.3524 79.8939 58.2319 79.7628C58.1115 79.6318 58.0512 79.4731 58.0512 79.2877V72.0127C58.0512 71.8272 58.1115 71.6738 58.2319 71.5539C58.3633 71.4228 58.5221 71.3573 58.7083 71.3573C58.8945 71.3573 59.0477 71.4228 59.1682 71.5539C59.2996 71.6738 59.3653 71.8272 59.3653 72.0127V79.2877ZM58.7083 70.2595C58.4345 70.2595 58.2319 70.2051 58.1005 70.0956C57.9691 69.9862 57.9034 69.8171 57.9034 69.5877V69.3583C57.9034 69.1289 57.9746 68.9598 58.1169 68.8503C58.2593 68.7409 58.4619 68.6865 58.7247 68.6865C58.9875 68.6865 59.1846 68.7409 59.316 68.8503C59.4474 68.9598 59.5131 69.1289 59.5131 69.3583V69.5877C59.5131 69.8171 59.442 69.9862 59.2996 70.0956C59.1682 70.2051 58.9711 70.2595 58.7083 70.2595ZM65.9146 71.3573C66.659 71.3573 67.3273 71.5427 67.9186 71.9144C68.5099 72.286 68.9751 72.7992 69.3148 73.4546C69.665 74.11 69.8405 74.8637 69.8405 75.7157C69.8405 76.5566 69.665 77.3103 69.3148 77.9769C68.9751 78.6323 68.5099 79.1513 67.9186 79.5334C67.3384 79.9051 66.6814 80.0905 65.9474 80.0905C65.5422 80.0905 65.1589 80.0302 64.7975 79.9103C64.4471 79.7792 64.1241 79.6154 63.8284 79.4187C63.5437 79.211 63.3027 78.9816 63.1056 78.7306C62.9085 78.4684 62.7661 78.2115 62.6785 77.9605L63.0399 77.7311V82.5647C63.0399 82.7502 62.9797 82.9088 62.8592 83.0399C62.7388 83.1709 62.58 83.2365 62.3829 83.2365C62.1967 83.2365 62.0379 83.1709 61.9065 83.0399C61.7861 82.9199 61.7258 82.7613 61.7258 82.5647V72.0946C61.7258 71.9091 61.7861 71.7557 61.9065 71.6358C62.0379 71.5047 62.1967 71.4392 62.3829 71.4392C62.58 71.4392 62.7388 71.5047 62.8592 71.6358C62.9797 71.7557 63.0399 71.9091 63.0399 72.0946V73.5529L62.7935 73.4218C62.8702 73.1485 63.0016 72.8863 63.1878 72.6353C63.3849 72.3843 63.6203 72.1654 63.8941 71.9799C64.1788 71.7833 64.4909 71.6306 64.8304 71.5211C65.1808 71.4117 65.5422 71.3573 65.9146 71.3573ZM65.7668 72.5698C65.2192 72.5698 64.7318 72.7061 64.3047 72.9794C63.8886 73.2527 63.5601 73.6237 63.3192 74.0936C63.0892 74.5635 62.9742 75.1042 62.9742 75.7157C62.9742 76.3167 63.0892 76.8574 63.3192 77.3378C63.5601 77.8182 63.8886 78.1951 64.3047 78.4684C64.7318 78.7417 65.2192 78.878 65.7668 78.878C66.3141 78.878 66.7964 78.7417 67.2123 78.4684C67.6282 78.1951 67.9567 77.8182 68.1978 77.3378C68.439 76.8574 68.5592 76.3167 68.5592 75.7157C68.5592 75.1042 68.439 74.5635 68.1978 74.0936C67.9567 73.6237 67.6282 73.2527 67.2123 72.9794C66.7964 72.7061 66.3141 72.5698 65.7668 72.5698ZM71.487 71.5375H75.3472C75.5227 71.5375 75.6652 71.5978 75.7743 71.7177C75.8952 71.8377 75.955 71.9799 75.955 72.1437C75.955 72.3187 75.8952 72.4662 75.7743 72.5861C75.6652 72.6956 75.5227 72.75 75.3472 72.75H71.487C71.3228 72.75 71.1809 72.6897 71.06 72.5698C70.9397 72.4498 70.8793 72.3024 70.8793 72.1274C70.8793 71.9635 70.9397 71.8272 71.06 71.7177C71.1809 71.5978 71.3228 71.5375 71.487 71.5375ZM73.2118 69.3091C73.3984 69.3091 73.5515 69.3747 73.6717 69.5057C73.7926 69.6257 73.8524 69.779 73.8524 69.9645V77.8785C73.8524 78.1407 73.8912 78.3373 73.9674 78.4684C74.0443 78.5995 74.1428 78.6926 74.2631 78.747C74.3945 78.7909 74.5206 78.8125 74.6409 78.8125C74.7506 78.8125 74.8439 78.7961 74.9201 78.7633C75.0082 78.7194 75.1067 78.6978 75.2158 78.6978C75.3255 78.6978 75.4241 78.7522 75.5115 78.8617C75.61 78.96 75.6593 79.091 75.6593 79.2549C75.6593 79.4515 75.5443 79.6206 75.3144 79.7628C75.0844 79.8939 74.8275 79.9595 74.5423 79.9595C74.3892 79.9595 74.1974 79.9483 73.9674 79.9267C73.7486 79.9051 73.5298 79.8336 73.3104 79.7137C73.0916 79.5937 72.9056 79.3971 72.7519 79.1238C72.6099 78.84 72.5383 78.4468 72.5383 77.9441V69.9645C72.5383 69.779 72.604 69.6257 72.7354 69.5057C72.8668 69.3747 73.0259 69.3091 73.2118 69.3091ZM84.7805 71.4064C84.9671 71.4064 85.1202 71.472 85.2404 71.603C85.3718 71.723 85.4376 71.8763 85.4376 72.0618V79.2877C85.4376 79.4731 85.3718 79.6318 85.2404 79.7628C85.1202 79.8939 84.9671 79.9595 84.7805 79.9595C84.5834 79.9595 84.425 79.8939 84.3041 79.7628C84.1839 79.6318 84.1235 79.4731 84.1235 79.2877V77.7311L84.4356 77.6983C84.4356 77.9388 84.3534 78.201 84.1892 78.4848C84.0249 78.7686 83.8008 79.0366 83.5157 79.2877C83.2312 79.5282 82.8915 79.7301 82.4972 79.8939C82.1142 80.0466 81.6983 80.1233 81.2489 80.1233C80.5044 80.1233 79.8362 79.9319 79.2449 79.5498C78.6535 79.1566 78.1831 78.627 77.8322 77.9605C77.4931 77.2939 77.323 76.535 77.323 75.6829C77.323 74.8198 77.4931 74.0608 77.8322 73.4054C78.1831 72.7389 78.6535 72.2204 79.2449 71.8488C79.8362 71.4667 80.4932 71.2753 81.216 71.2753C81.6871 71.2753 82.1254 71.352 82.5301 71.5047C82.9355 71.6574 83.2857 71.8652 83.5814 72.1274C83.8882 72.3895 84.1235 72.6792 84.2877 72.9958C84.4631 73.3123 84.5505 73.6295 84.5505 73.9461L84.1235 73.8478V72.0618C84.1235 71.8763 84.1839 71.723 84.3041 71.603C84.425 71.472 84.5834 71.4064 84.7805 71.4064ZM81.3967 78.9108C81.9447 78.9108 82.4263 78.7686 82.8422 78.4848C83.2693 78.201 83.5978 77.8182 83.8278 77.3378C84.0689 76.8463 84.1892 76.2944 84.1892 75.6829C84.1892 75.0819 84.0689 74.5412 83.8278 74.0608C83.5978 73.5693 83.2693 73.1872 82.8422 72.9138C82.4263 72.6301 81.9447 72.4878 81.3967 72.4878C80.8605 72.4878 80.3783 72.6242 79.9512 72.8975C79.5353 73.1708 79.2067 73.5476 78.9656 74.028C78.7251 74.5084 78.6042 75.0603 78.6042 75.6829C78.6042 76.2944 78.7192 76.8463 78.9492 77.3378C79.1903 77.8182 79.5188 78.201 79.9347 78.4848C80.3618 78.7686 80.8494 78.9108 81.3967 78.9108ZM94.8708 67.8345C95.0568 67.8345 95.2099 67.9 95.3308 68.0311C95.4622 68.151 95.5279 68.3044 95.5279 68.4899V79.2877C95.5279 79.4731 95.4622 79.6318 95.3308 79.7628C95.2099 79.8939 95.0568 79.9595 94.8708 79.9595C94.6737 79.9595 94.5147 79.8939 94.3945 79.7628C94.2736 79.6318 94.2138 79.4731 94.2138 79.2877V77.7311L94.5259 77.6164C94.5259 77.8785 94.4438 78.1571 94.2795 78.452C94.1152 78.7358 93.8905 79.0039 93.606 79.2549C93.3209 79.5059 92.9818 79.7137 92.5876 79.8775C92.2039 80.0414 91.788 80.1233 91.3392 80.1233C90.6053 80.1233 89.937 79.9319 89.3352 79.5498C88.7438 79.1677 88.2727 78.6434 87.9225 77.9769C87.5828 77.3103 87.4133 76.5513 87.4133 75.6993C87.4133 74.8362 87.5828 74.072 87.9225 73.4054C88.2727 72.7389 88.7438 72.2204 89.3352 71.8488C89.9265 71.4667 90.5836 71.2753 91.3063 71.2753C91.7663 71.2753 92.1986 71.352 92.604 71.5047C93.0088 71.6574 93.3596 71.8652 93.6553 72.1274C93.9615 72.3895 94.2026 72.6792 94.3781 72.9958C94.5528 73.3123 94.6409 73.6295 94.6409 73.9461L94.2138 73.8478V68.4899C94.2138 68.3044 94.2736 68.151 94.3945 68.0311C94.5147 67.9 94.6737 67.8345 94.8708 67.8345ZM91.487 78.9108C92.0343 78.9108 92.516 78.7745 92.9325 78.5012C93.3596 78.2174 93.6881 77.8346 93.9181 77.3542C94.1586 76.8627 94.2795 76.3108 94.2795 75.6993C94.2795 75.0767 94.1586 74.5248 93.9181 74.0444C93.6881 73.564 93.3596 73.1872 92.9325 72.9138C92.516 72.6301 92.0343 72.4878 91.487 72.4878C90.9502 72.4878 90.4686 72.6301 90.0415 72.9138C89.6249 73.1872 89.2964 73.564 89.0559 74.0444C88.8148 74.5248 88.6946 75.0767 88.6946 75.6993C88.6946 76.3003 88.8148 76.8463 89.0559 77.3378C89.2964 77.8182 89.6249 78.201 90.0415 78.4848C90.4686 78.7686 90.9502 78.9108 91.487 78.9108ZM106.028 75.6993C106.028 76.5513 105.837 77.3103 105.453 77.9769C105.081 78.6434 104.572 79.1677 103.926 79.5498C103.291 79.9319 102.573 80.1233 101.774 80.1233C100.975 80.1233 100.252 79.9319 99.6056 79.5498C98.9597 79.1677 98.4452 78.6434 98.0615 77.9769C97.6896 77.3103 97.503 76.5513 97.503 75.6993C97.503 74.8473 97.6896 74.0883 98.0615 73.4218C98.4452 72.7552 98.9597 72.2309 99.6056 71.8488C100.252 71.4667 100.975 71.2753 101.774 71.2753C102.573 71.2753 103.291 71.4667 103.926 71.8488C104.572 72.2309 105.081 72.7552 105.453 73.4218C105.837 74.0883 106.028 74.8473 106.028 75.6993ZM104.714 75.6993C104.714 75.0655 104.583 74.5084 104.32 74.028C104.068 73.5476 103.718 73.1708 103.269 72.8975C102.831 72.6242 102.332 72.4878 101.774 72.4878C101.215 72.4878 100.712 72.6242 100.263 72.8975C99.825 73.1708 99.4741 73.5476 99.2113 74.028C98.9485 74.5084 98.8171 75.0655 98.8171 75.6993C98.8171 76.322 98.9485 76.8738 99.2113 77.3542C99.4741 77.8346 99.825 78.2174 100.263 78.5012C100.712 78.7745 101.215 78.9108 101.774 78.9108C102.332 78.9108 102.831 78.7745 103.269 78.5012C103.718 78.2174 104.068 77.8346 104.32 77.3542C104.583 76.8738 104.714 76.322 104.714 75.6993ZM108.662 79.9595C108.476 79.9595 108.317 79.8939 108.185 79.7628C108.065 79.6318 108.005 79.4731 108.005 79.2877V72.1437C108.005 71.9583 108.065 71.8049 108.185 71.685C108.317 71.5539 108.476 71.4883 108.662 71.4883C108.859 71.4883 109.018 71.5539 109.138 71.685C109.259 71.8049 109.319 71.9583 109.319 72.1437V74.3066L109.122 73.9625C109.187 73.6237 109.302 73.2959 109.467 72.9794C109.642 72.6517 109.861 72.362 110.124 72.111C110.386 71.8488 110.688 71.6469 111.027 71.5047C111.367 71.352 111.739 71.2753 112.144 71.2753C112.385 71.2753 112.604 71.3356 112.801 71.4556C113.009 71.565 113.113 71.723 113.113 71.9307C113.113 72.1601 113.053 72.3292 112.933 72.4387C112.812 72.5481 112.676 72.6025 112.522 72.6025C112.38 72.6025 112.243 72.575 112.111 72.5206C111.98 72.4551 111.816 72.4223 111.618 72.4223C111.345 72.4223 111.071 72.499 110.797 72.6517C110.534 72.7939 110.288 73.001 110.058 73.2743C109.839 73.5476 109.658 73.8589 109.516 74.2083C109.384 74.5471 109.319 74.9128 109.319 75.3061V79.2877C109.319 79.4731 109.253 79.6318 109.122 79.7628C109.001 79.8939 108.848 79.9595 108.662 79.9595ZM126.119 67.8345C126.305 67.8345 126.459 67.9 126.579 68.0311C126.71 68.151 126.776 68.3044 126.776 68.4899V79.2877C126.776 79.4731 126.71 79.6318 126.579 79.7628C126.459 79.8939 126.305 79.9595 126.119 79.9595C125.922 79.9595 125.763 79.8939 125.643 79.7628C125.522 79.6318 125.462 79.4731 125.462 79.2877V77.7311L125.774 77.6164C125.774 77.8785 125.692 78.1571 125.528 78.452C125.363 78.7358 125.139 79.0039 124.854 79.2549C124.57 79.5059 124.23 79.7137 123.836 79.8775C123.453 80.0414 123.037 80.1233 122.587 80.1233C121.854 80.1233 121.186 79.9319 120.583 79.5498C119.992 79.1677 119.521 78.6434 119.171 77.9769C118.832 77.3103 118.661 76.5513 118.661 75.6993C118.661 74.8362 118.832 74.072 119.171 73.4054C119.521 72.7389 119.992 72.2204 120.583 71.8488C121.175 71.4667 121.832 71.2753 122.554 71.2753C123.014 71.2753 123.447 71.352 123.852 71.5047C124.257 71.6574 124.608 71.8652 124.903 72.1274C125.21 72.3895 125.451 72.6792 125.626 72.9958C125.802 73.3123 125.889 73.6295 125.889 73.9461L125.462 73.8478V68.4899C125.462 68.3044 125.522 68.151 125.643 68.0311C125.763 67.9 125.922 67.8345 126.119 67.8345ZM122.735 78.9108C123.283 78.9108 123.765 78.7745 124.181 78.5012C124.608 78.2174 124.936 77.8346 125.166 77.3542C125.407 76.8627 125.528 76.3108 125.528 75.6993C125.528 75.0767 125.407 74.5248 125.166 74.0444C124.936 73.564 124.608 73.1872 124.181 72.9138C123.765 72.6301 123.283 72.4878 122.735 72.4878C122.199 72.4878 121.717 72.6301 121.29 72.9138C120.874 73.1872 120.545 73.564 120.304 74.0444C120.063 74.5248 119.943 75.0767 119.943 75.6993C119.943 76.3003 120.063 76.8463 120.304 77.3378C120.545 77.8182 120.874 78.201 121.29 78.4848C121.717 78.7686 122.199 78.9108 122.735 78.9108ZM133.138 80.1233C132.262 80.1233 131.495 79.9378 130.838 79.5662C130.181 79.1946 129.666 78.6867 129.294 78.0424C128.932 77.387 128.752 76.6333 128.752 75.7812C128.752 74.8309 128.938 74.0228 129.31 73.3562C129.693 72.6792 130.186 72.1654 130.789 71.816C131.402 71.4556 132.048 71.2753 132.727 71.2753C133.231 71.2753 133.718 71.3684 134.189 71.5539C134.66 71.7394 135.076 72.0127 135.437 72.3731C135.799 72.7225 136.089 73.1485 136.308 73.6512C136.527 74.1427 136.642 74.6946 136.653 75.3061C136.653 75.4811 136.587 75.6285 136.456 75.7485C136.324 75.8684 136.171 75.9287 135.996 75.9287H129.507L129.212 74.7981H135.536L135.273 75.0275V74.6671C135.229 74.2194 135.076 73.8367 134.813 73.5201C134.561 73.1924 134.249 72.9414 133.877 72.7664C133.515 72.5914 133.132 72.5042 132.727 72.5042C132.398 72.5042 132.07 72.5645 131.741 72.6845C131.424 72.7939 131.133 72.9794 130.871 73.2416C130.619 73.4926 130.411 73.8203 130.246 74.2247C130.093 74.629 130.017 75.1147 130.017 75.6829C130.017 76.3167 130.143 76.8738 130.394 77.3542C130.657 77.8346 131.019 78.2174 131.478 78.5012C131.938 78.7745 132.475 78.9108 133.088 78.9108C133.471 78.9108 133.806 78.8617 134.09 78.7633C134.375 78.665 134.621 78.5451 134.829 78.4029C135.038 78.2502 135.212 78.0968 135.355 77.9441C135.498 77.8458 135.634 77.7966 135.766 77.7966C135.93 77.7966 136.061 77.851 136.16 77.9605C136.27 78.0699 136.324 78.201 136.324 78.3537C136.324 78.5392 136.237 78.703 136.061 78.8453C135.755 79.1841 135.339 79.4843 134.813 79.7465C134.287 79.9975 133.729 80.1233 133.138 80.1233ZM142.823 71.5375H146.683C146.858 71.5375 147.001 71.5978 147.11 71.7177C147.231 71.8377 147.291 71.9799 147.291 72.1437C147.291 72.3187 147.231 72.4662 147.11 72.5861C147.001 72.6956 146.858 72.75 146.683 72.75H142.823C142.659 72.75 142.516 72.6897 142.396 72.5698C142.275 72.4498 142.215 72.3024 142.215 72.1274C142.215 71.9635 142.275 71.8272 142.396 71.7177C142.516 71.5978 142.659 71.5375 142.823 71.5375ZM144.548 69.3091C144.734 69.3091 144.887 69.3747 145.008 69.5057C145.128 69.6257 145.188 69.779 145.188 69.9645V77.8785C145.188 78.1407 145.227 78.3373 145.303 78.4684C145.38 78.5995 145.478 78.6926 145.599 78.747C145.731 78.7909 145.856 78.8125 145.977 78.8125C146.086 78.8125 146.179 78.7961 146.256 78.7633C146.344 78.7194 146.442 78.6978 146.552 78.6978C146.661 78.6978 146.759 78.7522 146.848 78.8617C146.946 78.96 146.995 79.091 146.995 79.2549C146.995 79.4515 146.88 79.6206 146.65 79.7628C146.42 79.8939 146.163 79.9595 145.878 79.9595C145.725 79.9595 145.533 79.9483 145.303 79.9267C145.084 79.9051 144.865 79.8336 144.646 79.7137C144.427 79.5937 144.241 79.3971 144.088 79.1238C143.945 78.84 143.874 78.4468 143.874 77.9441V69.9645C143.874 69.779 143.94 69.6257 144.072 69.5057C144.203 69.3747 144.361 69.3091 144.548 69.3091ZM152.965 80.1233C152.088 80.1233 151.322 79.9378 150.665 79.5662C150.008 79.1946 149.493 78.6867 149.121 78.0424C148.76 77.387 148.579 76.6333 148.579 75.7812C148.579 74.8309 148.765 74.0228 149.137 73.3562C149.52 72.6792 150.013 72.1654 150.616 71.816C151.229 71.4556 151.875 71.2753 152.554 71.2753C153.057 71.2753 153.545 71.3684 154.016 71.5539C154.486 71.7394 154.903 72.0127 155.264 72.3731C155.626 72.7225 155.916 73.1485 156.135 73.6512C156.354 74.1427 156.469 74.6946 156.48 75.3061C156.48 75.4811 156.414 75.6285 156.283 75.7485C156.151 75.8684 155.998 75.9287 155.823 75.9287H149.334L149.039 74.7981H155.363L155.1 75.0275V74.6671C155.056 74.2194 154.903 73.8367 154.64 73.5201C154.388 73.1924 154.076 72.9414 153.704 72.7664C153.342 72.5914 152.959 72.5042 152.554 72.5042C152.226 72.5042 151.897 72.5645 151.568 72.6845C151.25 72.7939 150.961 72.9794 150.698 73.2416C150.446 73.4926 150.238 73.8203 150.074 74.2247C149.92 74.629 149.844 75.1147 149.844 75.6829C149.844 76.3167 149.969 76.8738 150.221 77.3542C150.484 77.8346 150.846 78.2174 151.306 78.5012C151.766 78.7745 152.302 78.9108 152.915 78.9108C153.298 78.9108 153.632 78.8617 153.917 78.7633C154.202 78.665 154.448 78.5451 154.657 78.4029C154.864 78.2502 155.04 78.0968 155.182 77.9441C155.324 77.8458 155.461 77.7966 155.593 77.7966C155.757 77.7966 155.889 77.851 155.987 77.9605C156.096 78.0699 156.151 78.201 156.151 78.3537C156.151 78.5392 156.063 78.703 155.889 78.8453C155.582 79.1841 155.166 79.4843 154.64 79.7465C154.115 79.9975 153.556 80.1233 152.965 80.1233ZM158.293 71.39C158.5 71.39 158.676 71.4831 158.818 71.6686L164.535 78.9436C164.622 79.0635 164.666 79.1946 164.666 79.3368C164.666 79.5223 164.6 79.6809 164.469 79.812C164.338 79.9431 164.184 80.0086 164.009 80.0086C163.801 80.0086 163.62 79.9103 163.467 79.7137L157.751 72.4551C157.663 72.3351 157.619 72.204 157.619 72.0618C157.619 71.8652 157.685 71.7066 157.816 71.5867C157.958 71.4556 158.117 71.39 158.293 71.39ZM158.293 79.9922C158.15 79.9922 158.008 79.9378 157.866 79.8284C157.723 79.7189 157.652 79.5774 157.652 79.4024C157.652 79.2601 157.707 79.1238 157.816 78.9927L160.51 75.601L161.2 76.6824L158.818 79.7301C158.687 79.9051 158.512 79.9922 158.293 79.9922ZM164.009 71.39C164.195 71.39 164.343 71.4503 164.453 71.5703C164.573 71.6902 164.633 71.8272 164.633 71.9799C164.633 72.0454 164.617 72.1162 164.584 72.1929C164.562 72.2696 164.524 72.3404 164.469 72.4059L161.792 75.8304L161.102 74.8309L163.467 71.685C163.62 71.4883 163.801 71.39 164.009 71.39ZM166.837 71.5375H170.697C170.872 71.5375 171.015 71.5978 171.124 71.7177C171.245 71.8377 171.305 71.9799 171.305 72.1437C171.305 72.3187 171.245 72.4662 171.124 72.5861C171.015 72.6956 170.872 72.75 170.697 72.75H166.837C166.673 72.75 166.53 72.6897 166.41 72.5698C166.289 72.4498 166.229 72.3024 166.229 72.1274C166.229 71.9635 166.289 71.8272 166.41 71.7177C166.53 71.5978 166.673 71.5375 166.837 71.5375ZM168.562 69.3091C168.748 69.3091 168.901 69.3747 169.022 69.5057C169.142 69.6257 169.202 69.779 169.202 69.9645V77.8785C169.202 78.1407 169.24 78.3373 169.317 78.4684C169.394 78.5995 169.492 78.6926 169.613 78.747C169.744 78.7909 169.87 78.8125 169.991 78.8125C170.1 78.8125 170.193 78.7961 170.27 78.7633C170.357 78.7194 170.456 78.6978 170.566 78.6978C170.675 78.6978 170.773 78.7522 170.861 78.8617C170.96 78.96 171.009 79.091 171.009 79.2549C171.009 79.4515 170.894 79.6206 170.664 79.7628C170.434 79.8939 170.177 79.9595 169.892 79.9595C169.739 79.9595 169.547 79.9483 169.317 79.9267C169.098 79.9051 168.879 79.8336 168.66 79.7137C168.441 79.5937 168.255 79.3971 168.102 79.1238C167.959 78.84 167.888 78.4468 167.888 77.9441V69.9645C167.888 69.779 167.954 69.6257 168.085 69.5057C168.217 69.3747 168.375 69.3091 168.562 69.3091ZM181.117 75.6993C181.117 76.5513 180.926 77.3103 180.542 77.9769C180.171 78.6434 179.661 79.1677 179.015 79.5498C178.38 79.9319 177.663 80.1233 176.863 80.1233C176.064 80.1233 175.341 79.9319 174.695 79.5498C174.049 79.1677 173.534 78.6434 173.151 77.9769C172.779 77.3103 172.592 76.5513 172.592 75.6993C172.592 74.8473 172.779 74.0883 173.151 73.4218C173.534 72.7552 174.049 72.2309 174.695 71.8488C175.341 71.4667 176.064 71.2753 176.863 71.2753C177.663 71.2753 178.38 71.4667 179.015 71.8488C179.661 72.2309 180.171 72.7552 180.542 73.4218C180.926 74.0883 181.117 74.8473 181.117 75.6993ZM179.803 75.6993C179.803 75.0655 179.672 74.5084 179.409 74.028C179.157 73.5476 178.807 73.1708 178.358 72.8975C177.92 72.6242 177.421 72.4878 176.863 72.4878C176.304 72.4878 175.801 72.6242 175.352 72.8975C174.914 73.1708 174.563 73.5476 174.3 74.028C174.038 74.5084 173.906 75.0655 173.906 75.6993C173.906 76.322 174.038 76.8738 174.3 77.3542C174.563 77.8346 174.914 78.2174 175.352 78.5012C175.801 78.7745 176.304 78.9108 176.863 78.9108C177.421 78.9108 177.92 78.7745 178.358 78.5012C178.807 78.2174 179.157 77.8346 179.409 77.3542C179.672 76.8738 179.803 76.322 179.803 75.6993Z" fill="black"/>
</svg>
